STARTFONT 2.1
FONT -FontForge-Good Times Rg-Book-R-Normal--85-820-75-75-P-631-ISO10646-1
SIZE 82 75 75
FONTBOUNDINGBOX 170 101 -24 -18
COMMENT "Generated by fontforge, http://fontforge.sourceforge.net"
COMMENT "(c) 1998-2012 Typodermic Fonts Inc. See attached license agreement. If agreement is missing visit typodermicfonts.com for more info. Languages by Chikako Larabie"
STARTPROPERTIES 39
FOUNDRY "FontForge"
FAMILY_NAME "Good Times Rg"
WEIGHT_NAME "Book"
SLANT "R"
SETWIDTH_NAME "Normal"
ADD_STYLE_NAME ""
PIXEL_SIZE 85
POINT_SIZE 820
RESOLUTION_X 75
RESOLUTION_Y 75
SPACING "P"
AVERAGE_WIDTH 631
CHARSET_REGISTRY "ISO10646"
CHARSET_ENCODING "1"
FONTNAME_REGISTRY ""
CHARSET_COLLECTIONS "ISO8859-2 ISO8859-9 ISO8859-4 ISO10646-1"
FONT_NAME "GoodTimesRg-Regular"
FACE_NAME "GoodTimesRg-Regular"
COPYRIGHT "(c) 1998-2012 Typodermic Fonts Inc. See attached license agreement. If agreement is missing visit typodermicfonts.com for more info. Languages by Chikako Larabie"
FONT_VERSION "4.001"
FONT_ASCENT 68
FONT_DESCENT 17
UNDERLINE_POSITION -12
UNDERLINE_THICKNESS 2
X_HEIGHT 61
CAP_HEIGHT 61
RAW_ASCENT 799
RAW_DESCENT 201
NORM_SPACE 25
RELATIVE_WEIGHT 40
RELATIVE_SETWIDTH 50
SUPERSCRIPT_X 0
SUPERSCRIPT_Y 25
SUPERSCRIPT_SIZE 25
SUBSCRIPT_X 0
SUBSCRIPT_Y 0
SUBSCRIPT_SIZE 25
AVG_LOWERCASE_WIDTH 724
AVG_UPPERCASE_WIDTH 722
ENDPROPERTIES
CHARS 372
STARTCHAR space
ENCODING 32
SWIDTH 294 0
DWIDTH 25 0
BBX 1 1 0 0
BITMAP
00
ENDCHAR
STARTCHAR exclam
ENCODING 33
SWIDTH 298 0
DWIDTH 25 0
BBX 12 62 7 0
BITMAP
7FE0
7FE0
7FE0
7FE0
7FE0
7FE0
7FE0
7FE0
7FE0
7FE0
7FE0
7FE0
7FE0
7FE0
7FE0
7FE0
7FE0
7FE0
7FE0
7FE0
7FE0
7FE0
7FE0
7FE0
7FE0
7FE0
7FE0
7FE0
7FE0
7FE0
7FE0
7FE0
7FE0
7FE0
7FE0
7FE0
7FE0
7FE0
7FE0
7FE0
7FE0
7FE0
0000
0000
0000
0000
0000
0000
0000
0000
1F00
3FC0
7FE0
FFE0
FFE0
FFF0
FFF0
FFE0
7FE0
7FE0
3FC0
1F00
ENDCHAR
STARTCHAR quotedbl
ENCODING 34
SWIDTH 452 0
DWIDTH 38 0
BBX 27 22 6 40
BITMAP
FFE0FFE0
FFE0FFE0
FFE0FFC0
FFC0FFC0
FFC0FFC0
FFC0FFC0
FFC0FFC0
FFC0FFC0
7FC0FFC0
7FC07FC0
7FC07FC0
7FC07FC0
7FC07FC0
7FC07F80
7F807F80
7F807F80
7F807F80
7F807F80
7F807F80
3F807F80
3F803F80
3F803F80
ENDCHAR
STARTCHAR numbersign
ENCODING 35
SWIDTH 697 0
DWIDTH 59 0
BBX 52 62 4 0
BITMAP
000007F8007F80
000007F0007F80
00000FF0007F00
00000FF000FF00
00000FE000FF00
00001FE000FE00
00001FE001FE00
00001FC001FE00
00003FC001FC00
00003FC003FC00
00003FC003FC00
00003F8003FC00
00007F8003F800
00007F8007F800
00007F0007F800
0000FF0007F000
03FFFFFFFFFFF0
03FFFFFFFFFFF0
03FFFFFFFFFFF0
03FFFFFFFFFFF0
03FFFFFFFFFFF0
03FFFFFFFFFFF0
03FFFFFFFFFFF0
0003FC003FC000
0003F8003FC000
0007F8003F8000
0007F8007F8000
0007F0007F8000
000FF0007F0000
000FF000FF0000
000FE000FF0000
001FE000FF0000
001FE000FE0000
001FE001FE0000
001FC001FE0000
003FC001FC0000
003FC003FC0000
003F8003FC0000
FFFFFFFFFFF800
FFFFFFFFFFF800
FFFFFFFFFFF800
FFFFFFFFFFF800
FFFFFFFFFFF800
FFFFFFFFFFF800
FFFFFFFFFFF800
01FE000FE00000
01FE001FE00000
01FC001FE00000
03FC001FC00000
03FC003FC00000
03F8003FC00000
07F8003F800000
07F8007F800000
07F8007F800000
07F0007F800000
0FF0007F000000
0FF000FF000000
0FE000FF000000
1FE000FE000000
1FE001FE000000
1FC001FE000000
3FC001FE000000
ENDCHAR
STARTCHAR dollar
ENCODING 36
SWIDTH 744 0
DWIDTH 63 0
BBX 53 62 5 0
BITMAP
00000078000000
00000078000000
00000078000000
00000078000000
00000078000000
00000078000000
003FFFFFFFFFE0
01FFFFFFFFFFE0
03FFFFFFFFFFE0
0FFFFFFFFFFFE0
1FFFFFFFFFFFE0
3FFFFFFFFFFFE0
3FFFFFFFFFFFE0
7FFFFFFFFFFFE0
7FFFFFFFFFFFE0
FFF00078000000
FFE00078000000
FFC00078000000
FF800078000000
FF800078000000
FF800078000000
FF800078000000
FF800078000000
FF800078000000
7FC00078000000
7FE00078000000
7FF00078000000
3FFFFFFFFFE000
1FFFFFFFFFFC00
1FFFFFFFFFFF00
0FFFFFFFFFFF80
03FFFFFFFFFFC0
00FFFFFFFFFFE0
001FFFFFFFFFF0
00000078007FF0
00000078001FF0
00000078000FF8
00000078000FF8
000000780007F8
000000780007F8
000000780007F8
000000780007F8
000000780007F8
00000078000FF8
00000078000FF8
00000078001FF8
00000078007FF8
7FFFFFFFFFFFF0
7FFFFFFFFFFFF0
7FFFFFFFFFFFE0
7FFFFFFFFFFFE0
7FFFFFFFFFFFC0
7FFFFFFFFFFF80
7FFFFFFFFFFE00
7FFFFFFFFFFC00
7FFFFFFFFFC000
00000078000000
00000078000000
00000078000000
00000078000000
00000078000000
00000078000000
ENDCHAR
STARTCHAR percent
ENCODING 37
SWIDTH 965 0
DWIDTH 82 0
BBX 74 72 4 -6
BITMAP
000000000000000FE000
000000000000001FE000
001FF0000000001FC000
00FFFE000000003F8000
01FFFF800000007F0000
07FFFFC0000000FE0000
0FFFFFE0000001FE0000
1FF01FF0000001FC0000
3FC007F8000003F80000
3F0001F8000007F00000
7E0000FC00000FF00000
7E0000FC00001FE00000
FC00007E00001FC00000
FC00007E00003F800000
F800003E00007F000000
F800003E0000FF000000
F800003F0000FE000000
F800003F0001FC000000
F800003F0003F8000000
F800003F0007F8000000
F800003E000FF0000000
F800003E000FE0000000
FC00007E001FC0000000
7C00007E003F80000000
7E0000FC007F80000000
7E0000FC007F00000000
3F0001F800FE00000000
1FC007F001FC00000000
1FF01FF003FC00000000
0FFFFFE007F800000000
03FFFFC007F000000000
01FFFF000FE000000000
007FFC001FC000000000
000FF0003FC000000000
000000003F8000000000
000000007F0003FE0000
00000000FE001FFFC000
00000001FE007FFFE000
00000003FC00FFFFF800
00000003F801FFFFFC00
00000007F003FE03FE00
0000000FE007F000FF00
0000001FE007E0003F00
0000003FC00FC0001F80
0000003F800F80001F80
0000007F001F80000FC0
000000FF001F80000FC0
000001FE001F000007C0
000001FC001F000007C0
000003F8003F000007C0
000007F0003F000007C0
00000FF0003F000007C0
00001FE0003F000007C0
00001FC0001F000007C0
00003F80001F000007C0
00007F80001F80000FC0
0000FF00001F80000F80
0000FE00000FC0001F80
0001FC00000FC0001F80
0003F8000007E0003F00
0007F8000003F000FE00
000FF0000003FE03FE00
000FE0000001FFFFFC00
001FC0000000FFFFF000
003F800000003FFFE000
007F800000000FFF8000
007F0000000003FE0000
00FE0000000000000000
01FC0000000000000000
03FC0000000000000000
07F80000000000000000
0FF00000000000000000
ENDCHAR
STARTCHAR ampersand
ENCODING 38
SWIDTH 759 0
DWIDTH 65 0
BBX 58 62 4 0
BITMAP
0000FFFF80000000
000FFFFF80000000
007FFFFF80000000
00FFFFFF80000000
03FFFFFF80000000
07FFFFFF80000000
0FFFFFFF80000000
0FFFFFFF80000000
1FFFFFFF80000000
1FFFFFFF80000000
3FFFFFFF80000000
3FFF800000000000
3FFE000000000000
3FFC000000000000
7FF8000000000000
7FF8000000000000
7FF0000000000000
7FF0000000000000
7FF0000000000000
3FF0000000000000
3FF0000000000000
3FF8000000000000
3FF8000000000000
1FFC000000000000
1FFE000000000000
0FFF800000000000
07FFFFFFFFFFFC00
03FFFFFFFFFFFC00
00FFFFFFFFFFFC00
003FFFFFFFFFFC00
01FFFFFFFFFFFC00
03FFFFFFFFFFFC00
07FFFFFFFFFFFC00
0FFFFFFFFFFFFC00
1FFFFFFFFFFFFC00
3FFF80000FFE0000
3FFC00000FFE0000
7FF800000FFE0000
7FF000000FFE0000
7FF000000FFE0000
FFE000000FFE0000
FFE000000FFE0000
FFE000000FFE0000
FFE000000FFE0000
FFE000000FFE0000
FFE000000FFE0000
FFF000000FFE0000
7FF000000FFE0000
7FF800000FFE0000
7FFE00000FFE0000
7FFF80000FFE0000
3FFFFFFFFFFFFFC0
3FFFFFFFFFFFFFC0
1FFFFFFFFFFFFFC0
1FFFFFFFFFFFFFC0
0FFFFFFFFFFFFFC0
07FFFFFFFFFFFFC0
03FFFFFFFFFFFFC0
01FFFFFFFFFFFFC0
007FFFFFFFFFFFC0
001FFFFFFFFFFFC0
0001FFFFFFFFFFC0
ENDCHAR
STARTCHAR quotesingle
ENCODING 39
SWIDTH 255 0
DWIDTH 22 0
BBX 11 22 5 40
BITMAP
FFE0
FFE0
7FE0
7FE0
7FE0
7FE0
7FE0
7FE0
7FE0
7FC0
7FC0
7FC0
3FC0
3FC0
3FC0
3FC0
3FC0
3FC0
3FC0
3FC0
3F80
3F80
ENDCHAR
STARTCHAR parenleft
ENCODING 40
SWIDTH 356 0
DWIDTH 30 0
BBX 17 78 8 -8
BITMAP
007F80
00FF00
00FF00
00FE00
01FE00
01FE00
03FC00
03FC00
03F800
07F800
07F800
07F000
0FF000
0FF000
0FE000
1FE000
1FE000
1FC000
1FC000
3FC000
3F8000
3F8000
3F8000
7F8000
7F0000
7F0000
7F0000
7F0000
7F0000
FF0000
FE0000
FE0000
FE0000
FE0000
FE0000
FE0000
FE0000
FE0000
FE0000
FE0000
FE0000
FE0000
FE0000
FE0000
FE0000
FE0000
FE0000
FE0000
7F0000
7F0000
7F0000
7F0000
7F0000
7F0000
7F8000
3F8000
3F8000
3F8000
3FC000
1FC000
1FC000
1FC000
1FE000
0FE000
0FE000
0FF000
07F000
07F000
07F800
03F800
03FC00
03FC00
01FC00
01FE00
00FE00
00FF00
007F00
007F80
ENDCHAR
STARTCHAR parenright
ENCODING 41
SWIDTH 355 0
DWIDTH 30 0
BBX 17 78 5 -8
BITMAP
7F0000
7F8000
3F8000
3FC000
3FC000
1FC000
1FE000
0FE000
0FF000
0FF000
07F000
07F800
07F800
03F800
03FC00
03FC00
01FC00
01FC00
01FE00
00FE00
00FE00
00FE00
00FF00
007F00
007F00
007F00
007F00
007F00
007F80
003F80
003F80
003F80
003F80
003F80
003F80
003F80
003F80
003F80
003F80
003F80
003F80
003F80
003F80
003F80
003F80
003F80
003F80
003F80
003F80
007F80
007F00
007F00
007F00
007F00
007F00
00FF00
00FE00
00FE00
00FE00
01FE00
01FC00
01FC00
03FC00
03FC00
03F800
07F800
07F800
07F000
0FF000
0FF000
0FE000
1FE000
1FC000
3FC000
3FC000
7F8000
7F8000
FF0000
ENDCHAR
STARTCHAR asterisk
ENCODING 42
SWIDTH 469 0
DWIDTH 40 0
BBX 29 28 6 34
BITMAP
001F0000
001F0000
001F0000
001F0000
001F0000
001F0000
001F0000
001F0000
701F00E0
FE1F07F0
FFDF3FF0
FFFFFFF0
FFFFFFF8
1FFFFF80
03FFFC00
007FE000
007FE000
007FE000
00FFF000
01FBF800
03F9F800
03F0FC00
07E07E00
0FE07E00
1FC03F80
0F801F00
07001E00
01000800
ENDCHAR
STARTCHAR plus
ENCODING 43
SWIDTH 690 0
DWIDTH 59 0
BBX 48 48 5 7
BITMAP
000007F00000
000007F00000
000007F00000
000007F00000
000007F00000
000007F00000
000007F00000
000007F00000
000007F00000
000007F00000
000007F00000
000007F00000
000007F00000
000007F00000
000007F00000
000007F00000
000007F00000
000007F00000
000007F00000
000007F00000
FFFFFFFFFFFF
FFFFFFFFFFFF
FFFFFFFFFFFF
FFFFFFFFFFFF
FFFFFFFFFFFF
FFFFFFFFFFFF
FFFFFFFFFFFF
000007F00000
000007F00000
000007F00000
000007F00000
000007F00000
000007F00000
000007F00000
000007F00000
000007F00000
000007F00000
000007F00000
000007F00000
000007F00000
000007F00000
000007F00000
000007F00000
000007F00000
000007F00000
000007F00000
000007F00000
000007F00000
ENDCHAR
STARTCHAR comma
ENCODING 44
SWIDTH 259 0
DWIDTH 22 0
BBX 11 22 6 -10
BITMAP
FFE0
FFC0
FFC0
FFC0
FFC0
FFC0
FF80
FF80
FF80
FF80
FF80
FF00
FF00
FF00
FF00
FF00
FE00
FE00
FE00
FE00
FE00
FE00
ENDCHAR
STARTCHAR hyphen
ENCODING 45
SWIDTH 296 0
DWIDTH 25 0
BBX 21 7 2 28
BITMAP
FFFFF8
FFFFF8
FFFFF8
FFFFF8
FFFFF8
FFFFF8
FFFFF8
ENDCHAR
STARTCHAR period
ENCODING 46
SWIDTH 262 0
DWIDTH 22 0
BBX 12 12 5 0
BITMAP
0F00
3FC0
7FE0
7FE0
FFF0
FFF0
FFF0
FFF0
7FE0
7FE0
3FC0
0F80
ENDCHAR
STARTCHAR slash
ENCODING 47
SWIDTH 444 0
DWIDTH 38 0
BBX 36 62 1 0
BITMAP
00000007F0
0000000FE0
0000000FE0
0000001FC0
0000001FC0
0000003F80
0000003F80
0000007F00
0000007F00
000000FF00
000000FE00
000001FE00
000001FC00
000003FC00
000003F800
000003F800
000007F000
000007F000
00000FE000
00000FE000
00001FC000
00001FC000
00003FC000
00003F8000
00007F8000
00007F0000
0000FF0000
0000FE0000
0001FE0000
0001FC0000
0001FC0000
0003F80000
0003F80000
0007F00000
0007F00000
000FF00000
000FE00000
001FE00000
001FC00000
003FC00000
003F800000
007F800000
007F000000
00FF000000
00FE000000
01FE000000
01FC000000
01FC000000
03F8000000
03F8000000
07F8000000
07F0000000
0FF0000000
0FE0000000
1FE0000000
1FC0000000
3FC0000000
3F80000000
7F80000000
7F00000000
FF00000000
FE00000000
ENDCHAR
STARTCHAR zero
ENCODING 48
SWIDTH 838 0
DWIDTH 71 0
BBX 64 62 4 0
BITMAP
0000007FFC000000
000007FFFFC00000
00003FFFFFF80000
0000FFFFFFFE0000
0003FFFFFFFF8000
0007FFFFFFFFE000
001FFFFFFFFFF000
003FFFFFFFFFF800
007FFFFFFFFFFC00
00FFFFFFFFFFFE00
01FFFFFFFFFFFF00
03FFFF8003FFFF80
07FFFC00007FFFC0
07FFF000001FFFE0
0FFFC0000007FFE0
1FFF80000003FFF0
1FFF00000001FFF0
3FFE00000000FFF8
3FFC000000007FF8
7FF8000000003FFC
7FF8000000003FFC
7FF0000000001FFC
7FF0000000001FFE
FFF0000000000FFE
FFE0000000000FFE
FFE0000000000FFE
FFE0000000000FFE
FFE00000000007FF
FFC00000000007FF
FFC00000000007FF
FFC00000000007FF
FFC00000000007FF
FFC00000000007FF
FFC00000000007FF
FFE0000000000FFE
FFE0000000000FFE
FFE0000000000FFE
FFE0000000000FFE
7FF0000000001FFE
7FF0000000001FFC
7FF0000000001FFC
7FF8000000003FFC
3FFC000000003FF8
3FFC000000007FF8
1FFE00000000FFF0
1FFF00000001FFF0
0FFF80000003FFE0
07FFE0000007FFE0
07FFF000001FFFC0
03FFFC00007FFF80
01FFFF8003FFFF80
00FFFFFFFFFFFF00
00FFFFFFFFFFFE00
007FFFFFFFFFFC00
001FFFFFFFFFF800
000FFFFFFFFFE000
0007FFFFFFFFC000
0001FFFFFFFF0000
00007FFFFFFE0000
00001FFFFFF00000
000007FFFFC00000
0000003FF8000000
ENDCHAR
STARTCHAR one
ENCODING 49
SWIDTH 385 0
DWIDTH 33 0
BBX 25 62 2 0
BITMAP
FFE00000
FFFE0000
FFFF8000
FFFFC000
FFFFF000
FFFFF800
FFFFF800
FFFFFC00
FFFFFE00
FFFFFE00
FFFFFF00
003FFF00
000FFF00
0007FF80
0007FF80
0003FF80
0003FF80
0003FF80
0001FF80
0001FF80
0001FF80
0001FF80
0001FF80
0001FF80
0001FF80
0001FF80
0001FF80
0001FF80
0001FF80
0001FF80
0001FF80
0001FF80
0001FF80
0001FF80
0001FF80
0001FF80
0001FF80
0001FF80
0001FF80
0001FF80
0001FF80
0001FF80
0001FF80
0001FF80
0001FF80
0001FF80
0001FF80
0001FF80
0001FF80
0001FF80
0001FF80
0001FF80
0001FF80
0001FF80
0001FF80
0001FF80
0001FF80
0001FF80
0001FF80
0001FF80
0001FF80
0001FF80
ENDCHAR
STARTCHAR two
ENCODING 50
SWIDTH 825 0
DWIDTH 70 0
BBX 61 62 5 0
BITMAP
7FFFFFFFFFFE0000
7FFFFFFFFFFFC000
7FFFFFFFFFFFF000
7FFFFFFFFFFFFC00
7FFFFFFFFFFFFE00
7FFFFFFFFFFFFF00
7FFFFFFFFFFFFF80
7FFFFFFFFFFFFFC0
7FFFFFFFFFFFFFE0
7FFFFFFFFFFFFFE0
7FFFFFFFFFFFFFE0
000000000007FFF0
000000000001FFF0
000000000000FFF0
0000000000007FF0
0000000000007FF8
0000000000007FF8
0000000000003FF8
0000000000003FF8
0000000000007FF8
0000000000007FF0
0000000000007FF0
0000000000007FF0
000000000000FFF0
000000000001FFE0
000000000007FFE0
0003FFFFFFFFFFC0
003FFFFFFFFFFFC0
00FFFFFFFFFFFF80
03FFFFFFFFFFFF00
07FFFFFFFFFFFE00
0FFFFFFFFFFFFC00
1FFFFFFFFFFFF000
1FFFFFFFFFFFC000
3FFFFFFFFFFE0000
3FFF000000000000
7FF8000000000000
7FF0000000000000
7FF0000000000000
7FE0000000000000
7FE0000000000000
FFE0000000000000
FFE0000000000000
FFE0000000000000
FFE0000000000000
FFE0000000000000
FFE0000000000000
FFE0000000000000
FFE0000000000000
FFE0000000000000
FFE0000000000000
FFFFFFFFFFFFFFF0
FFFFFFFFFFFFFFF0
FFFFFFFFFFFFFFF0
FFFFFFFFFFFFFFF0
FFFFFFFFFFFFFFF0
FFFFFFFFFFFFFFF0
FFFFFFFFFFFFFFF0
FFFFFFFFFFFFFFF0
FFFFFFFFFFFFFFF0
FFFFFFFFFFFFFFF0
FFFFFFFFFFFFFFF0
ENDCHAR
STARTCHAR three
ENCODING 51
SWIDTH 827 0
DWIDTH 70 0
BBX 62 62 4 0
BITMAP
FFFFFFFFFFFE0000
FFFFFFFFFFFFE000
FFFFFFFFFFFFF800
FFFFFFFFFFFFFE00
FFFFFFFFFFFFFF00
FFFFFFFFFFFFFF80
FFFFFFFFFFFFFFC0
FFFFFFFFFFFFFFE0
FFFFFFFFFFFFFFE0
FFFFFFFFFFFFFFF0
FFFFFFFFFFFFFFF0
000000000007FFF0
000000000001FFF8
000000000000FFF8
0000000000007FF8
0000000000003FF8
0000000000003FF8
0000000000003FF8
0000000000003FF8
0000000000003FF8
0000000000003FF0
0000000000003FF0
0000000000007FF0
0000000000007FE0
000000000000FFE0
000000000007FFC0
0001FFFFFFFFFF80
0001FFFFFFFFFF00
0001FFFFFFFFFC00
0001FFFFFFFFF800
0001FFFFFFFFFE00
0001FFFFFFFFFF80
0001FFFFFFFFFFC0
0001FFFFFFFFFFE0
0001FFFFFFFFFFF0
000000000003FFF0
000000000000FFF8
0000000000007FF8
0000000000003FF8
0000000000001FFC
0000000000001FFC
0000000000001FFC
0000000000001FFC
0000000000001FFC
0000000000001FFC
0000000000001FFC
0000000000003FFC
0000000000003FFC
0000000000007FFC
000000000001FFF8
000000000007FFF8
FFFFFFFFFFFFFFF0
FFFFFFFFFFFFFFF0
FFFFFFFFFFFFFFE0
FFFFFFFFFFFFFFE0
FFFFFFFFFFFFFFC0
FFFFFFFFFFFFFF80
FFFFFFFFFFFFFF00
FFFFFFFFFFFFFE00
FFFFFFFFFFFFF800
FFFFFFFFFFFFE000
FFFFFFFFFFFF0000
ENDCHAR
STARTCHAR four
ENCODING 52
SWIDTH 845 0
DWIDTH 72 0
BBX 66 62 4 0
BITMAP
FFE000000003FF8000
FFE000000003FF8000
FFE000000003FF8000
FFE000000003FF8000
FFE000000003FF8000
FFE000000003FF8000
FFE000000003FF8000
FFE000000003FF8000
FFE000000003FF8000
FFE000000003FF8000
FFE000000003FF8000
FFE000000003FF8000
FFE000000003FF8000
FFE000000003FF8000
FFE000000003FF8000
FFE000000003FF8000
FFE000000003FF8000
FFE000000003FF8000
FFE000000003FF8000
FFE000000003FF8000
FFE000000003FF8000
FFE000000003FF8000
FFE000000003FF8000
FFE000000003FF8000
FFE000000003FF8000
FFE000000003FF8000
FFE000000003FF8000
FFE000000003FF8000
FFE000000003FF8000
FFE000000003FF8000
FFF000000003FF8000
7FF000000003FF8000
7FF800000003FF8000
7FFC00000003FF8000
7FFF00000003FF8000
3FFFFFFFFFFFFFFFC0
3FFFFFFFFFFFFFFFC0
1FFFFFFFFFFFFFFFC0
1FFFFFFFFFFFFFFFC0
0FFFFFFFFFFFFFFFC0
07FFFFFFFFFFFFFFC0
03FFFFFFFFFFFFFFC0
01FFFFFFFFFFFFFFC0
007FFFFFFFFFFFFFC0
001FFFFFFFFFFFFFC0
0001FFFFFFFFFFFFC0
000000000003FF8000
000000000003FF8000
000000000003FF8000
000000000003FF8000
000000000003FF8000
000000000003FF8000
000000000003FF8000
000000000003FF8000
000000000003FF8000
000000000003FF8000
000000000003FF8000
000000000003FF8000
000000000003FF8000
000000000003FF8000
000000000003FF8000
000000000003FF8000
ENDCHAR
STARTCHAR five
ENCODING 53
SWIDTH 885 0
DWIDTH 75 0
BBX 66 62 5 0
BITMAP
FFFFFFFFFFFFFFFE00
FFFFFFFFFFFFFFFE00
FFFFFFFFFFFFFFFE00
FFFFFFFFFFFFFFFE00
FFFFFFFFFFFFFFFE00
FFFFFFFFFFFFFFFE00
FFFFFFFFFFFFFFFE00
FFFFFFFFFFFFFFFE00
FFFFFFFFFFFFFFFE00
FFFFFFFFFFFFFFFE00
FFFFFFFFFFFFFFFE00
FFE000000000000000
FFE000000000000000
FFE000000000000000
FFE000000000000000
FFE000000000000000
FFE000000000000000
FFE000000000000000
FFE000000000000000
FFE000000000000000
FFE000000000000000
FFE000000000000000
FFE000000000000000
FFE000000000000000
FFE000000000000000
FFE000000000000000
FFFFFFFFFFFFF00000
FFFFFFFFFFFFFF0000
FFFFFFFFFFFFFFC000
FFFFFFFFFFFFFFF000
FFFFFFFFFFFFFFF800
FFFFFFFFFFFFFFFC00
FFFFFFFFFFFFFFFE00
FFFFFFFFFFFFFFFE00
FFFFFFFFFFFFFFFF00
0000000000003FFF00
00000000000007FF80
00000000000003FF80
00000000000001FF80
00000000000001FF80
00000000000001FFC0
00000000000001FFC0
00000000000000FFC0
00000000000000FFC0
00000000000001FFC0
00000000000001FFC0
00000000000001FFC0
00000000000003FFC0
00000000000003FF80
00000000000007FF80
0000000000001FFF80
FFFFFFFFFFFFFFFF00
FFFFFFFFFFFFFFFF00
FFFFFFFFFFFFFFFF00
FFFFFFFFFFFFFFFE00
FFFFFFFFFFFFFFFC00
FFFFFFFFFFFFFFF800
FFFFFFFFFFFFFFF000
FFFFFFFFFFFFFFE000
FFFFFFFFFFFFFFC000
FFFFFFFFFFFFFF0000
FFFFFFFFFFFFF00000
ENDCHAR
STARTCHAR six
ENCODING 54
SWIDTH 872 0
DWIDTH 74 0
BBX 66 62 4 0
BITMAP
000007FFFFFFFFFE00
00007FFFFFFFFFFE00
0003FFFFFFFFFFFE00
000FFFFFFFFFFFFE00
003FFFFFFFFFFFFE00
007FFFFFFFFFFFFE00
00FFFFFFFFFFFFFE00
01FFFFFFFFFFFFFE00
03FFFFFFFFFFFFFE00
07FFFFFFFFFFFFFE00
0FFFFFFFFFFFFFFE00
0FFFFC000000000000
1FFFE0000000000000
1FFF80000000000000
3FFF00000000000000
3FFE00000000000000
3FFC00000000000000
7FF800000000000000
7FF800000000000000
7FF000000000000000
FFF000000000000000
FFF000000000000000
FFE000000000000000
FFE000000000000000
FFE000000000000000
FFE000000000000000
FFFFFFFFFFFFF00000
FFFFFFFFFFFFFF0000
FFFFFFFFFFFFFFC000
FFFFFFFFFFFFFFF000
FFFFFFFFFFFFFFF800
FFFFFFFFFFFFFFFC00
FFFFFFFFFFFFFFFE00
FFFFFFFFFFFFFFFE00
FFFFFFFFFFFFFFFF00
FFE0000000003FFF00
FFE0000000000FFF80
FFE00000000007FF80
FFE00000000003FF80
FFE00000000001FF80
FFF00000000001FF80
7FF00000000001FFC0
7FF00000000001FFC0
7FF80000000001FFC0
3FF80000000001FFC0
3FFC0000000001FFC0
3FFE0000000001FF80
1FFF0000000003FF80
1FFF8000000007FF80
0FFFE00000000FFF80
0FFFFC0000003FFF80
07FFFFFFFFFFFFFF00
03FFFFFFFFFFFFFF00
03FFFFFFFFFFFFFE00
01FFFFFFFFFFFFFE00
00FFFFFFFFFFFFFC00
003FFFFFFFFFFFF800
001FFFFFFFFFFFF000
0007FFFFFFFFFFE000
0001FFFFFFFFFFC000
00007FFFFFFFFE0000
000007FFFFFFF00000
ENDCHAR
STARTCHAR seven
ENCODING 55
SWIDTH 756 0
DWIDTH 64 0
BBX 58 62 4 0
BITMAP
FFFFFFFFFFFFFE00
FFFFFFFFFFFFFF80
FFFFFFFFFFFFFFC0
FFFFFFFFFFFFFFC0
FFFFFFFFFFFFFFC0
FFFFFFFFFFFFFFC0
FFFFFFFFFFFFFFC0
FFFFFFFFFFFFFFC0
FFFFFFFFFFFFFFC0
FFFFFFFFFFFFFF80
FFFFFFFFFFFFFF00
00000000003FFE00
00000000007FFE00
0000000000FFFC00
0000000001FFF800
0000000001FFF000
0000000003FFE000
0000000007FFE000
000000000FFFC000
000000001FFF8000
000000003FFF0000
000000003FFE0000
000000007FFC0000
00000000FFFC0000
00000001FFF80000
00000003FFF00000
00000003FFE00000
00000007FFC00000
0000000FFFC00000
0000001FFF800000
0000003FFF000000
0000007FFE000000
0000007FFC000000
000000FFFC000000
000001FFF8000000
000003FFF0000000
000007FFE0000000
00000FFFC0000000
00000FFF80000000
00001FFF80000000
00003FFF00000000
00007FFE00000000
0000FFFC00000000
0000FFF800000000
0001FFF800000000
0003FFF000000000
0007FFE000000000
000FFFC000000000
001FFF8000000000
001FFF0000000000
003FFF0000000000
007FFE0000000000
00FFFC0000000000
01FFF80000000000
03FFF00000000000
03FFF00000000000
07FFE00000000000
0FFFC00000000000
1FFF800000000000
3FFF000000000000
7FFF000000000000
FFFE000000000000
ENDCHAR
STARTCHAR eight
ENCODING 56
SWIDTH 898 0
DWIDTH 76 0
BBX 68 62 4 0
BITMAP
0000FFFFFFFFF80000
000FFFFFFFFFFF8000
007FFFFFFFFFFFE000
00FFFFFFFFFFFFF800
03FFFFFFFFFFFFFC00
07FFFFFFFFFFFFFE00
0FFFFFFFFFFFFFFF00
0FFFFFFFFFFFFFFF80
1FFFFFFFFFFFFFFF80
1FFFFFFFFFFFFFFFC0
3FFFFFFFFFFFFFFFC0
3FFFC00000001FFFC0
3FFE0000000007FFE0
3FFC0000000003FFE0
3FF80000000001FFE0
3FF80000000001FFE0
3FF80000000000FFE0
3FF80000000000FFE0
3FF00000000000FFE0
3FF00000000000FFE0
3FF80000000000FFC0
3FF80000000000FFC0
1FF80000000001FFC0
1FFC0000000001FF80
0FFE0000000007FF80
0FFF800000001FFF00
07FFFFFFFFFFFFFE00
03FFFFFFFFFFFFFC00
00FFFFFFFFFFFFF000
007FFFFFFFFFFFE000
01FFFFFFFFFFFFF800
03FFFFFFFFFFFFFE00
07FFFFFFFFFFFFFF00
0FFFFFFFFFFFFFFF80
1FFFFFFFFFFFFFFF80
3FFF800000000FFFC0
3FFC0000000003FFE0
7FF80000000001FFE0
7FF00000000000FFE0
7FF00000000000FFF0
FFF000000000007FF0
FFE000000000007FF0
FFE000000000007FF0
FFE000000000007FF0
FFE000000000007FF0
FFF000000000007FF0
7FF00000000000FFF0
7FF80000000000FFF0
7FFC0000000001FFE0
7FFE0000000007FFE0
3FFFC00000001FFFE0
3FFFFFFFFFFFFFFFC0
3FFFFFFFFFFFFFFFC0
1FFFFFFFFFFFFFFF80
0FFFFFFFFFFFFFFF80
0FFFFFFFFFFFFFFF00
07FFFFFFFFFFFFFE00
03FFFFFFFFFFFFFC00
00FFFFFFFFFFFFF800
007FFFFFFFFFFFE000
001FFFFFFFFFFF8000
0001FFFFFFFFF80000
ENDCHAR
STARTCHAR nine
ENCODING 57
SWIDTH 861 0
DWIDTH 73 0
BBX 66 62 4 0
BITMAP
0007FFFFFFF0000000
003FFFFFFFFF000000
00FFFFFFFFFFE00000
01FFFFFFFFFFF80000
07FFFFFFFFFFFC0000
0FFFFFFFFFFFFF0000
0FFFFFFFFFFFFF8000
1FFFFFFFFFFFFFC000
3FFFFFFFFFFFFFE000
3FFFFFFFFFFFFFE000
7FFFFFFFFFFFFFF000
7FFE0000001FFFF800
7FFC00000003FFF800
FFF800000000FFFC00
FFF0000000007FFC00
FFE0000000003FFE00
FFE0000000001FFE00
FFE0000000000FFF00
FFE0000000000FFF00
FFE00000000007FF00
FFE00000000007FF00
FFE00000000007FF80
FFE00000000003FF80
FFE00000000003FF80
FFE00000000003FF80
FFF00000000003FF80
FFF00000000003FF80
7FFC0000000001FF80
7FFF0000000001FFC0
7FFFFFFFFFFFFFFFC0
3FFFFFFFFFFFFFFFC0
3FFFFFFFFFFFFFFFC0
1FFFFFFFFFFFFFFFC0
0FFFFFFFFFFFFFFFC0
07FFFFFFFFFFFFFFC0
01FFFFFFFFFFFFFF80
007FFFFFFFFFFFFF80
000FFFFFFFFFFFFF80
00000000000003FF80
00000000000003FF80
00000000000003FF80
00000000000007FF80
00000000000007FF00
00000000000007FF00
0000000000000FFF00
0000000000001FFF00
0000000000001FFE00
0000000000003FFE00
000000000000FFFC00
000000000003FFFC00
00000000001FFFF800
01FFFFFFFFFFFFF800
01FFFFFFFFFFFFF000
01FFFFFFFFFFFFE000
01FFFFFFFFFFFFC000
01FFFFFFFFFFFF8000
01FFFFFFFFFFFF0000
01FFFFFFFFFFFE0000
01FFFFFFFFFFF80000
01FFFFFFFFFFE00000
01FFFFFFFFFF800000
01FFFFFFFFF0000000
ENDCHAR
STARTCHAR colon
ENCODING 58
SWIDTH 262 0
DWIDTH 22 0
BBX 12 40 5 0
BITMAP
0F00
3FC0
7FE0
7FE0
7FF0
FFF0
FFF0
FFF0
7FE0
7FE0
3FC0
0F00
0000
0000
0000
0000
0000
0000
0000
0000
0000
0000
0000
0000
0000
0000
0000
0000
0F00
3FC0
7FE0
7FE0
FFF0
FFF0
FFF0
FFF0
7FE0
7FE0
3FC0
0F80
ENDCHAR
STARTCHAR semicolon
ENCODING 59
SWIDTH 262 0
DWIDTH 22 0
BBX 12 49 5 -10
BITMAP
0F80
3FC0
7FE0
7FE0
7FF0
FFF0
FFF0
7FF0
7FE0
7FE0
3FC0
0F80
0000
0000
0000
0000
0000
0000
0000
0000
0000
0000
0000
0000
0000
0000
0000
7FF0
7FE0
7FE0
7FE0
7FE0
7FE0
7FC0
7FC0
7FC0
7FC0
7FC0
7F80
7F80
7F80
7F80
7F80
7F00
7F00
7F00
7F00
7F00
7F00
ENDCHAR
STARTCHAR less
ENCODING 60
SWIDTH 690 0
DWIDTH 59 0
BBX 48 46 5 9
BITMAP
000000000001
000000000003
00000000000F
00000000007F
0000000001FF
000000000FFF
000000003FFF
00000000FFFF
00000007FFFF
0000001FFFF8
000000FFFFE0
000003FFFF00
00000FFFFC00
00007FFFE000
0001FFFF0000
0007FFFC0000
003FFFE00000
00FFFF800000
07FFFC000000
1FFFF0000000
3FFF80000000
7FFE00000000
FFF000000000
FFC000000000
FFF000000000
7FFE00000000
3FFF80000000
1FFFF0000000
03FFFC000000
00FFFF800000
003FFFE00000
0007FFFC0000
0001FFFF0000
00003FFFE000
00000FFFF800
000003FFFF00
0000007FFFC0
0000001FFFF8
00000007FFFF
00000000FFFF
000000003FFF
000000000FFF
0000000001FF
00000000007F
00000000000F
000000000003
ENDCHAR
STARTCHAR equal
ENCODING 61
SWIDTH 690 0
DWIDTH 59 0
BBX 48 30 5 16
BITMAP
FFFFFFFFFFFF
FFFFFFFFFFFF
FFFFFFFFFFFF
FFFFFFFFFFFF
FFFFFFFFFFFF
FFFFFFFFFFFF
FFFFFFFFFFFF
000000000000
000000000000
000000000000
000000000000
000000000000
000000000000
000000000000
000000000000
000000000000
000000000000
000000000000
000000000000
000000000000
000000000000
000000000000
000000000000
FFFFFFFFFFFF
FFFFFFFFFFFF
FFFFFFFFFFFF
FFFFFFFFFFFF
FFFFFFFFFFFF
FFFFFFFFFFFF
FFFFFFFFFFFF
ENDCHAR
STARTCHAR greater
ENCODING 62
SWIDTH 690 0
DWIDTH 59 0
BBX 48 46 5 9
BITMAP
800000000000
E00000000000
F80000000000
FF0000000000
FFC000000000
FFF000000000
FFFE00000000
FFFF80000000
7FFFE0000000
0FFFFC000000
03FFFF000000
007FFFE00000
001FFFF80000
0003FFFE0000
0000FFFFC000
00001FFFF000
000007FFFC00
000000FFFF80
0000003FFFE0
00000007FFFC
00000000FFFE
000000003FFF
0000000007FF
0000000001FF
000000000FFF
000000003FFF
00000001FFFE
00000007FFF8
0000003FFFE0
000000FFFF80
000007FFFC00
00001FFFF000
0000FFFF8000
0003FFFE0000
001FFFF80000
007FFFC00000
03FFFF000000
0FFFFC000000
7FFFE0000000
FFFF80000000
FFFE00000000
FFF000000000
FFC000000000
FE0000000000
F80000000000
E00000000000
ENDCHAR
STARTCHAR question
ENCODING 63
SWIDTH 776 0
DWIDTH 66 0
BBX 59 62 4 0
BITMAP
FFFFFFFFFFFC0000
FFFFFFFFFFFF8000
FFFFFFFFFFFFE000
FFFFFFFFFFFFF800
FFFFFFFFFFFFFC00
FFFFFFFFFFFFFE00
FFFFFFFFFFFFFF00
FFFFFFFFFFFFFF80
FFFFFFFFFFFFFF80
FFFFFFFFFFFFFFC0
FFFFFFFFFFFFFFC0
00000000000FFFE0
000000000003FFE0
000000000001FFE0
000000000000FFE0
000000000000FFE0
000000000000FFE0
000000000000FFE0
000000000000FFE0
000000000000FFE0
000000000000FFE0
000000000000FFE0
000000000001FFE0
000000000003FFC0
00000000000FFFC0
0001FFFFFFFFFF80
000FFFFFFFFFFF80
003FFFFFFFFFFF00
007FFFFFFFFFFE00
00FFFFFFFFFFFC00
01FFFFFFFFFFF800
01FFFFFFFFFFE000
03FFFFFFFFFF8000
03FFFFFFFFFC0000
03FF800000000000
03FF000000000000
03FF000000000000
03FF000000000000
03FF000000000000
03FF000000000000
03FF000000000000
0000000000000000
0000000000000000
0000000000000000
0000000000000000
0000000000000000
0000000000000000
0000000000000000
0000000000000000
0000000000000000
00F8000000000000
01FE000000000000
03FF000000000000
07FF000000000000
07FF000000000000
07FF800000000000
07FF800000000000
07FF000000000000
07FF000000000000
03FF000000000000
01FE000000000000
00F8000000000000
ENDCHAR
STARTCHAR at
ENCODING 64
SWIDTH 833 0
DWIDTH 71 0
BBX 61 62 4 0
BITMAP
0000007FFFFFFFF8
000007FFFFFFFFF8
00003FFFFFFFFFF8
0000FFFFFFFFFFF8
0003FFFFFFFFFFF8
0007FFFFFFFFFFF8
001FFFFFFFFFFFF8
003FFFFFFFFFFFF8
007FFF80000007F8
00FFFC00000007F8
01FFE000000007F8
03FF8000000007F8
03FF0000000007F8
07FE0000000007F8
0FFC0000000007F8
0FF80000000007F8
1FF00000000007F8
1FE0003FFFFC07F8
3FE001FFFFFC07F8
3FC003FFFFFC07F8
7FC007FFFFFC07F8
7F800FFFFFFC07F8
7F801FFFFFFC07F8
7F801FF001FC07F8
FF003FE001FC07F8
FF003FC001FC07F8
FF003F8001FC07F8
FF007F8001FC07F8
FF007F8001FC07F8
FF007F0001FC07F8
FF007F0001FC07F8
FF007F0001FC07F8
FF007F8001FC07F8
FF007F8001FC07F8
FF003F8001FC07F8
FF003FC001FC07F8
FF003FE001FC07F8
FF003FF801FC07F8
FF801FFFFFFFFFF8
FF801FFFFFFFFFF8
7F800FFFFFFFFFF8
7FC007FFFFFFFFF8
7FC003FFFFFFFFF8
3FE000FFFFFFFFF8
3FE0003FFFFFFFF8
1FF0000000000000
1FF8000000000000
0FFC000000000000
0FFE000000000000
07FF000000000000
03FF800000000000
03FFE00000000000
01FFFC0000000000
00FFFF8000000000
007FFFFFFFFFFFF8
003FFFFFFFFFFFF8
000FFFFFFFFFFFF8
0007FFFFFFFFFFF8
0001FFFFFFFFFFF8
00007FFFFFFFFFF8
00000FFFFFFFFFF8
000000FFFFFFFFF8
ENDCHAR
STARTCHAR A
ENCODING 65
SWIDTH 989 0
DWIDTH 84 0
BBX 82 63 1 0
BITMAP
0000000001E00000000000
0000000007F80000000000
000000000FFC0000000000
000000000FFC0000000000
000000001FFE0000000000
000000001FFE0000000000
000000003FFF0000000000
000000007FFF8000000000
000000007FFF8000000000
00000000FFFFC000000000
00000000FFFFC000000000
00000001FFFFE000000000
00000003FFFFF000000000
00000003FFFFF000000000
00000007FFFFF800000000
00000007FFFFF800000000
0000000FFF7FFC00000000
0000001FFF3FFE00000000
0000001FFE3FFE00000000
0000003FFC1FFF00000000
0000003FFC1FFF00000000
0000007FF80FFF80000000
000000FFF807FFC0000000
000000FFF007FFC0000000
000001FFE003FFE0000000
000001FFE003FFE0000000
000003FFC001FFF0000000
000007FFC001FFF8000000
000007FF8000FFF8000000
00000FFF00007FFC000000
00000FFF00007FFC000000
00001FFE00003FFE000000
00003FFE00003FFF000000
00003FFC00001FFF000000
00007FF800000FFF800000
00007FF800000FFF800000
0000FFF0000007FFC00000
0001FFF0000007FFE00000
0001FFE0000003FFE00000
0003FFC01FFFFFFFF00000
0003FFC01FFFFFFFF00000
0007FF803FFFFFFFF80000
000FFF807FFFFFFFFC0000
000FFF007FFFFFFFFC0000
001FFF00FFFFFFFFFE0000
001FFE00FFFFFFFFFE0000
003FFC01FFFFFFFFFF0000
007FFC03FFFFFFFFFF8000
007FF8000000000FFF8000
00FFF8000000000FFFC000
00FFF00000000007FFC000
01FFE00000000003FFE000
03FFE00000000003FFF000
03FFC00000000001FFF000
07FFC00000000000FFF800
07FF800000000000FFF800
0FFF0000000000007FFC00
1FFF0000000000007FFE00
1FFE0000000000003FFE00
3FFE0000000000001FFF00
3FFC0000000000001FFF00
7FF80000000000000FFF80
FFF80000000000000FFFC0
ENDCHAR
STARTCHAR B
ENCODING 66
SWIDTH 891 0
DWIDTH 76 0
BBX 67 62 5 0
BITMAP
FFFFFFFFFFFFE00000
FFFFFFFFFFFFFE0000
FFFFFFFFFFFFFFC000
FFFFFFFFFFFFFFE000
FFFFFFFFFFFFFFF800
FFFFFFFFFFFFFFFC00
FFFFFFFFFFFFFFFC00
FFFFFFFFFFFFFFFE00
FFFFFFFFFFFFFFFF00
FFFFFFFFFFFFFFFF00
FFFFFFFFFFFFFFFF80
FFE0000000007FFF80
FFE0000000000FFF80
FFE00000000007FF80
FFE00000000003FF80
FFE00000000003FFC0
FFE00000000003FFC0
FFE00000000001FFC0
FFE00000000001FF80
FFE00000000001FF80
FFE00000000003FF80
FFE00000000003FF80
FFE00000000003FF00
FFE00000000007FF00
FFE0000000000FFE00
FFE0000000003FFE00
FFE01FFFFFFFFFFC00
FFE01FFFFFFFFFF800
FFE01FFFFFFFFFE000
FFE01FFFFFFFFFC000
FFE01FFFFFFFFFF000
FFE01FFFFFFFFFF800
FFE01FFFFFFFFFFC00
FFE01FFFFFFFFFFE00
FFE01FFFFFFFFFFF00
FFE0000000003FFF80
FFE0000000000FFF80
FFE00000000003FFC0
FFE00000000003FFC0
FFE00000000001FFC0
FFE00000000001FFC0
FFE00000000000FFE0
FFE00000000000FFE0
FFE00000000000FFE0
FFE00000000000FFE0
FFE00000000001FFE0
FFE00000000001FFC0
FFE00000000003FFC0
FFE00000000007FFC0
FFE0000000000FFFC0
FFE0000000007FFF80
FFFFFFFFFFFFFFFF80
FFFFFFFFFFFFFFFF80
FFFFFFFFFFFFFFFF00
FFFFFFFFFFFFFFFE00
FFFFFFFFFFFFFFFE00
FFFFFFFFFFFFFFFC00
FFFFFFFFFFFFFFF800
FFFFFFFFFFFFFFE000
FFFFFFFFFFFFFFC000
FFFFFFFFFFFFFF0000
FFFFFFFFFFFFF00000
ENDCHAR
STARTCHAR C
ENCODING 67
SWIDTH 829 0
DWIDTH 70 0
BBX 63 62 4 0
BITMAP
000000FFFFFFFFFE
00000FFFFFFFFFFE
00007FFFFFFFFFFE
0001FFFFFFFFFFFE
0007FFFFFFFFFFFE
001FFFFFFFFFFFFE
003FFFFFFFFFFFFE
007FFFFFFFFFFFFE
00FFFFFFFFFFFFFE
01FFFFFFFFFFFFFE
03FFFFFFFFFFFFFE
07FFFF0000000000
07FFFC0000000000
0FFFF00000000000
1FFFC00000000000
1FFF800000000000
3FFF000000000000
3FFE000000000000
3FFC000000000000
7FF8000000000000
7FF8000000000000
7FF0000000000000
FFF0000000000000
FFF0000000000000
FFE0000000000000
FFE0000000000000
FFE0000000000000
FFE0000000000000
FFC0000000000000
FFC0000000000000
FFC0000000000000
FFC0000000000000
FFC0000000000000
FFC0000000000000
FFE0000000000000
FFE0000000000000
FFE0000000000000
FFE0000000000000
FFF0000000000000
7FF0000000000000
7FF0000000000000
7FF8000000000000
3FFC000000000000
3FFC000000000000
3FFE000000000000
1FFF000000000000
1FFF800000000000
0FFFC00000000000
07FFF00000000000
07FFFC0000000000
03FFFF0000000000
01FFFFFFFFFFFFFE
00FFFFFFFFFFFFFE
007FFFFFFFFFFFFE
003FFFFFFFFFFFFE
001FFFFFFFFFFFFE
000FFFFFFFFFFFFE
0003FFFFFFFFFFFE
0001FFFFFFFFFFFE
00007FFFFFFFFFFE
00000FFFFFFFFFFE
000000FFFFFFFFFE
ENDCHAR
STARTCHAR D
ENCODING 68
SWIDTH 879 0
DWIDTH 75 0
BBX 66 62 5 0
BITMAP
FFFFFFFFFFC0000000
FFFFFFFFFFFC000000
FFFFFFFFFFFF800000
FFFFFFFFFFFFE00000
FFFFFFFFFFFFF80000
FFFFFFFFFFFFFC0000
FFFFFFFFFFFFFF0000
FFFFFFFFFFFFFF8000
FFFFFFFFFFFFFFC000
FFFFFFFFFFFFFFE000
FFFFFFFFFFFFFFF000
FFE00000007FFFF000
FFE00000000FFFF800
FFE000000003FFFC00
FFE000000000FFFC00
FFE0000000007FFE00
FFE0000000003FFE00
FFE0000000001FFF00
FFE0000000000FFF00
FFE0000000000FFF00
FFE00000000007FF80
FFE00000000007FF80
FFE00000000003FF80
FFE00000000003FFC0
FFE00000000001FFC0
FFE00000000001FFC0
FFE00000000001FFC0
FFE00000000001FFC0
FFE00000000001FFC0
FFE00000000001FFC0
FFE00000000001FFC0
FFE00000000001FFC0
FFE00000000001FFC0
FFE00000000001FFC0
FFE00000000001FFC0
FFE00000000001FFC0
FFE00000000001FFC0
FFE00000000003FFC0
FFE00000000003FF80
FFE00000000003FF80
FFE00000000007FF80
FFE00000000007FF00
FFE0000000000FFF00
FFE0000000000FFF00
FFE0000000001FFE00
FFE0000000003FFE00
FFE0000000007FFC00
FFE000000000FFFC00
FFE000000003FFF800
FFE00000000FFFF000
FFE00000007FFFF000
FFFFFFFFFFFFFFE000
FFFFFFFFFFFFFFC000
FFFFFFFFFFFFFF8000
FFFFFFFFFFFFFF0000
FFFFFFFFFFFFFE0000
FFFFFFFFFFFFFC0000
FFFFFFFFFFFFF00000
FFFFFFFFFFFFC00000
FFFFFFFFFFFF000000
FFFFFFFFFFFC000000
FFFFFFFFFFC0000000
ENDCHAR
STARTCHAR E
ENCODING 69
SWIDTH 759 0
DWIDTH 65 0
BBX 56 62 5 0
BITMAP
FFFFFFFFFFFFFF
FFFFFFFFFFFFFF
FFFFFFFFFFFFFF
FFFFFFFFFFFFFF
FFFFFFFFFFFFFF
FFFFFFFFFFFFFF
FFFFFFFFFFFFFF
FFFFFFFFFFFFFF
FFFFFFFFFFFFFF
FFFFFFFFFFFFFF
FFFFFFFFFFFFFF
FFE00000000000
FFE00000000000
FFE00000000000
FFE00000000000
FFE00000000000
FFE00000000000
FFE00000000000
FFE00000000000
FFE00000000000
FFE00000000000
FFE00000000000
FFE00000000000
FFE00000000000
FFE00000000000
FFE00000000000
FFE01FFFFFFFF8
FFE01FFFFFFFF8
FFE01FFFFFFFF8
FFE01FFFFFFFF8
FFE01FFFFFFFF8
FFE01FFFFFFFF8
FFE01FFFFFFFF8
FFE01FFFFFFFF8
FFE01FFFFFFFF8
FFE00000000000
FFE00000000000
FFE00000000000
FFE00000000000
FFE00000000000
FFE00000000000
FFE00000000000
FFE00000000000
FFE00000000000
FFE00000000000
FFE00000000000
FFE00000000000
FFE00000000000
FFE00000000000
FFE00000000000
FFE00000000000
FFFFFFFFFFFFFF
FFFFFFFFFFFFFF
FFFFFFFFFFFFFF
FFFFFFFFFFFFFF
FFFFFFFFFFFFFF
FFFFFFFFFFFFFF
FFFFFFFFFFFFFF
FFFFFFFFFFFFFF
FFFFFFFFFFFFFF
FFFFFFFFFFFFFF
FFFFFFFFFFFFFF
ENDCHAR
STARTCHAR F
ENCODING 70
SWIDTH 705 0
DWIDTH 60 0
BBX 53 62 5 0
BITMAP
FFFFFFFFFFFFF8
FFFFFFFFFFFFF8
FFFFFFFFFFFFF8
FFFFFFFFFFFFF8
FFFFFFFFFFFFF8
FFFFFFFFFFFFF8
FFFFFFFFFFFFF8
FFFFFFFFFFFFF8
FFFFFFFFFFFFF8
FFFFFFFFFFFFF8
FFFFFFFFFFFFF8
FFE00000000000
FFE00000000000
FFE00000000000
FFE00000000000
FFE00000000000
FFE00000000000
FFE00000000000
FFE00000000000
FFE00000000000
FFE00000000000
FFE00000000000
FFE00000000000
FFE00000000000
FFE00000000000
FFE00000000000
FFE00000000000
FFE01FFFFFFFC0
FFE01FFFFFFFC0
FFE01FFFFFFFC0
FFE01FFFFFFFC0
FFE01FFFFFFFC0
FFE01FFFFFFFC0
FFE01FFFFFFFC0
FFE01FFFFFFFC0
FFE01FFFFFFFC0
FFE00000000000
FFE00000000000
FFE00000000000
FFE00000000000
FFE00000000000
FFE00000000000
FFE00000000000
FFE00000000000
FFE00000000000
FFE00000000000
FFE00000000000
FFE00000000000
FFE00000000000
FFE00000000000
FFE00000000000
FFE00000000000
FFE00000000000
FFE00000000000
FFE00000000000
FFE00000000000
FFE00000000000
FFE00000000000
FFE00000000000
FFE00000000000
FFE00000000000
FFE00000000000
ENDCHAR
STARTCHAR G
ENCODING 71
SWIDTH 888 0
DWIDTH 75 0
BBX 67 62 4 0
BITMAP
000000FFFFFFFFFE00
00000FFFFFFFFFFE00
00007FFFFFFFFFFE00
0001FFFFFFFFFFFE00
0007FFFFFFFFFFFE00
001FFFFFFFFFFFFE00
003FFFFFFFFFFFFE00
007FFFFFFFFFFFFE00
00FFFFFFFFFFFFFE00
01FFFFFFFFFFFFFE00
03FFFFFFFFFFFFFE00
07FFFF000000000000
07FFFC000000000000
0FFFF0000000000000
1FFFC0000000000000
1FFF80000000000000
3FFF00000000000000
3FFE00000000000000
3FFC00000000000000
7FF800000000000000
7FF800000000000000
7FF000000000000000
FFF000000000000000
FFF000000000000000
FFE000000000000000
FFE000000000000000
FFE0000FFFFFFFFFE0
FFE0000FFFFFFFFFE0
FFC0000FFFFFFFFFE0
FFC0000FFFFFFFFFE0
FFC0000FFFFFFFFFE0
FFC0000FFFFFFFFFE0
FFC0000FFFFFFFFFE0
FFC0000FFFFFFFFFE0
FFE0000FFFFFFFFFE0
FFE00000000000FFE0
FFE00000000000FFE0
FFE00000000000FFE0
FFF00000000000FFE0
7FF00000000000FFE0
7FF00000000000FFE0
7FF80000000000FFE0
3FFC0000000000FFE0
3FFC0000000000FFE0
3FFE0000000000FFE0
1FFF0000000000FFE0
1FFF8000000000FFE0
0FFFC000000000FFE0
07FFF000000000FFE0
07FFFC00000000FFE0
03FFFF00000000FFE0
01FFFFFFFFFFFFFFE0
00FFFFFFFFFFFFFFE0
007FFFFFFFFFFFFFE0
003FFFFFFFFFFFFFE0
001FFFFFFFFFFFFFE0
000FFFFFFFFFFFFFE0
0003FFFFFFFFFFFFE0
0001FFFFFFFFFFFFE0
00007FFFFFFFFFFFE0
00000FFFFFFFFFFFE0
000000FFFFFFFFFFE0
ENDCHAR
STARTCHAR H
ENCODING 72
SWIDTH 838 0
DWIDTH 71 0
BBX 61 62 5 0
BITMAP
FFE0000000003FF8
FFE0000000003FF8
FFE0000000003FF8
FFE0000000003FF8
FFE0000000003FF8
FFE0000000003FF8
FFE0000000003FF8
FFE0000000003FF8
FFE0000000003FF8
FFE0000000003FF8
FFE0000000003FF8
FFE0000000003FF8
FFE0000000003FF8
FFE0000000003FF8
FFE0000000003FF8
FFE0000000003FF8
FFE0000000003FF8
FFE0000000003FF8
FFE0000000003FF8
FFE0000000003FF8
FFE0000000003FF8
FFE0000000003FF8
FFE0000000003FF8
FFE0000000003FF8
FFE0000000003FF8
FFE01FFFFFFFFFF8
FFE01FFFFFFFFFF8
FFE01FFFFFFFFFF8
FFE01FFFFFFFFFF8
FFE01FFFFFFFFFF8
FFE01FFFFFFFFFF8
FFE01FFFFFFFFFF8
FFE01FFFFFFFFFF8
FFE01FFFFFFFFFF8
FFE01FFFFFFFFFF8
FFE0000000003FF8
FFE0000000003FF8
FFE0000000003FF8
FFE0000000003FF8
FFE0000000003FF8
FFE0000000003FF8
FFE0000000003FF8
FFE0000000003FF8
FFE0000000003FF8
FFE0000000003FF8
FFE0000000003FF8
FFE0000000003FF8
FFE0000000003FF8
FFE0000000003FF8
FFE0000000003FF8
FFE0000000003FF8
FFE0000000003FF8
FFE0000000003FF8
FFE0000000003FF8
FFE0000000003FF8
FFE0000000003FF8
FFE0000000003FF8
FFE0000000003FF8
FFE0000000003FF8
FFE0000000003FF8
FFE0000000003FF8
FFE0000000003FF8
ENDCHAR
STARTCHAR I
ENCODING 73
SWIDTH 267 0
DWIDTH 23 0
BBX 11 62 6 0
BITMAP
FFE0
FFE0
FFE0
FFE0
FFE0
FFE0
FFE0
FFE0
FFE0
FFE0
FFE0
FFE0
FFE0
FFE0
FFE0
FFE0
FFE0
FFE0
FFE0
FFE0
FFE0
FFE0
FFE0
FFE0
FFE0
FFE0
FFE0
FFE0
FFE0
FFE0
FFE0
FFE0
FFE0
FFE0
FFE0
FFE0
FFE0
FFE0
FFE0
FFE0
FFE0
FFE0
FFE0
FFE0
FFE0
FFE0
FFE0
FFE0
FFE0
FFE0
FFE0
FFE0
FFE0
FFE0
FFE0
FFE0
FFE0
FFE0
FFE0
FFE0
FFE0
FFE0
ENDCHAR
STARTCHAR J
ENCODING 74
SWIDTH 708 0
DWIDTH 60 0
BBX 54 62 2 0
BITMAP
00000000001FFC
00000000001FFC
00000000001FFC
00000000001FFC
00000000001FFC
00000000001FFC
00000000001FFC
00000000001FFC
00000000001FFC
00000000001FFC
00000000001FFC
00000000001FFC
00000000001FFC
00000000001FFC
00000000001FFC
00000000001FFC
00000000001FFC
00000000001FFC
00000000001FFC
00000000001FFC
00000000001FFC
00000000001FFC
00000000001FFC
00000000001FFC
00000000001FFC
00000000001FFC
00000000001FFC
00000000001FFC
00000000001FFC
00000000001FFC
00000000001FFC
00000000001FFC
00000000001FFC
00000000001FFC
00000000001FFC
00000000001FFC
00000000001FFC
00000000001FFC
00000000001FFC
00000000003FF8
00000000003FF8
00000000003FF8
00000000007FF8
00000000007FF8
0000000000FFF0
0000000000FFF0
0000000001FFF0
0000000003FFE0
000000000FFFE0
000000003FFFC0
00000003FFFFC0
FFFFFFFFFFFF80
FFFFFFFFFFFF80
FFFFFFFFFFFF00
FFFFFFFFFFFE00
FFFFFFFFFFFC00
FFFFFFFFFFF800
FFFFFFFFFFE000
FFFFFFFFFF8000
FFFFFFFFFE0000
FFFFFFFFF00000
FFFFFFFE000000
ENDCHAR
STARTCHAR K
ENCODING 75
SWIDTH 875 0
DWIDTH 74 0
BBX 68 62 5 0
BITMAP
FFE0000000007FFFC0
FFE000000000FFFF80
FFE000000001FFFE00
FFE000000007FFFC00
FFE00000000FFFF800
FFE00000001FFFE000
FFE00000007FFFC000
FFE0000000FFFF8000
FFE0000001FFFE0000
FFE0000003FFFC0000
FFE000000FFFF80000
FFE000001FFFE00000
FFE000003FFFC00000
FFE00000FFFF800000
FFE00001FFFE000000
FFE00003FFFC000000
FFE00007FFF8000000
FFE0001FFFE0000000
FFE0003FFFC0000000
FFE0007FFF80000000
FFE001FFFF00000000
FFE003FFFC00000000
FFE007FFF800000000
FFE01FFFF000000000
FFE03FFFC000000000
FFE07FFF8000000000
FFE0FFFF0000000000
FFE1FFFC0000000000
FFE1FFF80000000000
FFE3FFF00000000000
FFE3FFC00000000000
FFE1FFE00000000000
FFE1FFF00000000000
FFE1FFFC0000000000
FFE0FFFE0000000000
FFE03FFF0000000000
FFE01FFFC000000000
FFE00FFFE000000000
FFE007FFF000000000
FFE001FFFC00000000
FFE000FFFE00000000
FFE0007FFF00000000
FFE0001FFFC0000000
FFE0000FFFE0000000
FFE00007FFF0000000
FFE00003FFFC000000
FFE00000FFFE000000
FFE000007FFF000000
FFE000003FFFC00000
FFE000001FFFE00000
FFE0000007FFF00000
FFE0000003FFFC0000
FFE0000001FFFE0000
FFE0000000FFFF0000
FFE00000003FFFC000
FFE00000001FFFE000
FFE00000000FFFF000
FFE000000003FFFC00
FFE000000001FFFE00
FFE000000000FFFF00
FFE0000000007FFFC0
FFE0000000001FFFF0
ENDCHAR
STARTCHAR L
ENCODING 76
SWIDTH 707 0
DWIDTH 60 0
BBX 53 62 5 0
BITMAP
FFE00000000000
FFE00000000000
FFE00000000000
FFE00000000000
FFE00000000000
FFE00000000000
FFE00000000000
FFE00000000000
FFE00000000000
FFE00000000000
FFE00000000000
FFE00000000000
FFE00000000000
FFE00000000000
FFE00000000000
FFE00000000000
FFE00000000000
FFE00000000000
FFE00000000000
FFE00000000000
FFE00000000000
FFE00000000000
FFE00000000000
FFE00000000000
FFE00000000000
FFE00000000000
FFE00000000000
FFE00000000000
FFE00000000000
FFE00000000000
FFE00000000000
FFE00000000000
FFE00000000000
FFE00000000000
FFE00000000000
FFE00000000000
FFE00000000000
FFE00000000000
FFE00000000000
FFE00000000000
FFE00000000000
FFE00000000000
FFE00000000000
FFE00000000000
FFE00000000000
FFE00000000000
FFE00000000000
FFE00000000000
FFE00000000000
FFE00000000000
FFE00000000000
FFFFFFFFFFFFF8
FFFFFFFFFFFFF8
FFFFFFFFFFFFF8
FFFFFFFFFFFFF8
FFFFFFFFFFFFF8
FFFFFFFFFFFFF8
FFFFFFFFFFFFF8
FFFFFFFFFFFFF8
FFFFFFFFFFFFF8
FFFFFFFFFFFFF8
FFFFFFFFFFFFF8
ENDCHAR
STARTCHAR M
ENCODING 77
SWIDTH 1115 0
DWIDTH 95 0
BBX 91 63 2 -1
BITMAP
00001F00000000000F000000
00007F80000000003FC00000
00007FC0000000007FC00000
0000FFE0000000007FE00000
0000FFE000000000FFE00000
0000FFF000000000FFE00000
0001FFF000000000FFF00000
0001FFF000000001FFF00000
0001FFF800000001FFF00000
0001FFF800000003FFF80000
0003FFFC00000003FFF80000
0003FFFC00000007FFF80000
0003FFFE00000007FFF80000
0007FFFE0000000FFFFC0000
0007FFFF0000000FFFFC0000
0007FFFF0000000FFFFC0000
0007FFFF0000001FFFFE0000
000FFFFF8000001FFFFE0000
000FFFFF8000003FFFFE0000
000FFDFFC000003FF7FE0000
001FFDFFC000007FF7FF0000
001FFCFFE000007FE7FF0000
001FFCFFE00000FFE7FF0000
001FF8FFE00000FFE3FF0000
003FF87FF00000FFC3FF8000
003FF87FF00001FFC3FF8000
003FF03FF80001FF81FF8000
003FF03FF80003FF81FFC000
007FF01FFC0003FF01FFC000
007FF01FFC0007FF01FFC000
007FE01FFE0007FE00FFC000
00FFE00FFE0007FE00FFE000
00FFE00FFE000FFE00FFE000
00FFE007FF000FFC00FFE000
00FFC007FF001FFC007FE000
01FFC003FF801FF8007FF000
01FFC003FF803FF8007FF000
01FF8001FFC03FF0003FF000
01FF8001FFC07FF0003FF800
03FF8001FFC07FF0003FF800
03FF8000FFE07FE0003FF800
03FF0000FFE0FFE0001FF800
07FF00007FF0FFC0001FFC00
07FF00007FF1FFC0001FFC00
07FF00003FF9FF80001FFC00
07FE00003FFBFF80000FFC00
0FFE00003FFFFF00000FFE00
0FFE00001FFFFF00000FFE00
0FFC00001FFFFF000007FE00
1FFC00000FFFFE000007FF00
1FFC00000FFFFE000007FF00
1FFC000007FFFC000007FF00
1FF8000007FFFC000003FF00
3FF8000003FFF8000003FF80
3FF8000003FFF8000003FF80
3FF0000003FFF0000003FF80
3FF0000001FFF0000001FF80
7FF0000001FFF0000001FFC0
7FF0000000FFE0000001FFC0
7FE0000000FFE0000000FFC0
FFE00000007FC0000000FFE0
FFE00000003F80000000FFE0
00000000001F000000000000
ENDCHAR
STARTCHAR N
ENCODING 78
SWIDTH 873 0
DWIDTH 74 0
BBX 64 62 5 0
BITMAP
1F000000000003FF
3F800000000003FF
7FE00000000003FF
7FF00000000003FF
FFF80000000003FF
FFFC0000000003FF
FFFE0000000003FF
FFFF0000000003FF
FFFF8000000003FF
FFFFC000000003FF
FFFFE000000003FF
FFFFF000000003FF
FFFFF800000003FF
FFFFFC00000003FF
FFFFFE00000003FF
FFFFFF00000003FF
FFFFFF80000003FF
FFDFFFC0000003FF
FFCFFFE0000003FF
FFC7FFF0000003FF
FFC3FFF8000003FF
FFC1FFFC000003FF
FFC0FFFE000003FF
FFC07FFF000003FF
FFC03FFF800003FF
FFC01FFFC00003FF
FFC00FFFE00003FF
FFC007FFF00003FF
FFC003FFF80003FF
FFC001FFFC0003FF
FFC000FFFE0003FF
FFC0007FFF0003FF
FFC0003FFF8003FF
FFC0001FFFC003FF
FFC0000FFFE003FF
FFC00007FFF003FF
FFC00003FFF803FF
FFC00001FFFC03FF
FFC00000FFFE03FF
FFC000007FFF03FF
FFC000003FFF83FF
FFC000001FFFC3FF
FFC000000FFFE3FF
FFC0000007FFF3FF
FFC0000003FFFBFF
FFC0000001FFFFFF
FFC0000000FFFFFF
FFC00000007FFFFF
FFC00000003FFFFF
FFC00000001FFFFF
FFC00000000FFFFF
FFC000000007FFFF
FFC000000003FFFF
FFC000000001FFFF
FFC000000000FFFF
FFC0000000007FFF
FFC0000000003FFF
FFC0000000001FFF
FFC00000000007FF
FFC00000000003FE
FFC00000000001FC
FFC00000000000F8
ENDCHAR
STARTCHAR O
ENCODING 79
SWIDTH 968 0
DWIDTH 82 0
BBX 75 62 4 0
BITMAP
000000FFFFFFE0000000
00000FFFFFFFFE000000
00007FFFFFFFFFC00000
0001FFFFFFFFFFF00000
0007FFFFFFFFFFF80000
001FFFFFFFFFFFFE0000
003FFFFFFFFFFFFF0000
007FFFFFFFFFFFFF8000
00FFFFFFFFFFFFFFE000
01FFFFFFFFFFFFFFE000
03FFFFFFFFFFFFFFF000
07FFFF0000003FFFF800
07FFFC00000007FFFC00
0FFFF000000001FFFC00
1FFFC000000000FFFE00
1FFF80000000003FFF00
3FFF00000000001FFF00
3FFE00000000000FFF00
3FFC00000000000FFF80
7FF8000000000007FF80
7FF8000000000003FF80
7FF0000000000003FFC0
FFF0000000000003FFC0
FFF0000000000001FFC0
FFE0000000000001FFC0
FFE0000000000001FFE0
FFE0000000000000FFE0
FFE0000000000000FFE0
FFC0000000000000FFE0
FFC0000000000000FFE0
FFC0000000000000FFE0
FFC0000000000000FFE0
FFC0000000000000FFE0
FFC0000000000000FFE0
FFE0000000000000FFE0
FFE0000000000000FFE0
FFE0000000000001FFC0
FFE0000000000001FFC0
FFF0000000000001FFC0
7FF0000000000003FFC0
7FF0000000000003FF80
7FF8000000000007FF80
3FFC000000000007FF80
3FFC00000000000FFF00
3FFE00000000001FFF00
1FFF00000000001FFF00
1FFF80000000007FFE00
0FFFC000000000FFFC00
07FFF000000001FFFC00
07FFFC00000007FFF800
03FFFF0000003FFFF000
01FFFFFFFFFFFFFFF000
00FFFFFFFFFFFFFFE000
007FFFFFFFFFFFFFC000
003FFFFFFFFFFFFF8000
001FFFFFFFFFFFFE0000
000FFFFFFFFFFFFC0000
0003FFFFFFFFFFF80000
0001FFFFFFFFFFE00000
00007FFFFFFFFF800000
00000FFFFFFFFC000000
000000FFFFFFE0000000
ENDCHAR
STARTCHAR P
ENCODING 80
SWIDTH 867 0
DWIDTH 74 0
BBX 66 62 5 0
BITMAP
FFFFFFFFFFFF800000
FFFFFFFFFFFFF80000
FFFFFFFFFFFFFE0000
FFFFFFFFFFFFFF8000
FFFFFFFFFFFFFFE000
FFFFFFFFFFFFFFF000
FFFFFFFFFFFFFFF800
FFFFFFFFFFFFFFFC00
FFFFFFFFFFFFFFFE00
FFFFFFFFFFFFFFFE00
FFFFFFFFFFFFFFFF00
FFE000000000FFFF00
FFE0000000001FFF80
FFE0000000000FFF80
FFE00000000007FF80
FFE00000000003FFC0
FFE00000000001FFC0
FFE00000000001FFC0
FFE00000000001FFC0
FFE00000000000FFC0
FFE00000000000FFC0
FFE00000000000FFC0
FFE00000000000FFC0
FFE00000000000FFC0
FFE00000000000FFC0
FFE00000000000FFC0
FFE00000000001FFC0
FFE00000000001FFC0
FFE00000000003FFC0
FFE00000000003FFC0
FFE00000000007FF80
FFE0000000000FFF80
FFE0000000001FFF00
FFE000000000FFFF00
FFE01FFFFFFFFFFE00
FFE01FFFFFFFFFFE00
FFE01FFFFFFFFFFC00
FFE01FFFFFFFFFF800
FFE01FFFFFFFFFF800
FFE01FFFFFFFFFF000
FFE01FFFFFFFFFC000
FFE01FFFFFFFFF8000
FFE01FFFFFFFFE0000
FFE01FFFFFFFF80000
FFE01FFFFFFF800000
FFE000000000000000
FFE000000000000000
FFE000000000000000
FFE000000000000000
FFE000000000000000
FFE000000000000000
FFE000000000000000
FFE000000000000000
FFE000000000000000
FFE000000000000000
FFE000000000000000
FFE000000000000000
FFE000000000000000
FFE000000000000000
FFE000000000000000
FFE000000000000000
FFE000000000000000
ENDCHAR
STARTCHAR Q
ENCODING 81
SWIDTH 968 0
DWIDTH 82 0
BBX 78 62 4 0
BITMAP
000000FFFFFFE0000000
00000FFFFFFFFE000000
00007FFFFFFFFFC00000
0001FFFFFFFFFFF00000
0007FFFFFFFFFFF80000
001FFFFFFFFFFFFE0000
003FFFFFFFFFFFFF0000
007FFFFFFFFFFFFF8000
00FFFFFFFFFFFFFFE000
01FFFFFFFFFFFFFFE000
03FFFFFFFFFFFFFFF000
07FFFF0000003FFFF800
07FFFC00000007FFFC00
0FFFF000000001FFFC00
1FFFC000000000FFFE00
1FFF80000000003FFF00
3FFF00000000001FFF00
3FFE00000000000FFF00
3FFC00000000000FFF80
7FF8000000000007FF80
7FF8000000000003FF80
7FF0000000000003FFC0
FFF0000000000003FFC0
FFF0000000000001FFC0
FFE0000000000001FFC0
FFE0000000000001FFE0
FFE0000000000000FFE0
FFE0000000000000FFE0
FFC0000000000000FFE0
FFC0000000000000FFE0
FFC0000000000000FFE0
FFC0000000000000FFE0
FFC0000000000000FFE0
FFC0000000000000FFE0
FFE0000000000000FFE0
FFE0000000000000FFE0
FFE00000FFFE0001FFC0
FFE000007FFF0001FFC0
FFF000001FFF8001FFC0
7FF000000FFFC003FFC0
7FF0000007FFE003FF80
7FF8000001FFF007FF80
3FFC000000FFFC07FF80
3FFC0000007FFE0FFF00
3FFE0000003FFF1FFF00
1FFF0000000FFF9FFE00
1FFF80000007FFFFFE00
0FFFC0000003FFFFFC00
07FFF0000001FFFFFC00
07FFFC0000007FFFF800
03FFFF0000003FFFF000
01FFFFFFFFFFFFFFF000
00FFFFFFFFFFFFFFE000
007FFFFFFFFFFFFFE000
003FFFFFFFFFFFFFF000
001FFFFFFFFFFFFFFC00
000FFFFFFFFFFFFFFE00
0003FFFFFFFFFFFFFF00
0001FFFFFFFFFFFFFF80
00007FFFFFFFFF87FFE0
00000FFFFFFFFC03FFF0
000000FFFFFFC001FFFC
ENDCHAR
STARTCHAR R
ENCODING 82
SWIDTH 921 0
DWIDTH 78 0
BBX 73 62 5 0
BITMAP
FFFFFFFFFFFFC0000000
FFFFFFFFFFFFFC000000
FFFFFFFFFFFFFF000000
FFFFFFFFFFFFFFC00000
FFFFFFFFFFFFFFE00000
FFFFFFFFFFFFFFF80000
FFFFFFFFFFFFFFFC0000
FFFFFFFFFFFFFFFC0000
FFFFFFFFFFFFFFFE0000
FFFFFFFFFFFFFFFF0000
FFFFFFFFFFFFFFFF0000
FFE0000000007FFF8000
FFE0000000000FFF8000
FFE00000000007FFC000
FFE00000000003FFC000
FFE00000000001FFC000
FFE00000000001FFE000
FFE00000000000FFE000
FFE00000000000FFE000
FFE00000000000FFE000
FFE00000000000FFE000
FFE00000000000FFE000
FFE000000000007FE000
FFE000000000007FE000
FFE00000000000FFE000
FFE00000000000FFE000
FFE00000000000FFE000
FFE00000000000FFE000
FFE00000000000FFE000
FFE00000000001FFC000
FFE00000000001FFC000
FFE00000000003FFC000
FFE00000000007FF8000
FFE0000000001FFF8000
FFE0000000007FFF8000
FFE01FFFFFFFFFFF0000
FFE01FFFFFFFFFFE0000
FFE01FFFFFFFFFFE0000
FFE01FFFFFFFFFFC0000
FFE01FFFFFFFFFF80000
FFE01FFFFFFFFFE00000
FFE01FFFFFFFFFC00000
FFE01FFFFFFFFF000000
FFE01FFFFFFFFE000000
FFE01FFFFFFFFF000000
FFE00000001FFF800000
FFE00000001FFFC00000
FFE00000000FFFE00000
FFE000000007FFF00000
FFE000000003FFF80000
FFE000000001FFFC0000
FFE000000000FFFE0000
FFE0000000007FFF0000
FFE0000000003FFF8000
FFE0000000001FFFC000
FFE0000000000FFFE000
FFE00000000007FFF000
FFE00000000003FFF800
FFE00000000003FFFC00
FFE00000000001FFFE00
FFE00000000000FFFF00
FFE000000000007FFF80
ENDCHAR
STARTCHAR S
ENCODING 83
SWIDTH 880 0
DWIDTH 75 0
BBX 67 62 4 0
BITMAP
0003FFFFFFFFFFFF00
001FFFFFFFFFFFFF00
007FFFFFFFFFFFFF00
01FFFFFFFFFFFFFF00
03FFFFFFFFFFFFFF00
07FFFFFFFFFFFFFF00
0FFFFFFFFFFFFFFF00
1FFFFFFFFFFFFFFF00
1FFFFFFFFFFFFFFF00
3FFFFFFFFFFFFFFF00
3FFFFFFFFFFFFFFF00
7FFF00000000000000
7FFC00000000000000
7FF800000000000000
7FF800000000000000
FFF000000000000000
FFF000000000000000
FFF000000000000000
FFF000000000000000
7FF000000000000000
7FF000000000000000
7FF000000000000000
7FF800000000000000
7FF800000000000000
3FFC00000000000000
3FFF00000000000000
1FFFFFFFFFFFF80000
1FFFFFFFFFFFFF8000
0FFFFFFFFFFFFFE000
07FFFFFFFFFFFFF800
03FFFFFFFFFFFFFC00
01FFFFFFFFFFFFFE00
007FFFFFFFFFFFFF00
001FFFFFFFFFFFFF00
0003FFFFFFFFFFFF80
0000000000001FFF80
00000000000003FFC0
00000000000001FFC0
00000000000000FFC0
00000000000000FFE0
00000000000000FFE0
000000000000007FE0
000000000000007FE0
000000000000007FE0
000000000000007FE0
00000000000000FFE0
00000000000000FFE0
00000000000000FFE0
00000000000001FFC0
00000000000003FFC0
0000000000000FFFC0
7FFFFFFFFFFFFFFFC0
7FFFFFFFFFFFFFFF80
7FFFFFFFFFFFFFFF80
7FFFFFFFFFFFFFFF00
7FFFFFFFFFFFFFFE00
7FFFFFFFFFFFFFFC00
7FFFFFFFFFFFFFF800
7FFFFFFFFFFFFFF000
7FFFFFFFFFFFFFE000
7FFFFFFFFFFFFF0000
7FFFFFFFFFFFF80000
ENDCHAR
STARTCHAR T
ENCODING 84
SWIDTH 720 0
DWIDTH 61 0
BBX 57 62 2 0
BITMAP
FFFFFFFFFFFFFF80
FFFFFFFFFFFFFF80
FFFFFFFFFFFFFF80
FFFFFFFFFFFFFF80
FFFFFFFFFFFFFF80
FFFFFFFFFFFFFF80
FFFFFFFFFFFFFF80
FFFFFFFFFFFFFF80
FFFFFFFFFFFFFF80
FFFFFFFFFFFFFF80
FFFFFFFFFFFFFF80
000001FFC0000000
000001FFC0000000
000001FFC0000000
000001FFC0000000
000001FFC0000000
000001FFC0000000
000001FFC0000000
000001FFC0000000
000001FFC0000000
000001FFC0000000
000001FFC0000000
000001FFC0000000
000001FFC0000000
000001FFC0000000
000001FFC0000000
000001FFC0000000
000001FFC0000000
000001FFC0000000
000001FFC0000000
000001FFC0000000
000001FFC0000000
000001FFC0000000
000001FFC0000000
000001FFC0000000
000001FFC0000000
000001FFC0000000
000001FFC0000000
000001FFC0000000
000001FFC0000000
000001FFC0000000
000001FFC0000000
000001FFC0000000
000001FFC0000000
000001FFC0000000
000001FFC0000000
000001FFC0000000
000001FFC0000000
000001FFC0000000
000001FFC0000000
000001FFC0000000
000001FFC0000000
000001FFC0000000
000001FFC0000000
000001FFC0000000
000001FFC0000000
000001FFC0000000
000001FFC0000000
000001FFC0000000
000001FFC0000000
000001FFC0000000
000001FFC0000000
ENDCHAR
STARTCHAR U
ENCODING 85
SWIDTH 889 0
DWIDTH 76 0
BBX 67 63 4 -1
BITMAP
FFF000000000007FE0
FFF000000000007FE0
FFF000000000007FE0
FFF000000000007FE0
FFF000000000007FE0
FFF000000000007FE0
FFF000000000007FE0
FFF000000000007FE0
FFF000000000007FE0
FFF000000000007FE0
FFF000000000007FE0
FFF000000000007FE0
FFF000000000007FE0
FFF000000000007FE0
FFF000000000007FE0
FFF000000000007FE0
FFF000000000007FE0
FFF000000000007FE0
FFF000000000007FE0
FFF000000000007FE0
FFF000000000007FE0
FFF000000000007FE0
FFF000000000007FE0
FFF000000000007FE0
FFF000000000007FE0
FFF000000000007FE0
FFF000000000007FE0
FFF000000000007FE0
FFF000000000007FE0
FFF000000000007FE0
FFF000000000007FE0
FFF000000000007FE0
FFF000000000007FE0
FFF000000000007FE0
FFF000000000007FE0
FFF000000000007FE0
FFF000000000007FE0
FFF00000000000FFE0
7FF00000000000FFE0
7FF00000000000FFE0
7FF00000000000FFE0
7FF00000000000FFE0
7FF80000000001FFE0
7FF80000000001FFC0
7FFC0000000001FFC0
3FFC0000000003FFC0
3FFE0000000007FFC0
3FFF000000000FFF80
1FFF800000001FFF80
1FFFE00000003FFF00
0FFFF8000001FFFF00
0FFFFF80001FFFFE00
07FFFFFFFFFFFFFE00
03FFFFFFFFFFFFFC00
01FFFFFFFFFFFFF800
00FFFFFFFFFFFFF000
007FFFFFFFFFFFE000
003FFFFFFFFFFFC000
000FFFFFFFFFFF0000
0007FFFFFFFFFC0000
0000FFFFFFFFF00000
00001FFFFFFF000000
0000007FFFE0000000
ENDCHAR
STARTCHAR V
ENCODING 86
SWIDTH 989 0
DWIDTH 84 0
BBX 82 63 1 -1
BITMAP
FFFC00000000000007FFC0
7FFC0000000000000FFF80
3FFE0000000000000FFF00
3FFE0000000000001FFF00
1FFF0000000000001FFE00
1FFF8000000000003FFE00
0FFF8000000000003FFC00
07FFC000000000007FF800
07FFC00000000000FFF800
03FFE00000000000FFF000
03FFF00000000001FFF000
01FFF00000000001FFE000
00FFF80000000003FFC000
00FFF80000000007FFC000
007FFC0000000007FF8000
007FFC000000000FFF8000
003FFE000000000FFF0000
001FFF000000001FFE0000
001FFF000000001FFE0000
000FFF800000003FFC0000
000FFF800000007FFC0000
0007FFC00000007FF80000
0003FFE0000000FFF00000
0003FFE0000000FFF00000
0001FFF0000001FFE00000
0001FFF0000003FFE00000
0000FFF8000003FFC00000
00007FF8000007FF800000
00007FFC000007FF800000
00003FFE00000FFF000000
00003FFE00000FFF000000
00001FFF00001FFE000000
00000FFF00003FFC000000
00000FFF80003FFC000000
000007FFC0007FF8000000
000007FFC0007FF8000000
000003FFE000FFF0000000
000001FFE001FFE0000000
000001FFF001FFE0000000
000000FFF803FFC0000000
000000FFF803FFC0000000
0000007FFC07FF80000000
0000003FFC07FF00000000
0000003FFE0FFF00000000
0000001FFE1FFE00000000
0000001FFF1FFE00000000
0000000FFFBFFC00000000
00000007FFBFF800000000
00000007FFFFF800000000
00000003FFFFF000000000
00000003FFFFF000000000
00000001FFFFE000000000
00000000FFFFC000000000
00000000FFFFC000000000
000000007FFF8000000000
000000007FFF8000000000
000000003FFF0000000000
000000001FFE0000000000
000000001FFE0000000000
000000000FFC0000000000
000000000FFC0000000000
0000000007F80000000000
0000000001E00000000000
ENDCHAR
STARTCHAR W
ENCODING 87
SWIDTH 1268 0
DWIDTH 108 0
BBX 106 63 1 -1
BITMAP
FFF80001FFF8000000000007FFC0
7FFC0000FFF8000000000007FF80
3FFC00007FFC00000000000FFF00
3FFE00007FFC00000000000FFF00
1FFE00003FFE00000000001FFE00
1FFF00003FFE00000000001FFE00
0FFF80001FFF00000000003FFC00
0FFF80001FFF00000000007FF800
07FFC0000FFF80000000007FF800
07FFC0000FFF8000000000FFF000
03FFE00007FFC000000000FFF000
03FFE00007FFC000000001FFE000
01FFF00003FFE000000001FFE000
01FFF00003FFE000000003FFC000
00FFF80001FFF000000003FFC000
00FFF80001FFF000000007FF8000
007FFC0000FFF800000007FF8000
003FFC0000FFF80000000FFF0000
003FFE00007FFC0000000FFF0000
001FFE00003FFC0000001FFE0000
001FFF00003FFE0000001FFE0000
000FFF00001FFE0000003FFC0000
000FFF80001FFF0000003FF80000
0007FF80000FFF0000007FF80000
0007FFC0000FFF8000007FF00000
0003FFC00007FF800000FFF00000
0003FFE00007FFC00001FFE00000
0001FFE00003FFC00001FFE00000
0001FFF00003FFE00003FFC00000
0000FFF80001FFE00003FFC00000
00007FF80001FFF00007FF800000
00007FFC0001FFF00007FF800000
00003FFC0001FFF8000FFF000000
00003FFE0003FFF8000FFF000000
00001FFE0007FFFC001FFE000000
00001FFF0007FFFC001FFC000000
00000FFF000FFFFE003FFC000000
00000FFF800FFFFE003FF8000000
000007FF801FFFFF007FF8000000
000007FFC01FFFFF007FF0000000
000003FFC03FFFFF80FFF0000000
000003FFE03FFFFF80FFE0000000
000001FFE07FF7FFC1FFE0000000
000000FFF0FFF3FFC1FFC0000000
000000FFF0FFE3FFE3FFC0000000
0000007FF9FFE1FFE7FF80000000
0000007FF9FFC0FFF7FF80000000
0000003FFFFFC0FFFFFF00000000
0000003FFFFF807FFFFF00000000
0000001FFFFF807FFFFE00000000
0000001FFFFF003FFFFC00000000
0000000FFFFF003FFFFC00000000
0000000FFFFE001FFFF800000000
00000007FFFE001FFFF800000000
00000007FFFC000FFFF000000000
00000003FFF8000FFFF000000000
00000003FFF80007FFE000000000
00000001FFF00007FFE000000000
00000000FFF00003FFC000000000
00000000FFE00003FFC000000000
000000007FE00001FF8000000000
000000003FC00000FF0000000000
000000001F0000007C0000000000
ENDCHAR
STARTCHAR X
ENCODING 88
SWIDTH 1000 0
DWIDTH 85 0
BBX 81 62 2 0
BITMAP
3FFFC00000000001FFFC00
0FFFE00000000003FFF000
07FFF00000000007FFE000
03FFF8000000000FFFC000
01FFFC000000001FFF8000
00FFFE000000003FFF0000
007FFF000000007FFE0000
003FFF80000000FFFC0000
001FFFC0000001FFF80000
000FFFE0000003FFF00000
0007FFF0000003FFE00000
0003FFF8000007FFC00000
0001FFFC00000FFF800000
0000FFFE00001FFF000000
00007FFF00003FFE000000
00003FFF80007FFC000000
00001FFFC000FFF8000000
00000FFFE001FFF0000000
000007FFF003FFE0000000
000003FFF807FFC0000000
000001FFFC0FFF80000000
000000FFFE1FFF00000000
0000007FFF3FFE00000000
0000003FFFFFFC00000000
0000001FFFFFF800000000
0000000FFFFFF000000000
00000007FFFFE000000000
00000003FFFFC000000000
00000001FFFF8000000000
00000000FFFF0000000000
000000007FFE0000000000
00000000FFFF0000000000
00000001FFFF8000000000
00000003FFFFE000000000
00000007FFFFF000000000
0000000FFFFFF800000000
0000003FFFFFFC00000000
0000007FFEFFFE00000000
000000FFFC7FFF00000000
000001FFF83FFF80000000
000003FFF01FFFC0000000
000007FFE00FFFE0000000
00000FFFC007FFF0000000
00001FFF8003FFF8000000
00003FFF0001FFFC000000
00007FFE0000FFFE000000
0000FFFC00007FFF000000
0001FFF800003FFF800000
0003FFF000001FFFC00000
0007FFE000000FFFE00000
000FFFC0000003FFF00000
001FFF80000001FFFC0000
003FFF00000000FFFE0000
007FFE000000007FFF0000
00FFFC000000003FFF8000
01FFF8000000001FFFC000
03FFF0000000000FFFE000
07FFE00000000007FFF000
0FFFC00000000003FFF800
3FFF000000000001FFFC00
7FFE000000000000FFFE00
FFFC0000000000007FFF80
ENDCHAR
STARTCHAR Y
ENCODING 89
SWIDTH 926 0
DWIDTH 79 0
BBX 77 62 1 0
BITMAP
FFFE000000000003FFF8
7FFF000000000003FFE0
3FFF800000000007FFE0
1FFFC0000000000FFFC0
0FFFC0000000001FFF80
07FFE0000000003FFF00
03FFF0000000007FFE00
03FFF8000000007FFC00
01FFFC00000000FFF800
00FFFC00000001FFF800
007FFE00000003FFF000
003FFF00000007FFE000
001FFF8000000FFFC000
000FFFC000000FFF8000
000FFFE000001FFF0000
0007FFE000003FFE0000
0003FFF000007FFE0000
0001FFF80000FFFC0000
0000FFFC0001FFF80000
00007FFE0001FFF00000
00007FFF0003FFE00000
00003FFF0007FFC00000
00001FFF800FFFC00000
00000FFFC01FFF800000
000007FFE03FFF000000
000003FFF03FFE000000
000003FFF87FFC000000
000001FFF8FFF8000000
000000FFFDFFF0000000
0000007FFFFFF0000000
0000003FFFFFE0000000
0000001FFFFFC0000000
0000000FFFFF80000000
0000000FFFFF00000000
00000007FFFE00000000
00000003FFFE00000000
00000001FFFC00000000
00000000FFF800000000
000000007FF000000000
000000007FF000000000
000000007FF000000000
000000007FF000000000
000000007FF000000000
000000007FF000000000
000000007FF000000000
000000007FF000000000
000000007FF000000000
000000007FF000000000
000000007FF000000000
000000007FF000000000
000000007FF000000000
000000007FF000000000
000000007FF000000000
000000007FF000000000
000000007FF000000000
000000007FF000000000
000000007FF000000000
000000007FF000000000
000000007FF000000000
000000007FF000000000
000000007FF000000000
000000007FF000000000
ENDCHAR
STARTCHAR Z
ENCODING 90
SWIDTH 802 0
DWIDTH 68 0
BBX 61 62 3 0
BITMAP
7FFFFFFFFFFFFFC0
7FFFFFFFFFFFFFF0
7FFFFFFFFFFFFFF8
7FFFFFFFFFFFFFF8
7FFFFFFFFFFFFFF8
7FFFFFFFFFFFFFF8
7FFFFFFFFFFFFFF8
7FFFFFFFFFFFFFF8
7FFFFFFFFFFFFFF0
7FFFFFFFFFFFFFF0
7FFFFFFFFFFFFFE0
00000000001FFFC0
00000000003FFF80
00000000007FFF00
0000000000FFFE00
0000000001FFFC00
0000000003FFF800
0000000007FFF000
000000000FFFE000
000000001FFFC000
000000003FFF8000
000000007FFF0000
00000000FFFE0000
00000001FFFC0000
00000003FFF80000
00000007FFF00000
0000000FFFE00000
0000001FFFC00000
0000003FFF800000
0000007FFF000000
000000FFFE000000
000001FFFC000000
000003FFF8000000
000007FFF0000000
00000FFFE0000000
00001FFFC0000000
00003FFF80000000
00007FFF00000000
0000FFFE00000000
0001FFFC00000000
0003FFF800000000
0007FFF000000000
000FFFE000000000
001FFFC000000000
003FFF8000000000
007FFF0000000000
00FFFE0000000000
01FFFC0000000000
03FFF80000000000
07FFF00000000000
0FFFE00000000000
1FFFFFFFFFFFFFF8
3FFFFFFFFFFFFFF8
7FFFFFFFFFFFFFF8
7FFFFFFFFFFFFFF8
FFFFFFFFFFFFFFF8
FFFFFFFFFFFFFFF8
FFFFFFFFFFFFFFF8
7FFFFFFFFFFFFFF8
7FFFFFFFFFFFFFF8
3FFFFFFFFFFFFFF8
0FFFFFFFFFFFFFF8
ENDCHAR
STARTCHAR bracketleft
ENCODING 91
SWIDTH 333 0
DWIDTH 28 0
BBX 15 78 8 -8
BITMAP
FFFE
FFFE
FFFE
FFFE
FFFE
FFFE
FFFE
FE00
FE00
FE00
FE00
FE00
FE00
FE00
FE00
FE00
FE00
FE00
FE00
FE00
FE00
FE00
FE00
FE00
FE00
FE00
FE00
FE00
FE00
FE00
FE00
FE00
FE00
FE00
FE00
FE00
FE00
FE00
FE00
FE00
FE00
FE00
FE00
FE00
FE00
FE00
FE00
FE00
FE00
FE00
FE00
FE00
FE00
FE00
FE00
FE00
FE00
FE00
FE00
FE00
FE00
FE00
FE00
FE00
FE00
FE00
FE00
FE00
FE00
FE00
FE00
FFFE
FFFE
FFFE
FFFE
FFFE
FFFE
FFFE
ENDCHAR
STARTCHAR backslash
ENCODING 92
SWIDTH 445 0
DWIDTH 38 0
BBX 36 62 1 0
BITMAP
FE00000000
7F00000000
7F00000000
7F80000000
3F80000000
3FC0000000
1FC0000000
1FC0000000
0FE0000000
0FE0000000
07F0000000
07F0000000
03F8000000
03F8000000
01FC000000
01FC000000
01FE000000
00FE000000
00FF000000
007F000000
007F800000
003F800000
003FC00000
001FC00000
001FC00000
000FE00000
000FE00000
0007F00000
0007F00000
0007F80000
0003F80000
0003FC0000
0001FC0000
0001FE0000
0000FE0000
0000FF0000
00007F0000
00007F8000
00003F8000
00003F8000
00001FC000
00001FC000
00001FE000
00000FE000
00000FF000
000007F000
000007F800
000003F800
000003FC00
000001FC00
000001FE00
000000FE00
000000FF00
0000007F00
0000007F00
0000007F80
0000003F80
0000003FC0
0000001FC0
0000001FE0
0000000FE0
0000000FF0
ENDCHAR
STARTCHAR bracketright
ENCODING 93
SWIDTH 333 0
DWIDTH 28 0
BBX 15 78 5 -8
BITMAP
FFFE
FFFE
FFFE
FFFE
FFFE
FFFE
FFFE
00FE
00FE
00FE
00FE
00FE
00FE
00FE
00FE
00FE
00FE
00FE
00FE
00FE
00FE
00FE
00FE
00FE
00FE
00FE
00FE
00FE
00FE
00FE
00FE
00FE
00FE
00FE
00FE
00FE
00FE
00FE
00FE
00FE
00FE
00FE
00FE
00FE
00FE
00FE
00FE
00FE
00FE
00FE
00FE
00FE
00FE
00FE
00FE
00FE
00FE
00FE
00FE
00FE
00FE
00FE
00FE
00FE
00FE
00FE
00FE
00FE
00FE
00FE
00FE
FFFE
FFFE
FFFE
FFFE
FFFE
FFFE
FFFE
ENDCHAR
STARTCHAR asciicircum
ENCODING 94
SWIDTH 559 0
DWIDTH 48 0
BBX 37 37 5 25
BITMAP
0000780000
0000FC0000
0001FE0000
0001FE0000
0003FF0000
0003FF0000
0007FF0000
0007FF8000
000FFF8000
000FFFC000
000FDFC000
001FCFC000
001FCFE000
003F8FE000
003F87F000
003F07F000
007F03F800
007F03F800
00FE03F800
00FE01FC00
01FC01FC00
01FC00FE00
01F800FE00
03F800FE00
03F8007F00
07F0007F00
07F0003F80
0FE0003F80
0FE0003FC0
0FE0001FC0
1FC0001FC0
1FC0000FE0
3F80000FE0
3F80000FF0
7F800007F0
7F000007F8
FF000003F8
ENDCHAR
STARTCHAR underscore
ENCODING 95
SWIDTH 668 0
DWIDTH 57 0
BBX 57 5 0 -14
BITMAP
FFFFFFFFFFFFFF80
FFFFFFFFFFFFFF80
FFFFFFFFFFFFFF80
FFFFFFFFFFFFFF80
FFFFFFFFFFFFFF80
ENDCHAR
STARTCHAR grave
ENCODING 96
SWIDTH 362 0
DWIDTH 31 0
BBX 22 11 4 66
BITMAP
E00000
FC0000
FFC000
FFF800
FFFF00
FFFFF0
7FFFFC
07FFFC
003FFC
0001FC
00001C
ENDCHAR
STARTCHAR a
ENCODING 97
SWIDTH 989 0
DWIDTH 84 0
BBX 82 63 1 0
BITMAP
0000000001E00000000000
0000000007F80000000000
000000000FFC0000000000
000000000FFC0000000000
000000001FFE0000000000
000000001FFE0000000000
000000003FFF0000000000
000000007FFF8000000000
000000007FFF8000000000
00000000FFFFC000000000
00000000FFFFC000000000
00000001FFFFE000000000
00000003FFFFF000000000
00000003FFFFF000000000
00000007FFFFF800000000
00000007FFFFF800000000
0000000FFF7FFC00000000
0000001FFF3FFE00000000
0000001FFE3FFE00000000
0000003FFC1FFF00000000
0000003FFC1FFF00000000
0000007FF80FFF80000000
000000FFF807FFC0000000
000000FFF007FFC0000000
000001FFE003FFE0000000
000001FFE003FFE0000000
000003FFC001FFF0000000
000007FFC001FFF8000000
000007FF8000FFF8000000
00000FFF00007FFC000000
00000FFF00007FFC000000
00001FFE00003FFE000000
00003FFE00003FFF000000
00003FFC00001FFF000000
00007FF800000FFF800000
00007FF800000FFF800000
0000FFF0000007FFC00000
0001FFF0000007FFE00000
0001FFE0000003FFE00000
0003FFC01FFFFFFFF00000
0003FFC01FFFFFFFF00000
0007FF803FFFFFFFF80000
000FFF807FFFFFFFFC0000
000FFF007FFFFFFFFC0000
001FFF00FFFFFFFFFE0000
001FFE00FFFFFFFFFE0000
003FFC01FFFFFFFFFF0000
007FFC03FFFFFFFFFF8000
007FF8000000000FFF8000
00FFF8000000000FFFC000
00FFF00000000007FFC000
01FFE00000000003FFE000
03FFE00000000003FFF000
03FFC00000000001FFF000
07FFC00000000000FFF800
07FF800000000000FFF800
0FFF0000000000007FFC00
1FFF0000000000007FFE00
1FFE0000000000003FFE00
3FFE0000000000001FFF00
3FFC0000000000001FFF00
7FF80000000000000FFF80
FFF80000000000000FFFC0
ENDCHAR
STARTCHAR b
ENCODING 98
SWIDTH 891 0
DWIDTH 76 0
BBX 67 62 5 0
BITMAP
FFFFFFFFFFFFE00000
FFFFFFFFFFFFFE0000
FFFFFFFFFFFFFFC000
FFFFFFFFFFFFFFE000
FFFFFFFFFFFFFFF800
FFFFFFFFFFFFFFFC00
FFFFFFFFFFFFFFFC00
FFFFFFFFFFFFFFFE00
FFFFFFFFFFFFFFFF00
FFFFFFFFFFFFFFFF00
FFFFFFFFFFFFFFFF80
FFE0000000007FFF80
FFE0000000000FFF80
FFE00000000007FF80
FFE00000000003FF80
FFE00000000003FFC0
FFE00000000003FFC0
FFE00000000001FFC0
FFE00000000001FF80
FFE00000000001FF80
FFE00000000003FF80
FFE00000000003FF80
FFE00000000003FF00
FFE00000000007FF00
FFE0000000000FFE00
FFE0000000003FFE00
FFE01FFFFFFFFFFC00
FFE01FFFFFFFFFF800
FFE01FFFFFFFFFE000
FFE01FFFFFFFFFC000
FFE01FFFFFFFFFF000
FFE01FFFFFFFFFF800
FFE01FFFFFFFFFFC00
FFE01FFFFFFFFFFE00
FFE01FFFFFFFFFFF00
FFE0000000003FFF80
FFE0000000000FFF80
FFE00000000003FFC0
FFE00000000003FFC0
FFE00000000001FFC0
FFE00000000001FFC0
FFE00000000000FFE0
FFE00000000000FFE0
FFE00000000000FFE0
FFE00000000000FFE0
FFE00000000001FFE0
FFE00000000001FFC0
FFE00000000003FFC0
FFE00000000007FFC0
FFE0000000000FFFC0
FFE0000000007FFF80
FFFFFFFFFFFFFFFF80
FFFFFFFFFFFFFFFF80
FFFFFFFFFFFFFFFF00
FFFFFFFFFFFFFFFE00
FFFFFFFFFFFFFFFE00
FFFFFFFFFFFFFFFC00
FFFFFFFFFFFFFFF800
FFFFFFFFFFFFFFE000
FFFFFFFFFFFFFFC000
FFFFFFFFFFFFFF0000
FFFFFFFFFFFFF00000
ENDCHAR
STARTCHAR c
ENCODING 99
SWIDTH 829 0
DWIDTH 70 0
BBX 63 62 4 0
BITMAP
000000FFFFFFFFFE
00000FFFFFFFFFFE
00007FFFFFFFFFFE
0001FFFFFFFFFFFE
0007FFFFFFFFFFFE
001FFFFFFFFFFFFE
003FFFFFFFFFFFFE
007FFFFFFFFFFFFE
00FFFFFFFFFFFFFE
01FFFFFFFFFFFFFE
03FFFFFFFFFFFFFE
07FFFF0000000000
07FFFC0000000000
0FFFF00000000000
1FFFC00000000000
1FFF800000000000
3FFF000000000000
3FFE000000000000
3FFC000000000000
7FF8000000000000
7FF8000000000000
7FF0000000000000
FFF0000000000000
FFF0000000000000
FFE0000000000000
FFE0000000000000
FFE0000000000000
FFE0000000000000
FFC0000000000000
FFC0000000000000
FFC0000000000000
FFC0000000000000
FFC0000000000000
FFC0000000000000
FFE0000000000000
FFE0000000000000
FFE0000000000000
FFE0000000000000
FFF0000000000000
7FF0000000000000
7FF0000000000000
7FF8000000000000
3FFC000000000000
3FFC000000000000
3FFE000000000000
1FFF000000000000
1FFF800000000000
0FFFC00000000000
07FFF00000000000
07FFFC0000000000
03FFFF0000000000
01FFFFFFFFFFFFFE
00FFFFFFFFFFFFFE
007FFFFFFFFFFFFE
003FFFFFFFFFFFFE
001FFFFFFFFFFFFE
000FFFFFFFFFFFFE
0003FFFFFFFFFFFE
0001FFFFFFFFFFFE
00007FFFFFFFFFFE
00000FFFFFFFFFFE
000000FFFFFFFFFE
ENDCHAR
STARTCHAR d
ENCODING 100
SWIDTH 879 0
DWIDTH 75 0
BBX 66 62 5 0
BITMAP
FFFFFFFFFFC0000000
FFFFFFFFFFFC000000
FFFFFFFFFFFF800000
FFFFFFFFFFFFE00000
FFFFFFFFFFFFF80000
FFFFFFFFFFFFFC0000
FFFFFFFFFFFFFF0000
FFFFFFFFFFFFFF8000
FFFFFFFFFFFFFFC000
FFFFFFFFFFFFFFE000
FFFFFFFFFFFFFFF000
FFE00000007FFFF000
FFE00000000FFFF800
FFE000000003FFFC00
FFE000000000FFFC00
FFE0000000007FFE00
FFE0000000003FFE00
FFE0000000001FFF00
FFE0000000000FFF00
FFE0000000000FFF00
FFE00000000007FF80
FFE00000000007FF80
FFE00000000003FF80
FFE00000000003FFC0
FFE00000000001FFC0
FFE00000000001FFC0
FFE00000000001FFC0
FFE00000000001FFC0
FFE00000000001FFC0
FFE00000000001FFC0
FFE00000000001FFC0
FFE00000000001FFC0
FFE00000000001FFC0
FFE00000000001FFC0
FFE00000000001FFC0
FFE00000000001FFC0
FFE00000000001FFC0
FFE00000000003FFC0
FFE00000000003FF80
FFE00000000003FF80
FFE00000000007FF80
FFE00000000007FF00
FFE0000000000FFF00
FFE0000000000FFF00
FFE0000000001FFE00
FFE0000000003FFE00
FFE0000000007FFC00
FFE000000000FFFC00
FFE000000003FFF800
FFE00000000FFFF000
FFE00000007FFFF000
FFFFFFFFFFFFFFE000
FFFFFFFFFFFFFFC000
FFFFFFFFFFFFFF8000
FFFFFFFFFFFFFF0000
FFFFFFFFFFFFFE0000
FFFFFFFFFFFFFC0000
FFFFFFFFFFFFF00000
FFFFFFFFFFFFC00000
FFFFFFFFFFFF000000
FFFFFFFFFFFC000000
FFFFFFFFFFC0000000
ENDCHAR
STARTCHAR e
ENCODING 101
SWIDTH 759 0
DWIDTH 65 0
BBX 56 62 5 0
BITMAP
FFFFFFFFFFFFFF
FFFFFFFFFFFFFF
FFFFFFFFFFFFFF
FFFFFFFFFFFFFF
FFFFFFFFFFFFFF
FFFFFFFFFFFFFF
FFFFFFFFFFFFFF
FFFFFFFFFFFFFF
FFFFFFFFFFFFFF
FFFFFFFFFFFFFF
FFFFFFFFFFFFFF
FFE00000000000
FFE00000000000
FFE00000000000
FFE00000000000
FFE00000000000
FFE00000000000
FFE00000000000
FFE00000000000
FFE00000000000
FFE00000000000
FFE00000000000
FFE00000000000
FFE00000000000
FFE00000000000
FFE00000000000
FFE01FFFFFFFF8
FFE01FFFFFFFF8
FFE01FFFFFFFF8
FFE01FFFFFFFF8
FFE01FFFFFFFF8
FFE01FFFFFFFF8
FFE01FFFFFFFF8
FFE01FFFFFFFF8
FFE01FFFFFFFF8
FFE00000000000
FFE00000000000
FFE00000000000
FFE00000000000
FFE00000000000
FFE00000000000
FFE00000000000
FFE00000000000
FFE00000000000
FFE00000000000
FFE00000000000
FFE00000000000
FFE00000000000
FFE00000000000
FFE00000000000
FFE00000000000
FFFFFFFFFFFFFF
FFFFFFFFFFFFFF
FFFFFFFFFFFFFF
FFFFFFFFFFFFFF
FFFFFFFFFFFFFF
FFFFFFFFFFFFFF
FFFFFFFFFFFFFF
FFFFFFFFFFFFFF
FFFFFFFFFFFFFF
FFFFFFFFFFFFFF
FFFFFFFFFFFFFF
ENDCHAR
STARTCHAR f
ENCODING 102
SWIDTH 705 0
DWIDTH 60 0
BBX 53 62 5 0
BITMAP
FFFFFFFFFFFFF8
FFFFFFFFFFFFF8
FFFFFFFFFFFFF8
FFFFFFFFFFFFF8
FFFFFFFFFFFFF8
FFFFFFFFFFFFF8
FFFFFFFFFFFFF8
FFFFFFFFFFFFF8
FFFFFFFFFFFFF8
FFFFFFFFFFFFF8
FFFFFFFFFFFFF8
FFE00000000000
FFE00000000000
FFE00000000000
FFE00000000000
FFE00000000000
FFE00000000000
FFE00000000000
FFE00000000000
FFE00000000000
FFE00000000000
FFE00000000000
FFE00000000000
FFE00000000000
FFE00000000000
FFE00000000000
FFE00000000000
FFE01FFFFFFFC0
FFE01FFFFFFFC0
FFE01FFFFFFFC0
FFE01FFFFFFFC0
FFE01FFFFFFFC0
FFE01FFFFFFFC0
FFE01FFFFFFFC0
FFE01FFFFFFFC0
FFE01FFFFFFFC0
FFE00000000000
FFE00000000000
FFE00000000000
FFE00000000000
FFE00000000000
FFE00000000000
FFE00000000000
FFE00000000000
FFE00000000000
FFE00000000000
FFE00000000000
FFE00000000000
FFE00000000000
FFE00000000000
FFE00000000000
FFE00000000000
FFE00000000000
FFE00000000000
FFE00000000000
FFE00000000000
FFE00000000000
FFE00000000000
FFE00000000000
FFE00000000000
FFE00000000000
FFE00000000000
ENDCHAR
STARTCHAR g
ENCODING 103
SWIDTH 888 0
DWIDTH 75 0
BBX 67 62 4 0
BITMAP
000000FFFFFFFFFE00
00000FFFFFFFFFFE00
00007FFFFFFFFFFE00
0001FFFFFFFFFFFE00
0007FFFFFFFFFFFE00
001FFFFFFFFFFFFE00
003FFFFFFFFFFFFE00
007FFFFFFFFFFFFE00
00FFFFFFFFFFFFFE00
01FFFFFFFFFFFFFE00
03FFFFFFFFFFFFFE00
07FFFF000000000000
07FFFC000000000000
0FFFF0000000000000
1FFFC0000000000000
1FFF80000000000000
3FFF00000000000000
3FFE00000000000000
3FFC00000000000000
7FF800000000000000
7FF800000000000000
7FF000000000000000
FFF000000000000000
FFF000000000000000
FFE000000000000000
FFE000000000000000
FFE0000FFFFFFFFFE0
FFE0000FFFFFFFFFE0
FFC0000FFFFFFFFFE0
FFC0000FFFFFFFFFE0
FFC0000FFFFFFFFFE0
FFC0000FFFFFFFFFE0
FFC0000FFFFFFFFFE0
FFC0000FFFFFFFFFE0
FFE0000FFFFFFFFFE0
FFE00000000000FFE0
FFE00000000000FFE0
FFE00000000000FFE0
FFF00000000000FFE0
7FF00000000000FFE0
7FF00000000000FFE0
7FF80000000000FFE0
3FFC0000000000FFE0
3FFC0000000000FFE0
3FFE0000000000FFE0
1FFF0000000000FFE0
1FFF8000000000FFE0
0FFFC000000000FFE0
07FFF000000000FFE0
07FFFC00000000FFE0
03FFFF00000000FFE0
01FFFFFFFFFFFFFFE0
00FFFFFFFFFFFFFFE0
007FFFFFFFFFFFFFE0
003FFFFFFFFFFFFFE0
001FFFFFFFFFFFFFE0
000FFFFFFFFFFFFFE0
0003FFFFFFFFFFFFE0
0001FFFFFFFFFFFFE0
00007FFFFFFFFFFFE0
00000FFFFFFFFFFFE0
000000FFFFFFFFFFE0
ENDCHAR
STARTCHAR h
ENCODING 104
SWIDTH 838 0
DWIDTH 71 0
BBX 61 62 5 0
BITMAP
FFE0000000003FF8
FFE0000000003FF8
FFE0000000003FF8
FFE0000000003FF8
FFE0000000003FF8
FFE0000000003FF8
FFE0000000003FF8
FFE0000000003FF8
FFE0000000003FF8
FFE0000000003FF8
FFE0000000003FF8
FFE0000000003FF8
FFE0000000003FF8
FFE0000000003FF8
FFE0000000003FF8
FFE0000000003FF8
FFE0000000003FF8
FFE0000000003FF8
FFE0000000003FF8
FFE0000000003FF8
FFE0000000003FF8
FFE0000000003FF8
FFE0000000003FF8
FFE0000000003FF8
FFE0000000003FF8
FFE01FFFFFFFFFF8
FFE01FFFFFFFFFF8
FFE01FFFFFFFFFF8
FFE01FFFFFFFFFF8
FFE01FFFFFFFFFF8
FFE01FFFFFFFFFF8
FFE01FFFFFFFFFF8
FFE01FFFFFFFFFF8
FFE01FFFFFFFFFF8
FFE01FFFFFFFFFF8
FFE0000000003FF8
FFE0000000003FF8
FFE0000000003FF8
FFE0000000003FF8
FFE0000000003FF8
FFE0000000003FF8
FFE0000000003FF8
FFE0000000003FF8
FFE0000000003FF8
FFE0000000003FF8
FFE0000000003FF8
FFE0000000003FF8
FFE0000000003FF8
FFE0000000003FF8
FFE0000000003FF8
FFE0000000003FF8
FFE0000000003FF8
FFE0000000003FF8
FFE0000000003FF8
FFE0000000003FF8
FFE0000000003FF8
FFE0000000003FF8
FFE0000000003FF8
FFE0000000003FF8
FFE0000000003FF8
FFE0000000003FF8
FFE0000000003FF8
ENDCHAR
STARTCHAR i
ENCODING 105
SWIDTH 267 0
DWIDTH 23 0
BBX 11 62 6 0
BITMAP
FFE0
FFE0
FFE0
FFE0
FFE0
FFE0
FFE0
FFE0
FFE0
FFE0
FFE0
FFE0
FFE0
FFE0
FFE0
FFE0
FFE0
FFE0
FFE0
FFE0
FFE0
FFE0
FFE0
FFE0
FFE0
FFE0
FFE0
FFE0
FFE0
FFE0
FFE0
FFE0
FFE0
FFE0
FFE0
FFE0
FFE0
FFE0
FFE0
FFE0
FFE0
FFE0
FFE0
FFE0
FFE0
FFE0
FFE0
FFE0
FFE0
FFE0
FFE0
FFE0
FFE0
FFE0
FFE0
FFE0
FFE0
FFE0
FFE0
FFE0
FFE0
FFE0
ENDCHAR
STARTCHAR j
ENCODING 106
SWIDTH 708 0
DWIDTH 60 0
BBX 54 62 2 0
BITMAP
00000000001FFC
00000000001FFC
00000000001FFC
00000000001FFC
00000000001FFC
00000000001FFC
00000000001FFC
00000000001FFC
00000000001FFC
00000000001FFC
00000000001FFC
00000000001FFC
00000000001FFC
00000000001FFC
00000000001FFC
00000000001FFC
00000000001FFC
00000000001FFC
00000000001FFC
00000000001FFC
00000000001FFC
00000000001FFC
00000000001FFC
00000000001FFC
00000000001FFC
00000000001FFC
00000000001FFC
00000000001FFC
00000000001FFC
00000000001FFC
00000000001FFC
00000000001FFC
00000000001FFC
00000000001FFC
00000000001FFC
00000000001FFC
00000000001FFC
00000000001FFC
00000000001FFC
00000000003FF8
00000000003FF8
00000000003FF8
00000000007FF8
00000000007FF8
0000000000FFF0
0000000000FFF0
0000000001FFF0
0000000003FFE0
000000000FFFE0
000000003FFFC0
00000003FFFFC0
FFFFFFFFFFFF80
FFFFFFFFFFFF80
FFFFFFFFFFFF00
FFFFFFFFFFFE00
FFFFFFFFFFFC00
FFFFFFFFFFF800
FFFFFFFFFFE000
FFFFFFFFFF8000
FFFFFFFFFE0000
FFFFFFFFF00000
FFFFFFFE000000
ENDCHAR
STARTCHAR k
ENCODING 107
SWIDTH 875 0
DWIDTH 74 0
BBX 68 62 5 0
BITMAP
FFE0000000007FFFC0
FFE000000000FFFF80
FFE000000001FFFE00
FFE000000007FFFC00
FFE00000000FFFF800
FFE00000001FFFE000
FFE00000007FFFC000
FFE0000000FFFF8000
FFE0000001FFFE0000
FFE0000003FFFC0000
FFE000000FFFF80000
FFE000001FFFE00000
FFE000003FFFC00000
FFE00000FFFF800000
FFE00001FFFE000000
FFE00003FFFC000000
FFE00007FFF8000000
FFE0001FFFE0000000
FFE0003FFFC0000000
FFE0007FFF80000000
FFE001FFFF00000000
FFE003FFFC00000000
FFE007FFF800000000
FFE01FFFF000000000
FFE03FFFC000000000
FFE07FFF8000000000
FFE0FFFF0000000000
FFE1FFFC0000000000
FFE1FFF80000000000
FFE3FFF00000000000
FFE3FFC00000000000
FFE1FFE00000000000
FFE1FFF00000000000
FFE1FFFC0000000000
FFE0FFFE0000000000
FFE03FFF0000000000
FFE01FFFC000000000
FFE00FFFE000000000
FFE007FFF000000000
FFE001FFFC00000000
FFE000FFFE00000000
FFE0007FFF00000000
FFE0001FFFC0000000
FFE0000FFFE0000000
FFE00007FFF0000000
FFE00003FFFC000000
FFE00000FFFE000000
FFE000007FFF000000
FFE000003FFFC00000
FFE000001FFFE00000
FFE0000007FFF00000
FFE0000003FFFC0000
FFE0000001FFFE0000
FFE0000000FFFF0000
FFE00000003FFFC000
FFE00000001FFFE000
FFE00000000FFFF000
FFE000000003FFFC00
FFE000000001FFFE00
FFE000000000FFFF00
FFE0000000007FFFC0
FFE0000000001FFFF0
ENDCHAR
STARTCHAR l
ENCODING 108
SWIDTH 707 0
DWIDTH 60 0
BBX 53 62 5 0
BITMAP
FFE00000000000
FFE00000000000
FFE00000000000
FFE00000000000
FFE00000000000
FFE00000000000
FFE00000000000
FFE00000000000
FFE00000000000
FFE00000000000
FFE00000000000
FFE00000000000
FFE00000000000
FFE00000000000
FFE00000000000
FFE00000000000
FFE00000000000
FFE00000000000
FFE00000000000
FFE00000000000
FFE00000000000
FFE00000000000
FFE00000000000
FFE00000000000
FFE00000000000
FFE00000000000
FFE00000000000
FFE00000000000
FFE00000000000
FFE00000000000
FFE00000000000
FFE00000000000
FFE00000000000
FFE00000000000
FFE00000000000
FFE00000000000
FFE00000000000
FFE00000000000
FFE00000000000
FFE00000000000
FFE00000000000
FFE00000000000
FFE00000000000
FFE00000000000
FFE00000000000
FFE00000000000
FFE00000000000
FFE00000000000
FFE00000000000
FFE00000000000
FFE00000000000
FFFFFFFFFFFFF8
FFFFFFFFFFFFF8
FFFFFFFFFFFFF8
FFFFFFFFFFFFF8
FFFFFFFFFFFFF8
FFFFFFFFFFFFF8
FFFFFFFFFFFFF8
FFFFFFFFFFFFF8
FFFFFFFFFFFFF8
FFFFFFFFFFFFF8
FFFFFFFFFFFFF8
ENDCHAR
STARTCHAR m
ENCODING 109
SWIDTH 1115 0
DWIDTH 95 0
BBX 91 63 2 -1
BITMAP
00001F00000000000F000000
00007F80000000003FC00000
00007FC0000000007FC00000
0000FFE0000000007FE00000
0000FFE000000000FFE00000
0000FFF000000000FFE00000
0001FFF000000000FFF00000
0001FFF000000001FFF00000
0001FFF800000001FFF00000
0001FFF800000003FFF80000
0003FFFC00000003FFF80000
0003FFFC00000007FFF80000
0003FFFE00000007FFF80000
0007FFFE0000000FFFFC0000
0007FFFF0000000FFFFC0000
0007FFFF0000000FFFFC0000
0007FFFF0000001FFFFE0000
000FFFFF8000001FFFFE0000
000FFFFF8000003FFFFE0000
000FFDFFC000003FF7FE0000
001FFDFFC000007FF7FF0000
001FFCFFE000007FE7FF0000
001FFCFFE00000FFE7FF0000
001FF8FFE00000FFE3FF0000
003FF87FF00000FFC3FF8000
003FF87FF00001FFC3FF8000
003FF03FF80001FF81FF8000
003FF03FF80003FF81FFC000
007FF01FFC0003FF01FFC000
007FF01FFC0007FF01FFC000
007FE01FFE0007FE00FFC000
00FFE00FFE0007FE00FFE000
00FFE00FFE000FFE00FFE000
00FFE007FF000FFC00FFE000
00FFC007FF001FFC007FE000
01FFC003FF801FF8007FF000
01FFC003FF803FF8007FF000
01FF8001FFC03FF0003FF000
01FF8001FFC07FF0003FF800
03FF8001FFC07FF0003FF800
03FF8000FFE07FE0003FF800
03FF0000FFE0FFE0001FF800
07FF00007FF0FFC0001FFC00
07FF00007FF1FFC0001FFC00
07FF00003FF9FF80001FFC00
07FE00003FFBFF80000FFC00
0FFE00003FFFFF00000FFE00
0FFE00001FFFFF00000FFE00
0FFC00001FFFFF000007FE00
1FFC00000FFFFE000007FF00
1FFC00000FFFFE000007FF00
1FFC000007FFFC000007FF00
1FF8000007FFFC000003FF00
3FF8000003FFF8000003FF80
3FF8000003FFF8000003FF80
3FF0000003FFF0000003FF80
3FF0000001FFF0000001FF80
7FF0000001FFF0000001FFC0
7FF0000000FFE0000001FFC0
7FE0000000FFE0000000FFC0
FFE00000007FC0000000FFE0
FFE00000003F80000000FFE0
00000000001F000000000000
ENDCHAR
STARTCHAR n
ENCODING 110
SWIDTH 873 0
DWIDTH 74 0
BBX 64 62 5 0
BITMAP
1F000000000003FF
3F800000000003FF
7FE00000000003FF
7FF00000000003FF
FFF80000000003FF
FFFC0000000003FF
FFFE0000000003FF
FFFF0000000003FF
FFFF8000000003FF
FFFFC000000003FF
FFFFE000000003FF
FFFFF000000003FF
FFFFF800000003FF
FFFFFC00000003FF
FFFFFE00000003FF
FFFFFF00000003FF
FFFFFF80000003FF
FFDFFFC0000003FF
FFCFFFE0000003FF
FFC7FFF0000003FF
FFC3FFF8000003FF
FFC1FFFC000003FF
FFC0FFFE000003FF
FFC07FFF000003FF
FFC03FFF800003FF
FFC01FFFC00003FF
FFC00FFFE00003FF
FFC007FFF00003FF
FFC003FFF80003FF
FFC001FFFC0003FF
FFC000FFFE0003FF
FFC0007FFF0003FF
FFC0003FFF8003FF
FFC0001FFFC003FF
FFC0000FFFE003FF
FFC00007FFF003FF
FFC00003FFF803FF
FFC00001FFFC03FF
FFC00000FFFE03FF
FFC000007FFF03FF
FFC000003FFF83FF
FFC000001FFFC3FF
FFC000000FFFE3FF
FFC0000007FFF3FF
FFC0000003FFFBFF
FFC0000001FFFFFF
FFC0000000FFFFFF
FFC00000007FFFFF
FFC00000003FFFFF
FFC00000001FFFFF
FFC00000000FFFFF
FFC000000007FFFF
FFC000000003FFFF
FFC000000001FFFF
FFC000000000FFFF
FFC0000000007FFF
FFC0000000003FFF
FFC0000000001FFF
FFC00000000007FF
FFC00000000003FE
FFC00000000001FC
FFC00000000000F8
ENDCHAR
STARTCHAR o
ENCODING 111
SWIDTH 968 0
DWIDTH 82 0
BBX 75 62 4 0
BITMAP
000000FFFFFFE0000000
00000FFFFFFFFE000000
00007FFFFFFFFFC00000
0001FFFFFFFFFFF00000
0007FFFFFFFFFFF80000
001FFFFFFFFFFFFE0000
003FFFFFFFFFFFFF0000
007FFFFFFFFFFFFF8000
00FFFFFFFFFFFFFFE000
01FFFFFFFFFFFFFFE000
03FFFFFFFFFFFFFFF000
07FFFF0000003FFFF800
07FFFC00000007FFFC00
0FFFF000000001FFFC00
1FFFC000000000FFFE00
1FFF80000000003FFF00
3FFF00000000001FFF00
3FFE00000000000FFF00
3FFC00000000000FFF80
7FF8000000000007FF80
7FF8000000000003FF80
7FF0000000000003FFC0
FFF0000000000003FFC0
FFF0000000000001FFC0
FFE0000000000001FFC0
FFE0000000000001FFE0
FFE0000000000000FFE0
FFE0000000000000FFE0
FFC0000000000000FFE0
FFC0000000000000FFE0
FFC0000000000000FFE0
FFC0000000000000FFE0
FFC0000000000000FFE0
FFC0000000000000FFE0
FFE0000000000000FFE0
FFE0000000000000FFE0
FFE0000000000001FFC0
FFE0000000000001FFC0
FFF0000000000001FFC0
7FF0000000000003FFC0
7FF0000000000003FF80
7FF8000000000007FF80
3FFC000000000007FF80
3FFC00000000000FFF00
3FFE00000000001FFF00
1FFF00000000001FFF00
1FFF80000000007FFE00
0FFFC000000000FFFC00
07FFF000000001FFFC00
07FFFC00000007FFF800
03FFFF0000003FFFF000
01FFFFFFFFFFFFFFF000
00FFFFFFFFFFFFFFE000
007FFFFFFFFFFFFFC000
003FFFFFFFFFFFFF8000
001FFFFFFFFFFFFE0000
000FFFFFFFFFFFFC0000
0003FFFFFFFFFFF80000
0001FFFFFFFFFFE00000
00007FFFFFFFFF800000
00000FFFFFFFFC000000
000000FFFFFFE0000000
ENDCHAR
STARTCHAR p
ENCODING 112
SWIDTH 867 0
DWIDTH 74 0
BBX 66 62 5 0
BITMAP
FFFFFFFFFFFF800000
FFFFFFFFFFFFF80000
FFFFFFFFFFFFFE0000
FFFFFFFFFFFFFF8000
FFFFFFFFFFFFFFE000
FFFFFFFFFFFFFFF000
FFFFFFFFFFFFFFF800
FFFFFFFFFFFFFFFC00
FFFFFFFFFFFFFFFE00
FFFFFFFFFFFFFFFE00
FFFFFFFFFFFFFFFF00
FFE000000000FFFF00
FFE0000000001FFF80
FFE0000000000FFF80
FFE00000000007FF80
FFE00000000003FFC0
FFE00000000001FFC0
FFE00000000001FFC0
FFE00000000001FFC0
FFE00000000000FFC0
FFE00000000000FFC0
FFE00000000000FFC0
FFE00000000000FFC0
FFE00000000000FFC0
FFE00000000000FFC0
FFE00000000000FFC0
FFE00000000001FFC0
FFE00000000001FFC0
FFE00000000003FFC0
FFE00000000003FFC0
FFE00000000007FF80
FFE0000000000FFF80
FFE0000000001FFF00
FFE000000000FFFF00
FFE01FFFFFFFFFFE00
FFE01FFFFFFFFFFE00
FFE01FFFFFFFFFFC00
FFE01FFFFFFFFFF800
FFE01FFFFFFFFFF800
FFE01FFFFFFFFFF000
FFE01FFFFFFFFFC000
FFE01FFFFFFFFF8000
FFE01FFFFFFFFE0000
FFE01FFFFFFFF80000
FFE01FFFFFFF800000
FFE000000000000000
FFE000000000000000
FFE000000000000000
FFE000000000000000
FFE000000000000000
FFE000000000000000
FFE000000000000000
FFE000000000000000
FFE000000000000000
FFE000000000000000
FFE000000000000000
FFE000000000000000
FFE000000000000000
FFE000000000000000
FFE000000000000000
FFE000000000000000
FFE000000000000000
ENDCHAR
STARTCHAR q
ENCODING 113
SWIDTH 968 0
DWIDTH 82 0
BBX 78 62 4 0
BITMAP
000000FFFFFFE0000000
00000FFFFFFFFE000000
00007FFFFFFFFFC00000
0001FFFFFFFFFFF00000
0007FFFFFFFFFFF80000
001FFFFFFFFFFFFE0000
003FFFFFFFFFFFFF0000
007FFFFFFFFFFFFF8000
00FFFFFFFFFFFFFFE000
01FFFFFFFFFFFFFFE000
03FFFFFFFFFFFFFFF000
07FFFF0000003FFFF800
07FFFC00000007FFFC00
0FFFF000000001FFFC00
1FFFC000000000FFFE00
1FFF80000000003FFF00
3FFF00000000001FFF00
3FFE00000000000FFF00
3FFC00000000000FFF80
7FF8000000000007FF80
7FF8000000000003FF80
7FF0000000000003FFC0
FFF0000000000003FFC0
FFF0000000000001FFC0
FFE0000000000001FFC0
FFE0000000000001FFE0
FFE0000000000000FFE0
FFE0000000000000FFE0
FFC0000000000000FFE0
FFC0000000000000FFE0
FFC0000000000000FFE0
FFC0000000000000FFE0
FFC0000000000000FFE0
FFC0000000000000FFE0
FFE0000000000000FFE0
FFE0000000000000FFE0
FFE00000FFFE0001FFC0
FFE000007FFF0001FFC0
FFF000001FFF8001FFC0
7FF000000FFFC003FFC0
7FF0000007FFE003FF80
7FF8000001FFF007FF80
3FFC000000FFFC07FF80
3FFC0000007FFE0FFF00
3FFE0000003FFF1FFF00
1FFF0000000FFF9FFE00
1FFF80000007FFFFFE00
0FFFC0000003FFFFFC00
07FFF0000001FFFFFC00
07FFFC0000007FFFF800
03FFFF0000003FFFF000
01FFFFFFFFFFFFFFF000
00FFFFFFFFFFFFFFE000
007FFFFFFFFFFFFFE000
003FFFFFFFFFFFFFF000
001FFFFFFFFFFFFFFC00
000FFFFFFFFFFFFFFE00
0003FFFFFFFFFFFFFF00
0001FFFFFFFFFFFFFF80
00007FFFFFFFFF87FFE0
00000FFFFFFFFC03FFF0
000000FFFFFFC001FFFC
ENDCHAR
STARTCHAR r
ENCODING 114
SWIDTH 921 0
DWIDTH 78 0
BBX 73 62 5 0
BITMAP
FFFFFFFFFFFFC0000000
FFFFFFFFFFFFFC000000
FFFFFFFFFFFFFF000000
FFFFFFFFFFFFFFC00000
FFFFFFFFFFFFFFE00000
FFFFFFFFFFFFFFF80000
FFFFFFFFFFFFFFFC0000
FFFFFFFFFFFFFFFC0000
FFFFFFFFFFFFFFFE0000
FFFFFFFFFFFFFFFF0000
FFFFFFFFFFFFFFFF0000
FFE0000000007FFF8000
FFE0000000000FFF8000
FFE00000000007FFC000
FFE00000000003FFC000
FFE00000000001FFC000
FFE00000000001FFE000
FFE00000000000FFE000
FFE00000000000FFE000
FFE00000000000FFE000
FFE00000000000FFE000
FFE00000000000FFE000
FFE000000000007FE000
FFE000000000007FE000
FFE00000000000FFE000
FFE00000000000FFE000
FFE00000000000FFE000
FFE00000000000FFE000
FFE00000000000FFE000
FFE00000000001FFC000
FFE00000000001FFC000
FFE00000000003FFC000
FFE00000000007FF8000
FFE0000000001FFF8000
FFE0000000007FFF8000
FFE01FFFFFFFFFFF0000
FFE01FFFFFFFFFFE0000
FFE01FFFFFFFFFFE0000
FFE01FFFFFFFFFFC0000
FFE01FFFFFFFFFF80000
FFE01FFFFFFFFFE00000
FFE01FFFFFFFFFC00000
FFE01FFFFFFFFF000000
FFE01FFFFFFFFE000000
FFE01FFFFFFFFF000000
FFE00000001FFF800000
FFE00000001FFFC00000
FFE00000000FFFE00000
FFE000000007FFF00000
FFE000000003FFF80000
FFE000000001FFFC0000
FFE000000000FFFE0000
FFE0000000007FFF0000
FFE0000000003FFF8000
FFE0000000001FFFC000
FFE0000000000FFFE000
FFE00000000007FFF000
FFE00000000003FFF800
FFE00000000003FFFC00
FFE00000000001FFFE00
FFE00000000000FFFF00
FFE000000000007FFF80
ENDCHAR
STARTCHAR s
ENCODING 115
SWIDTH 880 0
DWIDTH 75 0
BBX 67 62 4 0
BITMAP
0003FFFFFFFFFFFF00
001FFFFFFFFFFFFF00
007FFFFFFFFFFFFF00
01FFFFFFFFFFFFFF00
03FFFFFFFFFFFFFF00
07FFFFFFFFFFFFFF00
0FFFFFFFFFFFFFFF00
1FFFFFFFFFFFFFFF00
1FFFFFFFFFFFFFFF00
3FFFFFFFFFFFFFFF00
3FFFFFFFFFFFFFFF00
7FFF00000000000000
7FFC00000000000000
7FF800000000000000
7FF800000000000000
FFF000000000000000
FFF000000000000000
FFF000000000000000
FFF000000000000000
7FF000000000000000
7FF000000000000000
7FF000000000000000
7FF800000000000000
7FF800000000000000
3FFC00000000000000
3FFF00000000000000
1FFFFFFFFFFFF80000
1FFFFFFFFFFFFF8000
0FFFFFFFFFFFFFE000
07FFFFFFFFFFFFF800
03FFFFFFFFFFFFFC00
01FFFFFFFFFFFFFE00
007FFFFFFFFFFFFF00
001FFFFFFFFFFFFF00
0003FFFFFFFFFFFF80
0000000000001FFF80
00000000000003FFC0
00000000000001FFC0
00000000000000FFC0
00000000000000FFE0
00000000000000FFE0
000000000000007FE0
000000000000007FE0
000000000000007FE0
000000000000007FE0
00000000000000FFE0
00000000000000FFE0
00000000000000FFE0
00000000000001FFC0
00000000000003FFC0
0000000000000FFFC0
7FFFFFFFFFFFFFFFC0
7FFFFFFFFFFFFFFF80
7FFFFFFFFFFFFFFF80
7FFFFFFFFFFFFFFF00
7FFFFFFFFFFFFFFE00
7FFFFFFFFFFFFFFC00
7FFFFFFFFFFFFFF800
7FFFFFFFFFFFFFF000
7FFFFFFFFFFFFFE000
7FFFFFFFFFFFFF0000
7FFFFFFFFFFFF80000
ENDCHAR
STARTCHAR t
ENCODING 116
SWIDTH 720 0
DWIDTH 61 0
BBX 57 62 2 0
BITMAP
FFFFFFFFFFFFFF80
FFFFFFFFFFFFFF80
FFFFFFFFFFFFFF80
FFFFFFFFFFFFFF80
FFFFFFFFFFFFFF80
FFFFFFFFFFFFFF80
FFFFFFFFFFFFFF80
FFFFFFFFFFFFFF80
FFFFFFFFFFFFFF80
FFFFFFFFFFFFFF80
FFFFFFFFFFFFFF80
000001FFC0000000
000001FFC0000000
000001FFC0000000
000001FFC0000000
000001FFC0000000
000001FFC0000000
000001FFC0000000
000001FFC0000000
000001FFC0000000
000001FFC0000000
000001FFC0000000
000001FFC0000000
000001FFC0000000
000001FFC0000000
000001FFC0000000
000001FFC0000000
000001FFC0000000
000001FFC0000000
000001FFC0000000
000001FFC0000000
000001FFC0000000
000001FFC0000000
000001FFC0000000
000001FFC0000000
000001FFC0000000
000001FFC0000000
000001FFC0000000
000001FFC0000000
000001FFC0000000
000001FFC0000000
000001FFC0000000
000001FFC0000000
000001FFC0000000
000001FFC0000000
000001FFC0000000
000001FFC0000000
000001FFC0000000
000001FFC0000000
000001FFC0000000
000001FFC0000000
000001FFC0000000
000001FFC0000000
000001FFC0000000
000001FFC0000000
000001FFC0000000
000001FFC0000000
000001FFC0000000
000001FFC0000000
000001FFC0000000
000001FFC0000000
000001FFC0000000
ENDCHAR
STARTCHAR u
ENCODING 117
SWIDTH 889 0
DWIDTH 76 0
BBX 67 63 4 -1
BITMAP
FFF000000000007FE0
FFF000000000007FE0
FFF000000000007FE0
FFF000000000007FE0
FFF000000000007FE0
FFF000000000007FE0
FFF000000000007FE0
FFF000000000007FE0
FFF000000000007FE0
FFF000000000007FE0
FFF000000000007FE0
FFF000000000007FE0
FFF000000000007FE0
FFF000000000007FE0
FFF000000000007FE0
FFF000000000007FE0
FFF000000000007FE0
FFF000000000007FE0
FFF000000000007FE0
FFF000000000007FE0
FFF000000000007FE0
FFF000000000007FE0
FFF000000000007FE0
FFF000000000007FE0
FFF000000000007FE0
FFF000000000007FE0
FFF000000000007FE0
FFF000000000007FE0
FFF000000000007FE0
FFF000000000007FE0
FFF000000000007FE0
FFF000000000007FE0
FFF000000000007FE0
FFF000000000007FE0
FFF000000000007FE0
FFF000000000007FE0
FFF000000000007FE0
FFF00000000000FFE0
7FF00000000000FFE0
7FF00000000000FFE0
7FF00000000000FFE0
7FF00000000000FFE0
7FF80000000001FFE0
7FF80000000001FFC0
7FFC0000000001FFC0
3FFC0000000003FFC0
3FFE0000000007FFC0
3FFF000000000FFF80
1FFF800000001FFF80
1FFFE00000003FFF00
0FFFF8000001FFFF00
0FFFFF80001FFFFE00
07FFFFFFFFFFFFFE00
03FFFFFFFFFFFFFC00
01FFFFFFFFFFFFF800
00FFFFFFFFFFFFF000
007FFFFFFFFFFFE000
003FFFFFFFFFFFC000
000FFFFFFFFFFF0000
0007FFFFFFFFFC0000
0000FFFFFFFFF00000
00001FFFFFFF000000
0000007FFFE0000000
ENDCHAR
STARTCHAR v
ENCODING 118
SWIDTH 989 0
DWIDTH 84 0
BBX 82 63 1 -1
BITMAP
FFFC00000000000007FFC0
7FFC0000000000000FFF80
3FFE0000000000000FFF00
3FFE0000000000001FFF00
1FFF0000000000001FFE00
1FFF8000000000003FFE00
0FFF8000000000003FFC00
07FFC000000000007FF800
07FFC00000000000FFF800
03FFE00000000000FFF000
03FFF00000000001FFF000
01FFF00000000001FFE000
00FFF80000000003FFC000
00FFF80000000007FFC000
007FFC0000000007FF8000
007FFC000000000FFF8000
003FFE000000000FFF0000
001FFF000000001FFE0000
001FFF000000001FFE0000
000FFF800000003FFC0000
000FFF800000007FFC0000
0007FFC00000007FF80000
0003FFE0000000FFF00000
0003FFE0000000FFF00000
0001FFF0000001FFE00000
0001FFF0000003FFE00000
0000FFF8000003FFC00000
00007FF8000007FF800000
00007FFC000007FF800000
00003FFE00000FFF000000
00003FFE00000FFF000000
00001FFF00001FFE000000
00000FFF00003FFC000000
00000FFF80003FFC000000
000007FFC0007FF8000000
000007FFC0007FF8000000
000003FFE000FFF0000000
000001FFE001FFE0000000
000001FFF001FFE0000000
000000FFF803FFC0000000
000000FFF803FFC0000000
0000007FFC07FF80000000
0000003FFC07FF00000000
0000003FFE0FFF00000000
0000001FFE1FFE00000000
0000001FFF1FFE00000000
0000000FFFBFFC00000000
00000007FFBFF800000000
00000007FFFFF800000000
00000003FFFFF000000000
00000003FFFFF000000000
00000001FFFFE000000000
00000000FFFFC000000000
00000000FFFFC000000000
000000007FFF8000000000
000000007FFF8000000000
000000003FFF0000000000
000000001FFE0000000000
000000001FFE0000000000
000000000FFC0000000000
000000000FFC0000000000
0000000007F80000000000
0000000001E00000000000
ENDCHAR
STARTCHAR w
ENCODING 119
SWIDTH 1268 0
DWIDTH 108 0
BBX 106 63 1 -1
BITMAP
FFF80001FFF8000000000007FFC0
7FFC0000FFF8000000000007FF80
3FFC00007FFC00000000000FFF00
3FFE00007FFC00000000000FFF00
1FFE00003FFE00000000001FFE00
1FFF00003FFE00000000001FFE00
0FFF80001FFF00000000003FFC00
0FFF80001FFF00000000007FF800
07FFC0000FFF80000000007FF800
07FFC0000FFF8000000000FFF000
03FFE00007FFC000000000FFF000
03FFE00007FFC000000001FFE000
01FFF00003FFE000000001FFE000
01FFF00003FFE000000003FFC000
00FFF80001FFF000000003FFC000
00FFF80001FFF000000007FF8000
007FFC0000FFF800000007FF8000
003FFC0000FFF80000000FFF0000
003FFE00007FFC0000000FFF0000
001FFE00003FFC0000001FFE0000
001FFF00003FFE0000001FFE0000
000FFF00001FFE0000003FFC0000
000FFF80001FFF0000003FF80000
0007FF80000FFF0000007FF80000
0007FFC0000FFF8000007FF00000
0003FFC00007FF800000FFF00000
0003FFE00007FFC00001FFE00000
0001FFE00003FFC00001FFE00000
0001FFF00003FFE00003FFC00000
0000FFF80001FFE00003FFC00000
00007FF80001FFF00007FF800000
00007FFC0001FFF00007FF800000
00003FFC0001FFF8000FFF000000
00003FFE0003FFF8000FFF000000
00001FFE0007FFFC001FFE000000
00001FFF0007FFFC001FFC000000
00000FFF000FFFFE003FFC000000
00000FFF800FFFFE003FF8000000
000007FF801FFFFF007FF8000000
000007FFC01FFFFF007FF0000000
000003FFC03FFFFF80FFF0000000
000003FFE03FFFFF80FFE0000000
000001FFE07FF7FFC1FFE0000000
000000FFF0FFF3FFC1FFC0000000
000000FFF0FFE3FFE3FFC0000000
0000007FF9FFE1FFE7FF80000000
0000007FF9FFC0FFF7FF80000000
0000003FFFFFC0FFFFFF00000000
0000003FFFFF807FFFFF00000000
0000001FFFFF807FFFFE00000000
0000001FFFFF003FFFFC00000000
0000000FFFFF003FFFFC00000000
0000000FFFFE001FFFF800000000
00000007FFFE001FFFF800000000
00000007FFFC000FFFF000000000
00000003FFF8000FFFF000000000
00000003FFF80007FFE000000000
00000001FFF00007FFE000000000
00000000FFF00003FFC000000000
00000000FFE00003FFC000000000
000000007FE00001FF8000000000
000000003FC00000FF0000000000
000000001F0000007C0000000000
ENDCHAR
STARTCHAR x
ENCODING 120
SWIDTH 1000 0
DWIDTH 85 0
BBX 81 62 2 0
BITMAP
3FFFC00000000001FFFC00
0FFFE00000000003FFF000
07FFF00000000007FFE000
03FFF8000000000FFFC000
01FFFC000000001FFF8000
00FFFE000000003FFF0000
007FFF000000007FFE0000
003FFF80000000FFFC0000
001FFFC0000001FFF80000
000FFFE0000003FFF00000
0007FFF0000003FFE00000
0003FFF8000007FFC00000
0001FFFC00000FFF800000
0000FFFE00001FFF000000
00007FFF00003FFE000000
00003FFF80007FFC000000
00001FFFC000FFF8000000
00000FFFE001FFF0000000
000007FFF003FFE0000000
000003FFF807FFC0000000
000001FFFC0FFF80000000
000000FFFE1FFF00000000
0000007FFF3FFE00000000
0000003FFFFFFC00000000
0000001FFFFFF800000000
0000000FFFFFF000000000
00000007FFFFE000000000
00000003FFFFC000000000
00000001FFFF8000000000
00000000FFFF0000000000
000000007FFE0000000000
00000000FFFF0000000000
00000001FFFF8000000000
00000003FFFFE000000000
00000007FFFFF000000000
0000000FFFFFF800000000
0000003FFFFFFC00000000
0000007FFEFFFE00000000
000000FFFC7FFF00000000
000001FFF83FFF80000000
000003FFF01FFFC0000000
000007FFE00FFFE0000000
00000FFFC007FFF0000000
00001FFF8003FFF8000000
00003FFF0001FFFC000000
00007FFE0000FFFE000000
0000FFFC00007FFF000000
0001FFF800003FFF800000
0003FFF000001FFFC00000
0007FFE000000FFFE00000
000FFFC0000003FFF00000
001FFF80000001FFFC0000
003FFF00000000FFFE0000
007FFE000000007FFF0000
00FFFC000000003FFF8000
01FFF8000000001FFFC000
03FFF0000000000FFFE000
07FFE00000000007FFF000
0FFFC00000000003FFF800
3FFF000000000001FFFC00
7FFE000000000000FFFE00
FFFC0000000000007FFF80
ENDCHAR
STARTCHAR y
ENCODING 121
SWIDTH 926 0
DWIDTH 79 0
BBX 77 62 1 0
BITMAP
FFFE000000000003FFF8
7FFF000000000003FFE0
3FFF800000000007FFE0
1FFFC0000000000FFFC0
0FFFC0000000001FFF80
07FFE0000000003FFF00
03FFF0000000007FFE00
03FFF8000000007FFC00
01FFFC00000000FFF800
00FFFC00000001FFF800
007FFE00000003FFF000
003FFF00000007FFE000
001FFF8000000FFFC000
000FFFC000000FFF8000
000FFFE000001FFF0000
0007FFE000003FFE0000
0003FFF000007FFE0000
0001FFF80000FFFC0000
0000FFFC0001FFF80000
00007FFE0001FFF00000
00007FFF0003FFE00000
00003FFF0007FFC00000
00001FFF800FFFC00000
00000FFFC01FFF800000
000007FFE03FFF000000
000003FFF03FFE000000
000003FFF87FFC000000
000001FFF8FFF8000000
000000FFFDFFF0000000
0000007FFFFFF0000000
0000003FFFFFE0000000
0000001FFFFFC0000000
0000000FFFFF80000000
0000000FFFFF00000000
00000007FFFE00000000
00000003FFFE00000000
00000001FFFC00000000
00000000FFF800000000
000000007FF000000000
000000007FF000000000
000000007FF000000000
000000007FF000000000
000000007FF000000000
000000007FF000000000
000000007FF000000000
000000007FF000000000
000000007FF000000000
000000007FF000000000
000000007FF000000000
000000007FF000000000
000000007FF000000000
000000007FF000000000
000000007FF000000000
000000007FF000000000
000000007FF000000000
000000007FF000000000
000000007FF000000000
000000007FF000000000
000000007FF000000000
000000007FF000000000
000000007FF000000000
000000007FF000000000
ENDCHAR
STARTCHAR z
ENCODING 122
SWIDTH 802 0
DWIDTH 68 0
BBX 61 62 3 0
BITMAP
7FFFFFFFFFFFFFC0
7FFFFFFFFFFFFFF0
7FFFFFFFFFFFFFF8
7FFFFFFFFFFFFFF8
7FFFFFFFFFFFFFF8
7FFFFFFFFFFFFFF8
7FFFFFFFFFFFFFF8
7FFFFFFFFFFFFFF8
7FFFFFFFFFFFFFF0
7FFFFFFFFFFFFFF0
7FFFFFFFFFFFFFE0
00000000001FFFC0
00000000003FFF80
00000000007FFF00
0000000000FFFE00
0000000001FFFC00
0000000003FFF800
0000000007FFF000
000000000FFFE000
000000001FFFC000
000000003FFF8000
000000007FFF0000
00000000FFFE0000
00000001FFFC0000
00000003FFF80000
00000007FFF00000
0000000FFFE00000
0000001FFFC00000
0000003FFF800000
0000007FFF000000
000000FFFE000000
000001FFFC000000
000003FFF8000000
000007FFF0000000
00000FFFE0000000
00001FFFC0000000
00003FFF80000000
00007FFF00000000
0000FFFE00000000
0001FFFC00000000
0003FFF800000000
0007FFF000000000
000FFFE000000000
001FFFC000000000
003FFF8000000000
007FFF0000000000
00FFFE0000000000
01FFFC0000000000
03FFF80000000000
07FFF00000000000
0FFFE00000000000
1FFFFFFFFFFFFFF8
3FFFFFFFFFFFFFF8
7FFFFFFFFFFFFFF8
7FFFFFFFFFFFFFF8
FFFFFFFFFFFFFFF8
FFFFFFFFFFFFFFF8
FFFFFFFFFFFFFFF8
7FFFFFFFFFFFFFF8
7FFFFFFFFFFFFFF8
3FFFFFFFFFFFFFF8
0FFFFFFFFFFFFFF8
ENDCHAR
STARTCHAR braceleft
ENCODING 123
SWIDTH 337 0
DWIDTH 29 0
BBX 18 78 5 -8
BITMAP
001FC0
007FC0
01FFC0
03FFC0
03FFC0
07FFC0
07FE00
07F800
07F000
07F000
07F000
07F000
07F000
07F000
07F000
07F000
07F000
07F000
07F000
07F000
07F000
07F000
07F000
07F000
07F000
07F000
07F000
07F000
07F000
07F000
07F000
07F000
07F000
07F000
07F000
0FE000
FFE000
FFC000
FF8000
FF8000
FFC000
FFE000
0FE000
0FE000
07F000
07F000
07F000
07F000
07F000
07F000
07F000
07F000
07F000
07F000
07F000
07F000
07F000
07F000
07F000
07F000
07F000
07F000
07F000
07F000
07F000
07F000
07F000
07F000
07F000
07F000
07F800
07FE00
07FFC0
03FFC0
03FFC0
01FFC0
007FC0
001FC0
ENDCHAR
STARTCHAR bar
ENCODING 124
SWIDTH 297 0
DWIDTH 25 0
BBX 7 78 9 -8
BITMAP
FE
FE
FE
FE
FE
FE
FE
FE
FE
FE
FE
FE
FE
FE
FE
FE
FE
FE
FE
FE
FE
FE
FE
FE
FE
FE
FE
FE
FE
FE
FE
FE
FE
FE
FE
FE
FE
FE
FE
FE
FE
FE
FE
FE
FE
FE
FE
FE
FE
FE
FE
FE
FE
FE
FE
FE
FE
FE
FE
FE
FE
FE
FE
FE
FE
FE
FE
FE
FE
FE
FE
FE
FE
FE
FE
FE
FE
FE
ENDCHAR
STARTCHAR braceright
ENCODING 125
SWIDTH 337 0
DWIDTH 29 0
BBX 18 78 5 -8
BITMAP
FF0000
FFC000
FFE000
FFF000
FFF800
FFF800
0FF800
07FC00
03FC00
03FC00
01FC00
01FC00
01FC00
01FC00
01FC00
01FC00
01FC00
01FC00
01FC00
01FC00
01FC00
01FC00
01FC00
01FC00
01FC00
01FC00
01FC00
01FC00
01FC00
01FC00
01FC00
01FC00
01FC00
01FC00
01FC00
01FE00
01FFC0
00FFC0
007FC0
007FC0
00FFC0
01FFC0
01FE00
01FC00
01FC00
01FC00
01FC00
01FC00
01FC00
01FC00
01FC00
01FC00
01FC00
01FC00
01FC00
01FC00
01FC00
01FC00
01FC00
01FC00
01FC00
01FC00
01FC00
01FC00
01FC00
01FC00
01FC00
01FC00
01FC00
03FC00
03FC00
0FF800
FFF800
FFF800
FFF000
FFE000
FFC000
FF0000
ENDCHAR
STARTCHAR asciitilde
ENCODING 126
SWIDTH 691 0
DWIDTH 59 0
BBX 48 13 5 25
BITMAP
00FF80000000
07FFF0000001
1FFFFE000003
3FFFFFC00007
7FFFFFF0001F
FFFFFFFF00FF
FFFFFFFFFFFF
FF807FFFFFFF
FC000FFFFFFF
F00001FFFFFE
C000003FFFFC
8000000FFFF0
00000000FF80
ENDCHAR
STARTCHAR nonbreakingspace
ENCODING 160
SWIDTH 294 0
DWIDTH 25 0
BBX 1 1 0 0
BITMAP
00
ENDCHAR
STARTCHAR exclamdown
ENCODING 161
SWIDTH 298 0
DWIDTH 25 0
BBX 12 62 7 0
BITMAP
1F00
3FC0
7FE0
FFE0
FFE0
FFF0
FFF0
FFE0
FFE0
7FE0
3FC0
1F00
0000
0000
0000
0000
0000
0000
0000
0000
7FE0
7FE0
7FE0
7FE0
7FE0
7FE0
7FE0
7FE0
7FE0
7FE0
7FE0
7FE0
7FE0
7FE0
7FE0
7FE0
7FE0
7FE0
7FE0
7FE0
7FE0
7FE0
7FE0
7FE0
7FE0
7FE0
7FE0
7FE0
7FE0
7FE0
7FE0
7FE0
7FE0
7FE0
7FE0
7FE0
7FE0
7FE0
7FE0
7FE0
7FE0
7FE0
ENDCHAR
STARTCHAR cent
ENCODING 162
SWIDTH 692 0
DWIDTH 59 0
BBX 51 62 4 0
BITMAP
00000003E00000
00000003E00000
00000003E00000
00000003E00000
00000003E00000
00000003E00000
00003FFFFFFFE0
0001FFFFFFFFE0
000FFFFFFFFFE0
003FFFFFFFFFE0
007FFFFFFFFFE0
00FFFFFFFFFFE0
01FFFFFFFFFFE0
03FFFFFFFFFFE0
07FFFFFFFFFFE0
0FFFF003E00000
1FFF8003E00000
1FFE0003E00000
3FFC0003E00000
3FF80003E00000
7FF00003E00000
7FE00003E00000
7FC00003E00000
FFC00003E00000
FF800003E00000
FF800003E00000
FF800003E00000
FF800003E00000
FF000003E00000
FF000003E00000
FF000003E00000
FF000003E00000
FF000003E00000
FF000003E00000
FF800003E00000
FF800003E00000
FF800003E00000
FF800003E00000
7FC00003E00000
7FC00003E00000
7FE00003E00000
3FF00003E00000
3FF80003E00000
1FFC0003E00000
1FFE0003E00000
0FFF8003E00000
0FFFF003E00000
07FFFFFFFFFFE0
03FFFFFFFFFFE0
01FFFFFFFFFFE0
00FFFFFFFFFFE0
007FFFFFFFFFE0
001FFFFFFFFFE0
0007FFFFFFFFE0
0001FFFFFFFFE0
00003FFFFFFFE0
00000003E00000
00000003E00000
00000003E00000
00000003E00000
00000003E00000
00000003E00000
ENDCHAR
STARTCHAR sterling
ENCODING 163
SWIDTH 709 0
DWIDTH 60 0
BBX 55 62 2 0
BITMAP
000003FFFFFC00
00003FFFFFFC00
0000FFFFFFFC00
0001FFFFFFFC00
0007FFFFFFFC00
000FFFFFFFFC00
000FFFFFFFFC00
001FFFFFFFFC00
003FFFFFFFFC00
003FFFFFFFFC00
007FFFFFFFFC00
007FFF00000000
007FFC00000000
00FFF000000000
00FFF000000000
00FFE000000000
00FFE000000000
00FFC000000000
00FFC000000000
00FFC000000000
00FFC000000000
00FFC000000000
00FFC000000000
00FFC000000000
00FFC000000000
00FFC000000000
0FFFFFFFE00000
0FFFFFFFE00000
0FFFFFFFE00000
0FFFFFFFE00000
0FFFFFFFE00000
0FFFFFFFE00000
0FFFFFFFE00000
0FFFFFFFE00000
00FFC000000000
00FFC000000000
00FFC000000000
00FFC000000000
00FFC000000000
00FFC000000000
00FFC000000000
00FFC000000000
00FFC000000000
00FFC000000000
00FFC000000000
00FFC000000000
00FFC000000000
00FFC000000000
00FFC000000000
00FFC000000000
00FFC000000000
FFFFFFFFFFFFFE
FFFFFFFFFFFFFE
FFFFFFFFFFFFFE
FFFFFFFFFFFFFE
FFFFFFFFFFFFFE
FFFFFFFFFFFFFE
FFFFFFFFFFFFFE
FFFFFFFFFFFFFE
FFFFFFFFFFFFFE
FFFFFFFFFFFFFE
FFFFFFFFFFFFFE
ENDCHAR
STARTCHAR yen
ENCODING 165
SWIDTH 787 0
DWIDTH 67 0
BBX 63 62 2 0
BITMAP
FFF8000000003FFE
7FF8000000007FFC
7FFC00000000FFF8
3FFE00000000FFF0
1FFE00000001FFF0
1FFF00000001FFE0
0FFF80000003FFE0
07FF80000007FFC0
07FFC0000007FF80
03FFE000000FFF80
01FFE000000FFF00
01FFF000001FFE00
00FFF000003FFE00
00FFF800003FFC00
007FFC00007FF800
003FFC00007FF800
003FFE0000FFF000
001FFF0001FFE000
000FFF0001FFE000
000FFF8003FFC000
0007FF8003FF8000
0003FFC007FF8000
0003FFE00FFF0000
0001FFE00FFF0000
0000FFF01FFE0000
0000FFF83FFC0000
00007FF83FFC0000
00003FFC7FF80000
00003FFC7FF00000
00001FFEFFF00000
00000FFFFFE00000
00000FFFFFC00000
000007FFFFC00000
000003FFFF800000
007FFFFFFFFFFE00
007FFFFFFFFFFE00
007FFFFFFFFFFE00
007FFFFFFFFFFE00
007FFFFFFFFFFE00
007FFFFFFFFFFE00
007FFFFFFFFFFE00
0000003FF8000000
0000003FF8000000
0000003FF8000000
0000003FF8000000
0000003FF8000000
0000003FF8000000
0000003FF8000000
0000003FF8000000
007FFFFFFFFFFE00
007FFFFFFFFFFE00
007FFFFFFFFFFE00
007FFFFFFFFFFE00
007FFFFFFFFFFE00
007FFFFFFFFFFE00
007FFFFFFFFFFE00
0000003FF8000000
0000003FF8000000
0000003FF8000000
0000003FF8000000
0000003FF8000000
0000003FF8000000
ENDCHAR
STARTCHAR brokenbar
ENCODING 166
SWIDTH 297 0
DWIDTH 25 0
BBX 7 78 9 -8
BITMAP
FE
FE
FE
FE
FE
FE
FE
FE
FE
FE
FE
FE
FE
FE
FE
FE
FE
FE
FE
FE
FE
FE
FE
FE
FE
FE
FE
FE
FE
FE
FE
FE
FE
FE
FE
00
00
00
00
00
00
00
00
00
FE
FE
FE
FE
FE
FE
FE
FE
FE
FE
FE
FE
FE
FE
FE
FE
FE
FE
FE
FE
FE
FE
FE
FE
FE
FE
FE
FE
FE
FE
FE
FE
FE
FE
ENDCHAR
STARTCHAR section
ENCODING 167
SWIDTH 773 0
DWIDTH 66 0
BBX 57 80 4 -18
BITMAP
0007FFFFFFFFC000
003FFFFFFFFFC000
00FFFFFFFFFFC000
03FFFFFFFFFFC000
07FFFFFFFFFFC000
0FFFFFFFFFFFC000
1FFFFFFFFFFFC000
1FFFFFFFFFFFC000
3FFFFFFFFFFFC000
3FFFFFFFFFFFC000
7FFFFFFFFFFFC000
7FFE000000000000
7FF8000000000000
FFF0000000000000
FFE0000000000000
FFE0000000000000
FFE0000000000000
FFC0000000000000
FFC0000000000000
FFC0000000000000
FFE0000000000000
7FE0000000000000
7FE0000000000000
7FF0000000000000
3FF8000000000000
3FFE000000000000
1FFFFFFFFFF00000
1FFFFFFFFFFE0000
0FFFFFFFFFFF8000
07FFFFFFFFFFC000
01FFFFFFFFFFE000
00FFFFFFFFFFF000
01FFFFFFFFFFF000
03FFFFFFFFFFF800
07FF000000FFF800
0FFE0000003FF800
0FFC0000001FFC00
0FF80000000FFC00
1FF80000000FFC00
1FF80000000FFC00
1FF00000000FFC00
1FF80000000FFC00
1FF80000000FF800
1FF80000000FF800
1FFC0000001FF800
1FFE0000003FF000
0FFF8000007FF000
0FFFFFFFFFFFE000
07FFFFFFFFFFC000
07FFFFFFFFFF8000
03FFFFFFFFFFC000
01FFFFFFFFFFE000
00FFFFFFFFFFF000
003FFFFFFFFFF800
0007FFFFFFFFFC00
00000000003FFE00
00000000000FFE00
000000000007FF00
000000000003FF00
000000000003FF00
000000000003FF80
000000000003FF80
000000000003FF80
000000000003FF80
000000000003FF80
000000000007FF80
000000000007FF80
00000000001FFF00
00000000007FFF00
01FFFFFFFFFFFF00
01FFFFFFFFFFFE00
01FFFFFFFFFFFE00
01FFFFFFFFFFFC00
01FFFFFFFFFFFC00
01FFFFFFFFFFF800
01FFFFFFFFFFF000
01FFFFFFFFFFE000
01FFFFFFFFFF8000
01FFFFFFFFFE0000
01FFFFFFFFE00000
ENDCHAR
STARTCHAR dieresis
ENCODING 168
SWIDTH 393 0
DWIDTH 33 0
BBX 25 8 4 68
BITMAP
1E003E00
7F007F00
7F80FF80
7F80FF80
FF80FF80
7F80FF80
7F007F00
1E003E00
ENDCHAR
STARTCHAR copyright
ENCODING 169
SWIDTH 829 0
DWIDTH 70 0
BBX 63 64 4 -2
BITMAP
0000003FF8000000
000003FFFF800000
00001FFFFFF00000
00007F8007FC0000
0001FC00007F0000
0007E000001F8000
000F80000007C000
001F00000001F000
003C00000000F800
0078000000003C00
00F0000000001E00
01E0000000000F00
03C0000000000700
0780000000000380
07000000000003C0
0F000000000001C0
1E000000000000E0
1C00001FFF8000F0
3C0000FFFF800070
380003FFFF800070
38000FFFFF800038
70001FE000000038
70003F800000001C
70003F000000001C
F0007C000000001C
E000FC000000001C
E000F8000000000C
E000F8000000000E
E000F0000000000E
E001F0000000000E
E001F0000000000E
E001F0000000000E
E001F0000000000E
E001F0000000000E
E001F0000000000E
E000F0000000000E
E000F8000000000E
E000F8000000000C
E0007C000000001C
F0007E000000001C
70003F000000001C
70001F8000000038
78000FE000000038
380007FFFF800038
380003FFFF800070
1C0000FFFF800070
1C00001FFF8000E0
0E000000000000E0
0F000000000001C0
07000000000003C0
0380000000000780
03C0000000000700
01E0000000000E00
00F0000000001E00
0078000000007C00
003C00000000F800
001F00000001F000
000FC0000007C000
0003F000001F8000
0001FC00007E0000
00007FC007F80000
00001FFFFFE00000
000003FFFF800000
0000003FF0000000
ENDCHAR
STARTCHAR ordfeminine
ENCODING 170
SWIDTH 604 0
DWIDTH 51 0
BBX 45 35 3 25
BITMAP
000007000000
00000F800000
00001FC00000
00001FC00000
00003FE00000
00003FF00000
00007FF00000
0000FFF80000
0000FFF80000
0001FDFC0000
0001F8FE0000
0003F8FE0000
0007F07F0000
0007E07F0000
000FE03F8000
000FC01FC000
001FC01FC000
003F800FE000
003F000FE000
007F0007F000
007E0003F800
00FE1FFFF800
01FC1FFFFC00
01F83FFFFC00
03F83FFFFE00
03F07FFFFF00
07F000007F00
0FE000003F80
0FE000003F80
1FC000001FC0
1F8000000FE0
3F8000000FE0
7F00000007F0
7F00000007F8
FE00000003F8
ENDCHAR
STARTCHAR guillemotleft
ENCODING 171
SWIDTH 629 0
DWIDTH 53 0
BBX 46 32 4 16
BITMAP
000001000004
00000300000C
00000F00003C
00001F00007C
00007F0001FC
0001FF0007FC
0003FC000FF8
000FF8003FE0
003FE000FF80
007F8001FF00
01FF0007FC00
07FC001FF000
0FF0003FC000
3FC000FF8000
FF8001FE0000
FE0003F80000
F80003F00000
FE0003F80000
7F8001FE0000
1FC0007F8000
0FF0001FC000
03FC000FF000
00FF0003FC00
007F8001FF00
001FE0007F80
0007F8001FE0
0003FE000FF8
0000FF0003FC
00003F0000FC
00001F00007C
00000700001C
000003000004
ENDCHAR
STARTCHAR registered
ENCODING 174
SWIDTH 585 0
DWIDTH 50 0
BBX 39 39 5 23
BITMAP
0001FF0000
000FFFE000
003FFFF800
007F00FE00
01F8001F00
03E0000F80
07C00003C0
0F800001E0
0F000000F0
1E00000078
1C00000078
381FFFC03C
381FFFF01C
701FFFF01C
701C00781E
701C00380E
701C00380E
E01C00380E
E01C00780E
E01C3FF00E
E01C3FE00E
E01C3FC00E
701C03E00E
701C01F00E
701C00F81E
701C007C1C
380000021C
380000003C
1C00000038
1E00000078
0F000000F0
0F800001E0
07C00003C0
03E0000F80
01F8001F00
007F00FE00
003FFFF800
000FFFE000
0001FF0000
ENDCHAR
STARTCHAR macron
ENCODING 175
SWIDTH 362 0
DWIDTH 31 0
BBX 22 5 4 69
BITMAP
FFFFFC
FFFFFC
FFFFFC
FFFFFC
FFFFFC
ENDCHAR
STARTCHAR degree
ENCODING 176
SWIDTH 361 0
DWIDTH 31 0
BBX 23 24 4 38
BITMAP
01FF00
0FFFC0
1FFFF0
3FFFF8
7FFFF8
7F03FC
FC00FC
F8007E
F8003E
F8003E
F0003E
F0003E
F0003E
F0003E
F0003E
F8003E
F8007E
FC00FC
7F03FC
7FFFF8
3FFFF8
1FFFF0
0FFFC0
01FF00
ENDCHAR
STARTCHAR plusminus
ENCODING 177
SWIDTH 690 0
DWIDTH 59 0
BBX 48 59 5 -4
BITMAP
000007F00000
000007F00000
000007F00000
000007F00000
000007F00000
000007F00000
000007F00000
000007F00000
000007F00000
000007F00000
000007F00000
000007F00000
000007F00000
000007F00000
000007F00000
000007F00000
000007F00000
000007F00000
000007F00000
000007F00000
FFFFFFFFFFFF
FFFFFFFFFFFF
FFFFFFFFFFFF
FFFFFFFFFFFF
FFFFFFFFFFFF
FFFFFFFFFFFF
FFFFFFFFFFFF
000007F00000
000007F00000
000007F00000
000007F00000
000007F00000
000007F00000
000007F00000
000007F00000
000007F00000
000007F00000
000007F00000
000007F00000
000007F00000
000007F00000
000007F00000
000007F00000
000007F00000
000007F00000
000007F00000
000007F00000
000007F00000
000000000000
000000000000
000000000000
000000000000
FFFFFFFFFFFF
FFFFFFFFFFFF
FFFFFFFFFFFF
FFFFFFFFFFFF
FFFFFFFFFFFF
FFFFFFFFFFFF
FFFFFFFFFFFF
ENDCHAR
STARTCHAR twosuperior
ENCODING 178
SWIDTH 442 0
DWIDTH 38 0
BBX 30 31 4 32
BITMAP
FFFFFF00
FFFFFFC0
FFFFFFF0
FFFFFFF0
FFFFFFF8
000001FC
000000FC
000000FC
0000007C
0000007C
000000FC
000000FC
000001F8
07FFFFF8
1FFFFFF0
3FFFFFF0
7FFFFFC0
7FFFFF00
FE000000
FC000000
F8000000
F8000000
F8000000
F8000000
F8000000
F8000000
FFFFFFFC
FFFFFFFC
FFFFFFFC
FFFFFFFC
FFFFFFFC
ENDCHAR
STARTCHAR threesuperior
ENCODING 179
SWIDTH 443 0
DWIDTH 38 0
BBX 31 31 3 32
BITMAP
FFFFFF80
FFFFFFE0
FFFFFFF8
FFFFFFF8
FFFFFFFC
000001FC
0000007E
0000007E
0000007E
0000007E
0000007C
0000007C
000001FC
00FFFFF8
00FFFFE0
00FFFFF0
00FFFFF8
00FFFFFC
000000FE
0000007E
0000003E
0000003E
0000003E
0000007E
0000007E
000001FE
FFFFFFFC
FFFFFFFC
FFFFFFF8
FFFFFFE0
FFFFFF80
ENDCHAR
STARTCHAR acute
ENCODING 180
SWIDTH 362 0
DWIDTH 31 0
BBX 22 11 4 66
BITMAP
00000C
0000FC
0007FC
003FFC
03FFFC
1FFFFC
FFFFFC
FFFFC0
FFF800
FF0000
F00000
ENDCHAR
STARTCHAR paragraph
ENCODING 182
SWIDTH 629 0
DWIDTH 53 0
BBX 44 71 4 -9
BITMAP
003FFFFFFFF0
01FFFFFFFFF0
07FFFFFFFFF0
0FFFFFFFFFF0
1FFFFFFFFFF0
3FFFFFFFFFF0
3FFFFFFFFFF0
7FFFFFE007F0
7FFFFFE007F0
FFFFFFE007F0
FFFFFFE007F0
FFFFFFE007F0
FFFFFFE007F0
FFFFFFE007F0
FFFFFFE007F0
FFFFFFE007F0
FFFFFFE007F0
FFFFFFE007F0
FFFFFFE007F0
7FFFFFE007F0
7FFFFFE007F0
7FFFFFE007F0
3FFFFFE007F0
1FFFFFE007F0
0FFFFFE007F0
07FFFFE007F0
03FFFFE007F0
00FFFFE007F0
0007FFE007F0
00000FE007F0
00000FE007F0
00000FE007F0
00000FE007F0
00000FE007F0
00000FE007F0
00000FE007F0
00000FE007F0
00000FE007F0
00000FE007F0
00000FE007F0
00000FE007F0
00000FE007F0
00000FE007F0
00000FE007F0
00000FE007F0
00000FE007F0
00000FE007F0
00000FE007F0
00000FE007F0
00000FE007F0
00000FE007F0
00000FE007F0
00000FE007F0
00000FE007F0
00000FE007F0
00000FE007F0
00000FE007F0
00000FE007F0
00000FE007F0
00000FE007F0
00000FE007F0
00000FE007F0
00000FE007F0
00000FE007F0
00000FE007F0
00000FE007F0
00000FE007F0
00000FE007F0
00000FE007F0
00000FE007F0
00000FE007F0
ENDCHAR
STARTCHAR periodcentered
ENCODING 183
SWIDTH 262 0
DWIDTH 22 0
BBX 12 12 5 25
BITMAP
0F00
3FC0
7FE0
7FE0
FFF0
FFF0
FFF0
FFF0
7FE0
7FE0
3FC0
0F80
ENDCHAR
STARTCHAR cedilla
ENCODING 184
SWIDTH 219 0
DWIDTH 19 0
BBX 11 13 4 -17
BITMAP
FFE0
FFC0
7FC0
7F80
3F80
3F80
3F00
1F00
1E00
0E00
0C00
0400
0400
ENDCHAR
STARTCHAR onesuperior
ENCODING 185
SWIDTH 222 0
DWIDTH 19 0
BBX 13 31 2 32
BITMAP
FE00
FF80
FFC0
FFE0
FFF0
03F0
01F8
01F8
00F8
00F8
00F8
00F8
00F8
00F8
00F8
00F8
00F8
00F8
00F8
00F8
00F8
00F8
00F8
00F8
00F8
00F8
00F8
00F8
00F8
00F8
00F8
ENDCHAR
STARTCHAR ordmasculine
ENCODING 186
SWIDTH 592 0
DWIDTH 50 0
BBX 42 34 4 26
BITMAP
0007FFFC0000
003FFFFF8000
00FFFFFFE000
03FFFFFFF000
07FFFFFFF800
0FFFFFFFFC00
1FFC0007FE00
1FE00001FE00
3FC00000FF00
3F8000007F80
7F0000003F80
7F0000001F80
7E0000001F80
7E0000000FC0
7E0000000FC0
7E0000000FC0
FC0000000FC0
7E0000000FC0
7E0000000FC0
7E0000000FC0
7E0000000FC0
7E0000001F80
7F0000001F80
3F0000003F80
3F8000007F00
1FC00000FF00
1FE00001FE00
0FFC0007FC00
07FFFFFFFC00
03FFFFFFF800
01FFFFFFF000
00FFFFFFC000
003FFFFF0000
0007FFF80000
ENDCHAR
STARTCHAR guillemotright
ENCODING 187
SWIDTH 629 0
DWIDTH 53 0
BBX 46 32 4 16
BITMAP
800004000000
800003000000
E00003800000
F80003E00000
FC0003F80000
FF0003FC0000
7FC001FF0000
1FE0007FC000
0FF8003FE000
03FE000FF800
00FF0003FE00
007FC000FF00
001FF0007FC0
0007F8001FF0
0001FE0007F8
0000FF0001FC
00003F0000FC
0000FE0003FC
0001FC0007F0
0007F8001FE0
001FE0007F80
007F8000FF00
00FF0003FC00
03FC000FF000
0FF0003FE000
3FE0007F8000
7F8001FE0000
FE0003FC0000
FC0003F00000
F00003C00000
C00003800000
800002000000
ENDCHAR
STARTCHAR onequarter
ENCODING 188
SWIDTH 972 0
DWIDTH 83 0
BBX 75 72 4 -6
BITMAP
00000000000001FE0000
00000000000001FC0000
00000000000003F80000
01F80000000007F00000
01FE000000000FF00000
01FF800000000FE00000
01FFC00000001FC00000
01FFC00000003F800000
000FE00000007F000000
0007E0000000FF000000
0003E0000000FE000000
0003E0000001FC000000
0003E0000003F8000000
0003E0000007F8000000
0003E000000FF0000000
0003E000000FE0000000
0003E000001FC0000000
0003E000003F80000000
0003E000007F80000000
0003E000007F00000000
0003E00000FE00000000
0003E00001FC00000000
0003E00003FC00000000
0003E00007F800000000
0003E00007F000000000
0003E0000FE000000000
0003E0001FC000000000
0003E0003FC000000000
0003E0003F8000000000
0003E0007F0000000000
0003E000FE0000000000
0003E001FE0000000000
0003E003FC0000000000
0003E003F80000000000
00000007F00000000000
0000000FE00000000000
0000001FE03F00007E00
0000001FC03F00007E00
0000003F803F00007E00
0000007F003F00007E00
000000FF003F00007E00
000001FE003F00007E00
000001FC003F00007E00
000003F8003F00007E00
000007F0003F00007E00
00000FF0003F00007E00
00001FE0003F00007E00
00001FC0003F00007E00
00003F80003F00007E00
00007F80003F00007E00
0000FF00003F00007E00
0000FE00003F00007E00
0001FC00001F00007E00
0003F800001FC0007E00
0007F800001FFFFFFFE0
000FF000000FFFFFFFE0
000FE0000007FFFFFFE0
001FC0000003FFFFFFE0
003F80000000FFFFFFE0
007F8000000000007E00
007F0000000000007E00
00FE0000000000007E00
01FC0000000000007E00
03FC0000000000007E00
07F80000000000007E00
07F00000000000007E00
0FE00000000000007E00
1FC00000000000000000
3FC00000000000000000
3F800000000000000000
7F000000000000000000
FE000000000000000000
ENDCHAR
STARTCHAR onehalf
ENCODING 189
SWIDTH 948 0
DWIDTH 81 0
BBX 73 72 4 -6
BITMAP
00000000000001FE0000
00000000000001FC0000
00000000000003F80000
01F80000000007F00000
01FE000000000FF00000
01FF800000000FE00000
01FFC00000001FC00000
01FFC00000003F800000
000FE00000007F000000
0007E0000000FF000000
0003E0000000FE000000
0003E0000001FC000000
0003E0000003F8000000
0003E0000007F8000000
0003E000000FF0000000
0003E000000FE0000000
0003E000001FC0000000
0003E000003F80000000
0003E000007F80000000
0003E000007F00000000
0003E00000FE00000000
0003E00001FC00000000
0003E00003FC00000000
0003E00007F800000000
0003E00007F000000000
0003E0000FE000000000
0003E0001FC000000000
0003E0003FC000000000
0003E0003F8000000000
0003E0007F0000000000
0003E000FE0000000000
0003E001FE0000000000
0003E003FC0000000000
0003E003F80000000000
00000007F00000000000
0000000FE00000000000
0000001FE01FFFFFE000
0000001FC01FFFFFF800
0000003F801FFFFFFE00
0000007F001FFFFFFE00
000000FF001FFFFFFF00
000001FE000000003F00
000001FC000000001F80
000003F8000000001F80
000007F0000000001F80
00000FF0000000001F80
00001FE0000000001F80
00001FC0000000001F80
00003F80000000003F00
00007F800000FFFFFF00
0000FF000003FFFFFE00
0000FE000007FFFFFC00
0001FC00000FFFFFF800
0003F800000FFFFFE000
0007F800001FC0000000
000FF000001F80000000
000FE000001F00000000
001FC000001F00000000
003F8000001F00000000
007F8000001F00000000
007F0000001F00000000
00FE0000001F00000000
01FC0000001FFFFFFF80
03FC0000001FFFFFFF80
07F80000001FFFFFFF80
07F00000001FFFFFFF80
0FE00000001FFFFFFF80
1FC00000000000000000
3FC00000000000000000
3F800000000000000000
7F000000000000000000
FE000000000000000000
ENDCHAR
STARTCHAR threequarters
ENCODING 190
SWIDTH 1029 0
DWIDTH 87 0
BBX 80 72 4 -6
BITMAP
000000000000000FE000
000000000000001FE000
000000000000001FC000
FFFFFF000000003F8000
FFFFFFE00000007F0000
FFFFFFF0000000FF0000
FFFFFFF8000000FE0000
FFFFFFF8000001FC0000
000003FC000003F80000
000000FC000007F00000
000000FC00000FF00000
0000007C00000FE00000
0000007C00001FC00000
000000FC00003F800000
000000FC00007F800000
000001F800007F000000
01FFFFF00000FE000000
01FFFFE00001FC000000
01FFFFE00003F8000000
01FFFFF80007F8000000
01FFFFF80007F0000000
000001FC000FE0000000
000000FC001FC0000000
0000007E003FC0000000
0000007E003F80000000
0000007E007F00000000
0000007E00FE00000000
000000FC01FC00000000
000003FC03FC00000000
FFFFFFFC03F800000000
FFFFFFF807F000000000
FFFFFFF00FE000000000
FFFFFFE01FE000000000
FFFFFF003FC000000000
000000003F8000000000
000000007F0000000000
00000000FE01F00003E0
00000001FE01F00003E0
00000001FC01F00003E0
00000003F801F00003E0
00000007F001F00003E0
0000000FF001F00003E0
0000001FE001F00003E0
0000001FC001F00003E0
0000003F8001F00003E0
0000007F0001F00003E0
000000FF0001F00003E0
000000FE0001F00003E0
000001FC0001F00003E0
000003F80001F00003E0
000007F80001F80003E0
00000FF00001F80003E0
00000FE00001F80003E0
00001FC00000FC0003E0
00003F800000FFFFFFFF
00007F8000007FFFFFFF
00007F0000003FFFFFFF
0000FE0000001FFFFFFF
0001FC00000007FFFFFF
0003FC000000000003E0
0007F8000000000003E0
0007F0000000000003E0
000FE0000000000003E0
001FC0000000000003E0
003FC0000000000003E0
007F80000000000003E0
007F00000000000003E0
00FE0000000000000000
01FE0000000000000000
03FC0000000000000000
03F80000000000000000
0FF00000000000000000
ENDCHAR
STARTCHAR questiondown
ENCODING 191
SWIDTH 776 0
DWIDTH 66 0
BBX 60 62 2 0
BITMAP
000000000001E000
000000000007F800
00000000000FFC00
00000000000FFC00
00000000001FFE00
00000000001FFE00
00000000001FFE00
00000000001FFE00
00000000000FFC00
00000000000FFC00
000000000007F800
000000000003F000
0000000000000000
0000000000000000
0000000000000000
0000000000000000
0000000000000000
0000000000000000
0000000000000000
0000000000000000
0000000000000000
00000000000FFC00
00000000000FFC00
00000000000FFC00
00000000000FFC00
00000000000FFC00
00000000000FFC00
00000000001FFC00
0003FFFFFFFFFC00
001FFFFFFFFFFC00
007FFFFFFFFFF800
01FFFFFFFFFFF800
03FFFFFFFFFFF000
07FFFFFFFFFFE000
0FFFFFFFFFFFC000
1FFFFFFFFFFF0000
3FFFFFFFFFF80000
3FFF000000000000
3FFC000000000000
7FF8000000000000
7FF0000000000000
7FF0000000000000
7FF0000000000000
FFE0000000000000
FFE0000000000000
FFF0000000000000
FFF0000000000000
7FF0000000000000
7FF8000000000000
7FFC000000000000
7FFE000000000000
7FFFFFFFFFFFFFF0
3FFFFFFFFFFFFFF0
3FFFFFFFFFFFFFF0
1FFFFFFFFFFFFFF0
0FFFFFFFFFFFFFF0
07FFFFFFFFFFFFF0
03FFFFFFFFFFFFF0
01FFFFFFFFFFFFF0
00FFFFFFFFFFFFF0
001FFFFFFFFFFFF0
0003FFFFFFFFFFF0
ENDCHAR
STARTCHAR Agrave
ENCODING 192
SWIDTH 989 0
DWIDTH 84 0
BBX 82 77 1 0
BITMAP
0000000C00000000000000
0000000FC0000000000000
0000000FF8000000000000
0000000FFF000000000000
0000000FFFE00000000000
0000000FFFFE0000000000
0000000FFFFF8000000000
00000000FFFF8000000000
0000000007FF8000000000
00000000003F8000000000
0000000000038000000000
0000000000000000000000
0000000000000000000000
0000000000000000000000
0000000001E00000000000
0000000007F80000000000
000000000FFC0000000000
000000000FFC0000000000
000000001FFE0000000000
000000001FFE0000000000
000000003FFF0000000000
000000007FFF8000000000
000000007FFF8000000000
00000000FFFFC000000000
00000000FFFFC000000000
00000001FFFFE000000000
00000003FFFFF000000000
00000003FFFFF000000000
00000007FFFFF800000000
00000007FFFFF800000000
0000000FFF7FFC00000000
0000001FFF3FFE00000000
0000001FFE3FFE00000000
0000003FFC1FFF00000000
0000003FFC1FFF00000000
0000007FF80FFF80000000
000000FFF807FFC0000000
000000FFF007FFC0000000
000001FFE003FFE0000000
000001FFE003FFE0000000
000003FFC001FFF0000000
000007FFC001FFF8000000
000007FF8000FFF8000000
00000FFF00007FFC000000
00000FFF00007FFC000000
00001FFE00003FFE000000
00003FFE00003FFF000000
00003FFC00001FFF000000
00007FF800000FFF800000
00007FF800000FFF800000
0000FFF0000007FFC00000
0001FFF0000007FFE00000
0001FFE0000003FFE00000
0003FFC01FFFFFFFF00000
0003FFC01FFFFFFFF00000
0007FF803FFFFFFFF80000
000FFF807FFFFFFFFC0000
000FFF007FFFFFFFFC0000
001FFF00FFFFFFFFFE0000
001FFE00FFFFFFFFFE0000
003FFC01FFFFFFFFFF0000
007FFC03FFFFFFFFFF8000
007FF8000000000FFF8000
00FFF8000000000FFFC000
00FFF00000000007FFC000
01FFE00000000003FFE000
03FFE00000000003FFF000
03FFC00000000001FFF000
07FFC00000000000FFF800
07FF800000000000FFF800
0FFF0000000000007FFC00
1FFF0000000000007FFE00
1FFE0000000000003FFE00
3FFE0000000000001FFF00
3FFC0000000000001FFF00
7FF80000000000000FFF80
FFF80000000000000FFFC0
ENDCHAR
STARTCHAR Aacute
ENCODING 193
SWIDTH 989 0
DWIDTH 84 0
BBX 82 77 1 0
BITMAP
0000000000000C00000000
0000000000007C00000000
000000000007FC00000000
00000000003FFC00000000
0000000001FFFC00000000
000000001FFFFC00000000
000000007FFFFC00000000
000000007FFFC000000000
000000007FF80000000000
000000007F000000000000
0000000070000000000000
0000000000000000000000
0000000000000000000000
0000000000000000000000
0000000001E00000000000
0000000007F80000000000
000000000FFC0000000000
000000000FFC0000000000
000000001FFE0000000000
000000001FFE0000000000
000000003FFF0000000000
000000007FFF8000000000
000000007FFF8000000000
00000000FFFFC000000000
00000000FFFFC000000000
00000001FFFFE000000000
00000003FFFFF000000000
00000003FFFFF000000000
00000007FFFFF800000000
00000007FFFFF800000000
0000000FFF7FFC00000000
0000001FFF3FFE00000000
0000001FFE3FFE00000000
0000003FFC1FFF00000000
0000003FFC1FFF00000000
0000007FF80FFF80000000
000000FFF807FFC0000000
000000FFF007FFC0000000
000001FFE003FFE0000000
000001FFE003FFE0000000
000003FFC001FFF0000000
000007FFC001FFF8000000
000007FF8000FFF8000000
00000FFF00007FFC000000
00000FFF00007FFC000000
00001FFE00003FFE000000
00003FFE00003FFF000000
00003FFC00001FFF000000
00007FF800000FFF800000
00007FF800000FFF800000
0000FFF0000007FFC00000
0001FFF0000007FFE00000
0001FFE0000003FFE00000
0003FFC01FFFFFFFF00000
0003FFC01FFFFFFFF00000
0007FF803FFFFFFFF80000
000FFF807FFFFFFFFC0000
000FFF007FFFFFFFFC0000
001FFF00FFFFFFFFFE0000
001FFE00FFFFFFFFFE0000
003FFC01FFFFFFFFFF0000
007FFC03FFFFFFFFFF8000
007FF8000000000FFF8000
00FFF8000000000FFFC000
00FFF00000000007FFC000
01FFE00000000003FFE000
03FFE00000000003FFF000
03FFC00000000001FFF000
07FFC00000000000FFF800
07FF800000000000FFF800
0FFF0000000000007FFC00
1FFF0000000000007FFE00
1FFE0000000000003FFE00
3FFE0000000000001FFF00
3FFC0000000000001FFF00
7FF80000000000000FFF80
FFF80000000000000FFFC0
ENDCHAR
STARTCHAR Acircumflex
ENCODING 194
SWIDTH 989 0
DWIDTH 84 0
BBX 82 77 1 0
BITMAP
0000000007F80000000000
000000000FFC0000000000
000000001FFE0000000000
000000001F3E0000000000
000000003F3F0000000000
000000007E1F8000000000
000000007C0F8000000000
00000000FC0FC000000000
00000001F807E000000000
00000001F807E000000000
00000003F003F000000000
00000007E001F800000000
0000000000000000000000
0000000000000000000000
0000000001E00000000000
0000000007F80000000000
000000000FFC0000000000
000000000FFC0000000000
000000001FFE0000000000
000000001FFE0000000000
000000003FFF0000000000
000000007FFF8000000000
000000007FFF8000000000
00000000FFFFC000000000
00000000FFFFC000000000
00000001FFFFE000000000
00000003FFFFF000000000
00000003FFFFF000000000
00000007FFFFF800000000
00000007FFFFF800000000
0000000FFF7FFC00000000
0000001FFF3FFE00000000
0000001FFE3FFE00000000
0000003FFC1FFF00000000
0000003FFC1FFF00000000
0000007FF80FFF80000000
000000FFF807FFC0000000
000000FFF007FFC0000000
000001FFE003FFE0000000
000001FFE003FFE0000000
000003FFC001FFF0000000
000007FFC001FFF8000000
000007FF8000FFF8000000
00000FFF00007FFC000000
00000FFF00007FFC000000
00001FFE00003FFE000000
00003FFE00003FFF000000
00003FFC00001FFF000000
00007FF800000FFF800000
00007FF800000FFF800000
0000FFF0000007FFC00000
0001FFF0000007FFE00000
0001FFE0000003FFE00000
0003FFC01FFFFFFFF00000
0003FFC01FFFFFFFF00000
0007FF803FFFFFFFF80000
000FFF807FFFFFFFFC0000
000FFF007FFFFFFFFC0000
001FFF00FFFFFFFFFE0000
001FFE00FFFFFFFFFE0000
003FFC01FFFFFFFFFF0000
007FFC03FFFFFFFFFF8000
007FF8000000000FFF8000
00FFF8000000000FFFC000
00FFF00000000007FFC000
01FFE00000000003FFE000
03FFE00000000003FFF000
03FFC00000000001FFF000
07FFC00000000000FFF800
07FF800000000000FFF800
0FFF0000000000007FFC00
1FFF0000000000007FFE00
1FFE0000000000003FFE00
3FFE0000000000001FFF00
3FFC0000000000001FFF00
7FF80000000000000FFF80
FFF80000000000000FFFC0
ENDCHAR
STARTCHAR Atilde
ENCODING 195
SWIDTH 989 0
DWIDTH 84 0
BBX 82 76 1 0
BITMAP
000000007C001000000000
00000001FF801000000000
00000003FFE07000000000
00000003FFFFF000000000
00000003FFFFF000000000
0000000383FFF000000000
00000002007FE000000000
00000002001F8000000000
0000000000000000000000
0000000000000000000000
0000000000000000000000
0000000000000000000000
0000000000000000000000
0000000001E00000000000
0000000007F80000000000
000000000FFC0000000000
000000000FFC0000000000
000000001FFE0000000000
000000001FFE0000000000
000000003FFF0000000000
000000007FFF8000000000
000000007FFF8000000000
00000000FFFFC000000000
00000000FFFFC000000000
00000001FFFFE000000000
00000003FFFFF000000000
00000003FFFFF000000000
00000007FFFFF800000000
00000007FFFFF800000000
0000000FFF7FFC00000000
0000001FFF3FFE00000000
0000001FFE3FFE00000000
0000003FFC1FFF00000000
0000003FFC1FFF00000000
0000007FF80FFF80000000
000000FFF807FFC0000000
000000FFF007FFC0000000
000001FFE003FFE0000000
000001FFE003FFE0000000
000003FFC001FFF0000000
000007FFC001FFF8000000
000007FF8000FFF8000000
00000FFF00007FFC000000
00000FFF00007FFC000000
00001FFE00003FFE000000
00003FFE00003FFF000000
00003FFC00001FFF000000
00007FF800000FFF800000
00007FF800000FFF800000
0000FFF0000007FFC00000
0001FFF0000007FFE00000
0001FFE0000003FFE00000
0003FFC01FFFFFFFF00000
0003FFC01FFFFFFFF00000
0007FF803FFFFFFFF80000
000FFF807FFFFFFFFC0000
000FFF007FFFFFFFFC0000
001FFF00FFFFFFFFFE0000
001FFE00FFFFFFFFFE0000
003FFC01FFFFFFFFFF0000
007FFC03FFFFFFFFFF8000
007FF8000000000FFF8000
00FFF8000000000FFFC000
00FFF00000000007FFC000
01FFE00000000003FFE000
03FFE00000000003FFF000
03FFC00000000001FFF000
07FFC00000000000FFF800
07FF800000000000FFF800
0FFF0000000000007FFC00
1FFF0000000000007FFE00
1FFE0000000000003FFE00
3FFE0000000000001FFF00
3FFC0000000000001FFF00
7FF80000000000000FFF80
FFF80000000000000FFFC0
ENDCHAR
STARTCHAR Adieresis
ENCODING 196
SWIDTH 989 0
DWIDTH 84 0
BBX 82 76 1 0
BITMAP
00000001E001E000000000
00000003F807F000000000
00000007F807F800000000
00000007F807F800000000
00000007FC07F800000000
00000007F807F800000000
00000003F807F000000000
00000001E001E000000000
0000000000000000000000
0000000000000000000000
0000000000000000000000
0000000000000000000000
0000000000000000000000
0000000001E00000000000
0000000007F80000000000
000000000FFC0000000000
000000000FFC0000000000
000000001FFE0000000000
000000001FFE0000000000
000000003FFF0000000000
000000007FFF8000000000
000000007FFF8000000000
00000000FFFFC000000000
00000000FFFFC000000000
00000001FFFFE000000000
00000003FFFFF000000000
00000003FFFFF000000000
00000007FFFFF800000000
00000007FFFFF800000000
0000000FFF7FFC00000000
0000001FFF3FFE00000000
0000001FFE3FFE00000000
0000003FFC1FFF00000000
0000003FFC1FFF00000000
0000007FF80FFF80000000
000000FFF807FFC0000000
000000FFF007FFC0000000
000001FFE003FFE0000000
000001FFE003FFE0000000
000003FFC001FFF0000000
000007FFC001FFF8000000
000007FF8000FFF8000000
00000FFF00007FFC000000
00000FFF00007FFC000000
00001FFE00003FFE000000
00003FFE00003FFF000000
00003FFC00001FFF000000
00007FF800000FFF800000
00007FF800000FFF800000
0000FFF0000007FFC00000
0001FFF0000007FFE00000
0001FFE0000003FFE00000
0003FFC01FFFFFFFF00000
0003FFC01FFFFFFFF00000
0007FF803FFFFFFFF80000
000FFF807FFFFFFFFC0000
000FFF007FFFFFFFFC0000
001FFF00FFFFFFFFFE0000
001FFE00FFFFFFFFFE0000
003FFC01FFFFFFFFFF0000
007FFC03FFFFFFFFFF8000
007FF8000000000FFF8000
00FFF8000000000FFFC000
00FFF00000000007FFC000
01FFE00000000003FFE000
03FFE00000000003FFF000
03FFC00000000001FFF000
07FFC00000000000FFF800
07FF800000000000FFF800
0FFF0000000000007FFC00
1FFF0000000000007FFE00
1FFE0000000000003FFE00
3FFE0000000000001FFF00
3FFC0000000000001FFF00
7FF80000000000000FFF80
FFF80000000000000FFFC0
ENDCHAR
STARTCHAR Aring
ENCODING 197
SWIDTH 989 0
DWIDTH 84 0
BBX 82 83 1 0
BITMAP
000000000FFC0000000000
000000003FFF0000000000
00000000FFFFC000000000
00000001F003C000000000
00000001E001E000000000
00000001C000E000000000
00000003C000F000000000
0000000380007000000000
0000000380007000000000
0000000380007000000000
00000003C000F000000000
00000001C000E000000000
00000001E001E000000000
00000000F003C000000000
00000000FFFF8000000000
000000003FFF0000000000
000000000FFC0000000000
0000000000000000000000
0000000000000000000000
0000000000000000000000
0000000001E00000000000
0000000007F80000000000
000000000FFC0000000000
000000000FFC0000000000
000000001FFE0000000000
000000001FFE0000000000
000000003FFF0000000000
000000007FFF8000000000
000000007FFF8000000000
00000000FFFFC000000000
00000000FFFFC000000000
00000001FFFFE000000000
00000003FFFFF000000000
00000003FFFFF000000000
00000007FFFFF800000000
00000007FFFFF800000000
0000000FFF7FFC00000000
0000001FFF3FFE00000000
0000001FFE3FFE00000000
0000003FFC1FFF00000000
0000003FFC1FFF00000000
0000007FF80FFF80000000
000000FFF807FFC0000000
000000FFF007FFC0000000
000001FFE003FFE0000000
000001FFE003FFE0000000
000003FFC001FFF0000000
000007FFC001FFF8000000
000007FF8000FFF8000000
00000FFF00007FFC000000
00000FFF00007FFC000000
00001FFE00003FFE000000
00003FFE00003FFF000000
00003FFC00001FFF000000
00007FF800000FFF800000
00007FF800000FFF800000
0000FFF0000007FFC00000
0001FFF0000007FFE00000
0001FFE0000003FFE00000
0003FFC01FFFFFFFF00000
0003FFC01FFFFFFFF00000
0007FF803FFFFFFFF80000
000FFF807FFFFFFFFC0000
000FFF007FFFFFFFFC0000
001FFF00FFFFFFFFFE0000
001FFE00FFFFFFFFFE0000
003FFC01FFFFFFFFFF0000
007FFC03FFFFFFFFFF8000
007FF8000000000FFF8000
00FFF8000000000FFFC000
00FFF00000000007FFC000
01FFE00000000003FFE000
03FFE00000000003FFF000
03FFC00000000001FFF000
07FFC00000000000FFF800
07FF800000000000FFF800
0FFF0000000000007FFC00
1FFF0000000000007FFE00
1FFE0000000000003FFE00
3FFE0000000000001FFF00
3FFC0000000000001FFF00
7FF80000000000000FFF80
FFF80000000000000FFFC0
ENDCHAR
STARTCHAR AE
ENCODING 198
SWIDTH 1345 0
DWIDTH 114 0
BBX 109 62 1 0
BITMAP
0000000007FFFFFFFFFFFFFFFFF8
000000000FFFFFFFFFFFFFFFFFF8
000000001FFFFFFFFFFFFFFFFFF8
000000003FFFFFFFFFFFFFFFFFF8
000000003FFFFFFFFFFFFFFFFFF8
000000007FFFFFFFFFFFFFFFFFF8
00000000FFFFFFFFFFFFFFFFFFF8
00000000FFFFFFFFFFFFFFFFFFF8
00000001FFFFFFFFFFFFFFFFFFF8
00000001FFFFFFFFFFFFFFFFFFF8
00000003FFFFFFFFFFFFFFFFFFF8
00000007FF80003FF00000000000
00000007FF00003FF00000000000
0000000FFF00003FF00000000000
0000000FFE00003FF00000000000
0000001FFE00003FF00000000000
0000001FFC00003FF00000000000
0000003FFC00003FF00000000000
0000007FF800003FF00000000000
0000007FF800003FF00000000000
000000FFF000003FF00000000000
000000FFE000003FF00000000000
000001FFE000003FF00000000000
000001FFC000003FF00000000000
000003FFC000003FF00000000000
000007FF8000003FF00000000000
000007FF8000003FF00FFFFFFFE0
00000FFF0000003FF00FFFFFFFE0
00000FFE0000003FF00FFFFFFFE0
00001FFE0000003FF00FFFFFFFE0
00003FFC0000003FF00FFFFFFFE0
00003FFC0000003FF00FFFFFFFE0
00007FF80000003FF00FFFFFFFE0
00007FF80000003FF00FFFFFFFE0
0000FFF00000003FF00FFFFFFFE0
0000FFE00000003FF00000000000
0001FFE00000003FF00000000000
0003FFC00000003FF00000000000
0003FFC01FFFFFFFF00000000000
0007FF803FFFFFFFF00000000000
0007FF807FFFFFFFF00000000000
000FFF007FFFFFFFF00000000000
001FFE00FFFFFFFFF00000000000
001FFE00FFFFFFFFF00000000000
003FFC01FFFFFFFFF00000000000
003FFC03FFFFFFFFF00000000000
007FF803FFFFFFFFF00000000000
007FF8000000003FF00000000000
00FFF0000000003FF00000000000
01FFE0000000003FF00000000000
01FFE0000000003FF00000000000
03FFC0000000003FFFFFFFFFFFF8
03FFC0000000003FFFFFFFFFFFF8
07FF80000000003FFFFFFFFFFFF8
07FF80000000003FFFFFFFFFFFF8
0FFF00000000003FFFFFFFFFFFF8
1FFE00000000003FFFFFFFFFFFF8
1FFE00000000003FFFFFFFFFFFF8
3FFC00000000003FFFFFFFFFFFF8
3FFC00000000003FFFFFFFFFFFF8
7FF800000000003FFFFFFFFFFFF8
FFF800000000003FFFFFFFFFFFF8
ENDCHAR
STARTCHAR Ccedilla
ENCODING 199
SWIDTH 829 0
DWIDTH 70 0
BBX 63 79 4 -17
BITMAP
000000FFFFFFFFFE
00000FFFFFFFFFFE
00007FFFFFFFFFFE
0001FFFFFFFFFFFE
0007FFFFFFFFFFFE
001FFFFFFFFFFFFE
003FFFFFFFFFFFFE
007FFFFFFFFFFFFE
00FFFFFFFFFFFFFE
01FFFFFFFFFFFFFE
03FFFFFFFFFFFFFE
07FFFF0000000000
07FFFC0000000000
0FFFF00000000000
1FFFC00000000000
1FFF800000000000
3FFF000000000000
3FFE000000000000
3FFC000000000000
7FF8000000000000
7FF8000000000000
7FF0000000000000
FFF0000000000000
FFF0000000000000
FFE0000000000000
FFE0000000000000
FFE0000000000000
FFE0000000000000
FFC0000000000000
FFC0000000000000
FFC0000000000000
FFC0000000000000
FFC0000000000000
FFC0000000000000
FFE0000000000000
FFE0000000000000
FFE0000000000000
FFE0000000000000
FFF0000000000000
7FF0000000000000
7FF0000000000000
7FF8000000000000
3FFC000000000000
3FFC000000000000
3FFE000000000000
1FFF000000000000
1FFF800000000000
0FFFC00000000000
07FFF00000000000
07FFFC0000000000
03FFFF0000000000
01FFFFFFFFFFFFFE
00FFFFFFFFFFFFFE
007FFFFFFFFFFFFE
003FFFFFFFFFFFFE
001FFFFFFFFFFFFE
000FFFFFFFFFFFFE
0003FFFFFFFFFFFE
0001FFFFFFFFFFFE
00007FFFFFFFFFFE
00000FFFFFFFFFFE
000000FFFFFFFFFE
0000000000000000
0000000000000000
0000000000000000
0000000000000000
0000001FFE000000
0000000FFC000000
0000000FFC000000
00000007F8000000
00000007F8000000
00000003F0000000
00000003F0000000
00000003E0000000
00000001E0000000
00000001C0000000
00000000C0000000
00000000C0000000
0000000080000000
ENDCHAR
STARTCHAR Egrave
ENCODING 200
SWIDTH 759 0
DWIDTH 65 0
BBX 56 77 5 0
BITMAP
00030000000000
0003F000000000
0003FE00000000
0003FFC0000000
0003FFFC000000
0003FFFF800000
0003FFFFF00000
00001FFFF00000
000001FFF00000
0000000FF00000
00000000F00000
00000000000000
00000000000000
00000000000000
00000000000000
FFFFFFFFFFFFFF
FFFFFFFFFFFFFF
FFFFFFFFFFFFFF
FFFFFFFFFFFFFF
FFFFFFFFFFFFFF
FFFFFFFFFFFFFF
FFFFFFFFFFFFFF
FFFFFFFFFFFFFF
FFFFFFFFFFFFFF
FFFFFFFFFFFFFF
FFFFFFFFFFFFFF
FFE00000000000
FFE00000000000
FFE00000000000
FFE00000000000
FFE00000000000
FFE00000000000
FFE00000000000
FFE00000000000
FFE00000000000
FFE00000000000
FFE00000000000
FFE00000000000
FFE00000000000
FFE00000000000
FFE00000000000
FFE01FFFFFFFF8
FFE01FFFFFFFF8
FFE01FFFFFFFF8
FFE01FFFFFFFF8
FFE01FFFFFFFF8
FFE01FFFFFFFF8
FFE01FFFFFFFF8
FFE01FFFFFFFF8
FFE01FFFFFFFF8
FFE00000000000
FFE00000000000
FFE00000000000
FFE00000000000
FFE00000000000
FFE00000000000
FFE00000000000
FFE00000000000
FFE00000000000
FFE00000000000
FFE00000000000
FFE00000000000
FFE00000000000
FFE00000000000
FFE00000000000
FFE00000000000
FFFFFFFFFFFFFF
FFFFFFFFFFFFFF
FFFFFFFFFFFFFF
FFFFFFFFFFFFFF
FFFFFFFFFFFFFF
FFFFFFFFFFFFFF
FFFFFFFFFFFFFF
FFFFFFFFFFFFFF
FFFFFFFFFFFFFF
FFFFFFFFFFFFFF
FFFFFFFFFFFFFF
ENDCHAR
STARTCHAR Eacute
ENCODING 201
SWIDTH 759 0
DWIDTH 65 0
BBX 56 77 5 0
BITMAP
00000000038000
000000001F8000
00000001FF8000
0000000FFF8000
0000007FFF8000
000003FFFF8000
00001FFFFF8000
00001FFFF00000
00001FFE000000
00001FE0000000
00001C00000000
00000000000000
00000000000000
00000000000000
00000000000000
FFFFFFFFFFFFFF
FFFFFFFFFFFFFF
FFFFFFFFFFFFFF
FFFFFFFFFFFFFF
FFFFFFFFFFFFFF
FFFFFFFFFFFFFF
FFFFFFFFFFFFFF
FFFFFFFFFFFFFF
FFFFFFFFFFFFFF
FFFFFFFFFFFFFF
FFFFFFFFFFFFFF
FFE00000000000
FFE00000000000
FFE00000000000
FFE00000000000
FFE00000000000
FFE00000000000
FFE00000000000
FFE00000000000
FFE00000000000
FFE00000000000
FFE00000000000
FFE00000000000
FFE00000000000
FFE00000000000
FFE00000000000
FFE01FFFFFFFF8
FFE01FFFFFFFF8
FFE01FFFFFFFF8
FFE01FFFFFFFF8
FFE01FFFFFFFF8
FFE01FFFFFFFF8
FFE01FFFFFFFF8
FFE01FFFFFFFF8
FFE01FFFFFFFF8
FFE00000000000
FFE00000000000
FFE00000000000
FFE00000000000
FFE00000000000
FFE00000000000
FFE00000000000
FFE00000000000
FFE00000000000
FFE00000000000
FFE00000000000
FFE00000000000
FFE00000000000
FFE00000000000
FFE00000000000
FFE00000000000
FFFFFFFFFFFFFF
FFFFFFFFFFFFFF
FFFFFFFFFFFFFF
FFFFFFFFFFFFFF
FFFFFFFFFFFFFF
FFFFFFFFFFFFFF
FFFFFFFFFFFFFF
FFFFFFFFFFFFFF
FFFFFFFFFFFFFF
FFFFFFFFFFFFFF
FFFFFFFFFFFFFF
ENDCHAR
STARTCHAR Ecircumflex
ENCODING 202
SWIDTH 759 0
DWIDTH 65 0
BBX 56 77 5 0
BITMAP
000001FE000000
000003FF000000
000003FF800000
000007EF800000
00000FC7C00000
00000F87E00000
00001F83F00000
00003F03F00000
00003E01F80000
00007E00FC0000
0000FC00FC0000
0000FC007E0000
00000000000000
00000000000000
00000000000000
FFFFFFFFFFFFFF
FFFFFFFFFFFFFF
FFFFFFFFFFFFFF
FFFFFFFFFFFFFF
FFFFFFFFFFFFFF
FFFFFFFFFFFFFF
FFFFFFFFFFFFFF
FFFFFFFFFFFFFF
FFFFFFFFFFFFFF
FFFFFFFFFFFFFF
FFFFFFFFFFFFFF
FFE00000000000
FFE00000000000
FFE00000000000
FFE00000000000
FFE00000000000
FFE00000000000
FFE00000000000
FFE00000000000
FFE00000000000
FFE00000000000
FFE00000000000
FFE00000000000
FFE00000000000
FFE00000000000
FFE00000000000
FFE01FFFFFFFF8
FFE01FFFFFFFF8
FFE01FFFFFFFF8
FFE01FFFFFFFF8
FFE01FFFFFFFF8
FFE01FFFFFFFF8
FFE01FFFFFFFF8
FFE01FFFFFFFF8
FFE01FFFFFFFF8
FFE00000000000
FFE00000000000
FFE00000000000
FFE00000000000
FFE00000000000
FFE00000000000
FFE00000000000
FFE00000000000
FFE00000000000
FFE00000000000
FFE00000000000
FFE00000000000
FFE00000000000
FFE00000000000
FFE00000000000
FFE00000000000
FFFFFFFFFFFFFF
FFFFFFFFFFFFFF
FFFFFFFFFFFFFF
FFFFFFFFFFFFFF
FFFFFFFFFFFFFF
FFFFFFFFFFFFFF
FFFFFFFFFFFFFF
FFFFFFFFFFFFFF
FFFFFFFFFFFFFF
FFFFFFFFFFFFFF
FFFFFFFFFFFFFF
ENDCHAR
STARTCHAR Edieresis
ENCODING 203
SWIDTH 759 0
DWIDTH 65 0
BBX 56 76 5 0
BITMAP
00007C00780000
0000FE00FE0000
0001FE01FE0000
0001FF01FE0000
0001FF01FE0000
0001FE01FE0000
0000FE00FE0000
00007C00780000
00000000000000
00000000000000
00000000000000
00000000000000
00000000000000
00000000000000
FFFFFFFFFFFFFF
FFFFFFFFFFFFFF
FFFFFFFFFFFFFF
FFFFFFFFFFFFFF
FFFFFFFFFFFFFF
FFFFFFFFFFFFFF
FFFFFFFFFFFFFF
FFFFFFFFFFFFFF
FFFFFFFFFFFFFF
FFFFFFFFFFFFFF
FFFFFFFFFFFFFF
FFE00000000000
FFE00000000000
FFE00000000000
FFE00000000000
FFE00000000000
FFE00000000000
FFE00000000000
FFE00000000000
FFE00000000000
FFE00000000000
FFE00000000000
FFE00000000000
FFE00000000000
FFE00000000000
FFE00000000000
FFE01FFFFFFFF8
FFE01FFFFFFFF8
FFE01FFFFFFFF8
FFE01FFFFFFFF8
FFE01FFFFFFFF8
FFE01FFFFFFFF8
FFE01FFFFFFFF8
FFE01FFFFFFFF8
FFE01FFFFFFFF8
FFE00000000000
FFE00000000000
FFE00000000000
FFE00000000000
FFE00000000000
FFE00000000000
FFE00000000000
FFE00000000000
FFE00000000000
FFE00000000000
FFE00000000000
FFE00000000000
FFE00000000000
FFE00000000000
FFE00000000000
FFE00000000000
FFFFFFFFFFFFFF
FFFFFFFFFFFFFF
FFFFFFFFFFFFFF
FFFFFFFFFFFFFF
FFFFFFFFFFFFFF
FFFFFFFFFFFFFF
FFFFFFFFFFFFFF
FFFFFFFFFFFFFF
FFFFFFFFFFFFFF
FFFFFFFFFFFFFF
FFFFFFFFFFFFFF
ENDCHAR
STARTCHAR Igrave
ENCODING 204
SWIDTH 267 0
DWIDTH 23 0
BBX 22 77 -2 0
BITMAP
E00000
FC0000
FF8000
FFF800
FFFF00
FFFFE0
FFFFFC
07FFFC
007FFC
0003FC
00001C
000000
000000
000000
000000
00FFE0
00FFE0
00FFE0
00FFE0
00FFE0
00FFE0
00FFE0
00FFE0
00FFE0
00FFE0
00FFE0
00FFE0
00FFE0
00FFE0
00FFE0
00FFE0
00FFE0
00FFE0
00FFE0
00FFE0
00FFE0
00FFE0
00FFE0
00FFE0
00FFE0
00FFE0
00FFE0
00FFE0
00FFE0
00FFE0
00FFE0
00FFE0
00FFE0
00FFE0
00FFE0
00FFE0
00FFE0
00FFE0
00FFE0
00FFE0
00FFE0
00FFE0
00FFE0
00FFE0
00FFE0
00FFE0
00FFE0
00FFE0
00FFE0
00FFE0
00FFE0
00FFE0
00FFE0
00FFE0
00FFE0
00FFE0
00FFE0
00FFE0
00FFE0
00FFE0
00FFE0
00FFE0
ENDCHAR
STARTCHAR Iacute
ENCODING 205
SWIDTH 267 0
DWIDTH 23 0
BBX 22 77 3 0
BITMAP
00001C
0000FC
0007FC
007FFC
03FFFC
1FFFFC
FFFFFC
FFFF80
FFF800
FF0000
E00000
000000
000000
000000
000000
1FFC00
1FFC00
1FFC00
1FFC00
1FFC00
1FFC00
1FFC00
1FFC00
1FFC00
1FFC00
1FFC00
1FFC00
1FFC00
1FFC00
1FFC00
1FFC00
1FFC00
1FFC00
1FFC00
1FFC00
1FFC00
1FFC00
1FFC00
1FFC00
1FFC00
1FFC00
1FFC00
1FFC00
1FFC00
1FFC00
1FFC00
1FFC00
1FFC00
1FFC00
1FFC00
1FFC00
1FFC00
1FFC00
1FFC00
1FFC00
1FFC00
1FFC00
1FFC00
1FFC00
1FFC00
1FFC00
1FFC00
1FFC00
1FFC00
1FFC00
1FFC00
1FFC00
1FFC00
1FFC00
1FFC00
1FFC00
1FFC00
1FFC00
1FFC00
1FFC00
1FFC00
1FFC00
ENDCHAR
STARTCHAR Icircumflex
ENCODING 206
SWIDTH 267 0
DWIDTH 23 0
BBX 23 77 0 0
BITMAP
01FF00
01FF00
03FF80
07EFC0
07C7C0
0F87E0
1F83F0
1F01F0
3F01F8
7E00FC
FC00FC
FC007E
000000
000000
000000
03FF80
03FF80
03FF80
03FF80
03FF80
03FF80
03FF80
03FF80
03FF80
03FF80
03FF80
03FF80
03FF80
03FF80
03FF80
03FF80
03FF80
03FF80
03FF80
03FF80
03FF80
03FF80
03FF80
03FF80
03FF80
03FF80
03FF80
03FF80
03FF80
03FF80
03FF80
03FF80
03FF80
03FF80
03FF80
03FF80
03FF80
03FF80
03FF80
03FF80
03FF80
03FF80
03FF80
03FF80
03FF80
03FF80
03FF80
03FF80
03FF80
03FF80
03FF80
03FF80
03FF80
03FF80
03FF80
03FF80
03FF80
03FF80
03FF80
03FF80
03FF80
03FF80
ENDCHAR
STARTCHAR Idieresis
ENCODING 207
SWIDTH 267 0
DWIDTH 23 0
BBX 25 76 -1 0
BITMAP
3E003E00
7F007F00
FF80FF00
FF80FF80
FF80FF80
FF80FF00
7F007F00
3E003E00
00000000
00000000
00000000
00000000
00000000
00000000
01FFC000
01FFC000
01FFC000
01FFC000
01FFC000
01FFC000
01FFC000
01FFC000
01FFC000
01FFC000
01FFC000
01FFC000
01FFC000
01FFC000
01FFC000
01FFC000
01FFC000
01FFC000
01FFC000
01FFC000
01FFC000
01FFC000
01FFC000
01FFC000
01FFC000
01FFC000
01FFC000
01FFC000
01FFC000
01FFC000
01FFC000
01FFC000
01FFC000
01FFC000
01FFC000
01FFC000
01FFC000
01FFC000
01FFC000
01FFC000
01FFC000
01FFC000
01FFC000
01FFC000
01FFC000
01FFC000
01FFC000
01FFC000
01FFC000
01FFC000
01FFC000
01FFC000
01FFC000
01FFC000
01FFC000
01FFC000
01FFC000
01FFC000
01FFC000
01FFC000
01FFC000
01FFC000
ENDCHAR
STARTCHAR Eth
ENCODING 208
SWIDTH 877 0
DWIDTH 75 0
BBX 70 62 1 0
BITMAP
0FFFFFFFFFFC000000
0FFFFFFFFFFFC00000
0FFFFFFFFFFFF80000
0FFFFFFFFFFFFE0000
0FFFFFFFFFFFFF8000
0FFFFFFFFFFFFFC000
0FFFFFFFFFFFFFE000
0FFFFFFFFFFFFFF800
0FFFFFFFFFFFFFFC00
0FFFFFFFFFFFFFFE00
0FFFFFFFFFFFFFFE00
0FFE00000007FFFF00
0FFE00000000FFFF80
0FFE000000003FFFC0
0FFE000000001FFFC0
0FFE0000000007FFE0
0FFE0000000003FFE0
0FFE0000000001FFF0
0FFE0000000001FFF0
0FFE0000000000FFF0
0FFE00000000007FF8
0FFE00000000007FF8
0FFE00000000003FF8
0FFE00000000003FF8
0FFE00000000003FFC
0FFE00000000001FFC
FFFFFFFFFE00001FFC
FFFFFFFFFE00001FFC
FFFFFFFFFE00001FFC
FFFFFFFFFE00001FFC
FFFFFFFFFE00001FFC
FFFFFFFFFE00001FFC
FFFFFFFFFE00001FFC
FFFFFFFFFE00001FFC
FFFFFFFFFE00001FFC
0FFE00000000001FFC
0FFE00000000001FFC
0FFE00000000003FF8
0FFE00000000003FF8
0FFE00000000003FF8
0FFE00000000007FF8
0FFE00000000007FF0
0FFE0000000000FFF0
0FFE0000000001FFF0
0FFE0000000001FFE0
0FFE0000000003FFE0
0FFE0000000007FFC0
0FFE000000001FFFC0
0FFE000000003FFF80
0FFE00000000FFFF00
0FFE00000007FFFF00
0FFFFFFFFFFFFFFE00
0FFFFFFFFFFFFFFC00
0FFFFFFFFFFFFFF800
0FFFFFFFFFFFFFF000
0FFFFFFFFFFFFFE000
0FFFFFFFFFFFFFC000
0FFFFFFFFFFFFF0000
0FFFFFFFFFFFFC0000
0FFFFFFFFFFFF00000
0FFFFFFFFFFFC00000
0FFFFFFFFFFC000000
ENDCHAR
STARTCHAR Ntilde
ENCODING 209
SWIDTH 873 0
DWIDTH 74 0
BBX 64 76 5 0
BITMAP
000000FC00200000
000003FF00200000
000007FFC0E00000
000007FFFFE00000
000007FFFFE00000
00000707FFE00000
00000400FFC00000
000004003F000000
0000000000000000
0000000000000000
0000000000000000
0000000000000000
0000000000000000
0000000000000000
1F000000000003FF
3F800000000003FF
7FE00000000003FF
7FF00000000003FF
FFF80000000003FF
FFFC0000000003FF
FFFE0000000003FF
FFFF0000000003FF
FFFF8000000003FF
FFFFC000000003FF
FFFFE000000003FF
FFFFF000000003FF
FFFFF800000003FF
FFFFFC00000003FF
FFFFFE00000003FF
FFFFFF00000003FF
FFFFFF80000003FF
FFDFFFC0000003FF
FFCFFFE0000003FF
FFC7FFF0000003FF
FFC3FFF8000003FF
FFC1FFFC000003FF
FFC0FFFE000003FF
FFC07FFF000003FF
FFC03FFF800003FF
FFC01FFFC00003FF
FFC00FFFE00003FF
FFC007FFF00003FF
FFC003FFF80003FF
FFC001FFFC0003FF
FFC000FFFE0003FF
FFC0007FFF0003FF
FFC0003FFF8003FF
FFC0001FFFC003FF
FFC0000FFFE003FF
FFC00007FFF003FF
FFC00003FFF803FF
FFC00001FFFC03FF
FFC00000FFFE03FF
FFC000007FFF03FF
FFC000003FFF83FF
FFC000001FFFC3FF
FFC000000FFFE3FF
FFC0000007FFF3FF
FFC0000003FFFBFF
FFC0000001FFFFFF
FFC0000000FFFFFF
FFC00000007FFFFF
FFC00000003FFFFF
FFC00000001FFFFF
FFC00000000FFFFF
FFC000000007FFFF
FFC000000003FFFF
FFC000000001FFFF
FFC000000000FFFF
FFC0000000007FFF
FFC0000000003FFF
FFC0000000001FFF
FFC00000000007FF
FFC00000000003FE
FFC00000000001FC
FFC00000000000F8
ENDCHAR
STARTCHAR Ograve
ENCODING 210
SWIDTH 968 0
DWIDTH 82 0
BBX 75 77 4 0
BITMAP
000000C0000000000000
000000FC000000000000
000000FF800000000000
000000FFF00000000000
000000FFFF0000000000
000000FFFFE000000000
000000FFFFF800000000
0000000FFFF800000000
000000007FF800000000
0000000003F800000000
00000000003800000000
00000000000000000000
00000000000000000000
00000000000000000000
00000000000000000000
000000FFFFFFE0000000
00000FFFFFFFFE000000
00007FFFFFFFFFC00000
0001FFFFFFFFFFF00000
0007FFFFFFFFFFF80000
001FFFFFFFFFFFFE0000
003FFFFFFFFFFFFF0000
007FFFFFFFFFFFFF8000
00FFFFFFFFFFFFFFE000
01FFFFFFFFFFFFFFE000
03FFFFFFFFFFFFFFF000
07FFFF0000003FFFF800
07FFFC00000007FFFC00
0FFFF000000001FFFC00
1FFFC000000000FFFE00
1FFF80000000003FFF00
3FFF00000000001FFF00
3FFE00000000000FFF00
3FFC00000000000FFF80
7FF8000000000007FF80
7FF8000000000003FF80
7FF0000000000003FFC0
FFF0000000000003FFC0
FFF0000000000001FFC0
FFE0000000000001FFC0
FFE0000000000001FFE0
FFE0000000000000FFE0
FFE0000000000000FFE0
FFC0000000000000FFE0
FFC0000000000000FFE0
FFC0000000000000FFE0
FFC0000000000000FFE0
FFC0000000000000FFE0
FFC0000000000000FFE0
FFE0000000000000FFE0
FFE0000000000000FFE0
FFE0000000000001FFC0
FFE0000000000001FFC0
FFF0000000000001FFC0
7FF0000000000003FFC0
7FF0000000000003FF80
7FF8000000000007FF80
3FFC000000000007FF80
3FFC00000000000FFF00
3FFE00000000001FFF00
1FFF00000000001FFF00
1FFF80000000007FFE00
0FFFC000000000FFFC00
07FFF000000001FFFC00
07FFFC00000007FFF800
03FFFF0000003FFFF000
01FFFFFFFFFFFFFFF000
00FFFFFFFFFFFFFFE000
007FFFFFFFFFFFFFC000
003FFFFFFFFFFFFF8000
001FFFFFFFFFFFFE0000
000FFFFFFFFFFFFC0000
0003FFFFFFFFFFF80000
0001FFFFFFFFFFE00000
00007FFFFFFFFF800000
00000FFFFFFFFC000000
000000FFFFFFE0000000
ENDCHAR
STARTCHAR Oacute
ENCODING 211
SWIDTH 968 0
DWIDTH 82 0
BBX 75 77 4 0
BITMAP
000000000000E0000000
000000000007E0000000
00000000007FE0000000
0000000003FFE0000000
000000001FFFE0000000
00000001FFFFE0000000
00000007FFFFC0000000
00000007FFFC00000000
00000007FF8000000000
00000007F80000000000
00000007000000000000
00000000000000000000
00000000000000000000
00000000000000000000
00000000000000000000
000000FFFFFFE0000000
00000FFFFFFFFE000000
00007FFFFFFFFFC00000
0001FFFFFFFFFFF00000
0007FFFFFFFFFFF80000
001FFFFFFFFFFFFE0000
003FFFFFFFFFFFFF0000
007FFFFFFFFFFFFF8000
00FFFFFFFFFFFFFFE000
01FFFFFFFFFFFFFFE000
03FFFFFFFFFFFFFFF000
07FFFF0000003FFFF800
07FFFC00000007FFFC00
0FFFF000000001FFFC00
1FFFC000000000FFFE00
1FFF80000000003FFF00
3FFF00000000001FFF00
3FFE00000000000FFF00
3FFC00000000000FFF80
7FF8000000000007FF80
7FF8000000000003FF80
7FF0000000000003FFC0
FFF0000000000003FFC0
FFF0000000000001FFC0
FFE0000000000001FFC0
FFE0000000000001FFE0
FFE0000000000000FFE0
FFE0000000000000FFE0
FFC0000000000000FFE0
FFC0000000000000FFE0
FFC0000000000000FFE0
FFC0000000000000FFE0
FFC0000000000000FFE0
FFC0000000000000FFE0
FFE0000000000000FFE0
FFE0000000000000FFE0
FFE0000000000001FFC0
FFE0000000000001FFC0
FFF0000000000001FFC0
7FF0000000000003FFC0
7FF0000000000003FF80
7FF8000000000007FF80
3FFC000000000007FF80
3FFC00000000000FFF00
3FFE00000000001FFF00
1FFF00000000001FFF00
1FFF80000000007FFE00
0FFFC000000000FFFC00
07FFF000000001FFFC00
07FFFC00000007FFF800
03FFFF0000003FFFF000
01FFFFFFFFFFFFFFF000
00FFFFFFFFFFFFFFE000
007FFFFFFFFFFFFFC000
003FFFFFFFFFFFFF8000
001FFFFFFFFFFFFE0000
000FFFFFFFFFFFFC0000
0003FFFFFFFFFFF80000
0001FFFFFFFFFFE00000
00007FFFFFFFFF800000
00000FFFFFFFFC000000
000000FFFFFFE0000000
ENDCHAR
STARTCHAR Ocircumflex
ENCODING 212
SWIDTH 968 0
DWIDTH 82 0
BBX 75 77 4 0
BITMAP
000000007F8000000000
00000000FFC000000000
00000000FFE000000000
00000001F3E000000000
00000003F3F000000000
00000003E1F800000000
00000007E0F800000000
0000000FC0FC00000000
0000001F807E00000000
0000001F807E00000000
0000003F003F00000000
0000007E001F80000000
00000000000000000000
00000000000000000000
00000000000000000000
000000FFFFFFE0000000
00000FFFFFFFFE000000
00007FFFFFFFFFC00000
0001FFFFFFFFFFF00000
0007FFFFFFFFFFF80000
001FFFFFFFFFFFFE0000
003FFFFFFFFFFFFF0000
007FFFFFFFFFFFFF8000
00FFFFFFFFFFFFFFE000
01FFFFFFFFFFFFFFE000
03FFFFFFFFFFFFFFF000
07FFFF0000003FFFF800
07FFFC00000007FFFC00
0FFFF000000001FFFC00
1FFFC000000000FFFE00
1FFF80000000003FFF00
3FFF00000000001FFF00
3FFE00000000000FFF00
3FFC00000000000FFF80
7FF8000000000007FF80
7FF8000000000003FF80
7FF0000000000003FFC0
FFF0000000000003FFC0
FFF0000000000001FFC0
FFE0000000000001FFC0
FFE0000000000001FFE0
FFE0000000000000FFE0
FFE0000000000000FFE0
FFC0000000000000FFE0
FFC0000000000000FFE0
FFC0000000000000FFE0
FFC0000000000000FFE0
FFC0000000000000FFE0
FFC0000000000000FFE0
FFE0000000000000FFE0
FFE0000000000000FFE0
FFE0000000000001FFC0
FFE0000000000001FFC0
FFF0000000000001FFC0
7FF0000000000003FFC0
7FF0000000000003FF80
7FF8000000000007FF80
3FFC000000000007FF80
3FFC00000000000FFF00
3FFE00000000001FFF00
1FFF00000000001FFF00
1FFF80000000007FFE00
0FFFC000000000FFFC00
07FFF000000001FFFC00
07FFFC00000007FFF800
03FFFF0000003FFFF000
01FFFFFFFFFFFFFFF000
00FFFFFFFFFFFFFFE000
007FFFFFFFFFFFFFC000
003FFFFFFFFFFFFF8000
001FFFFFFFFFFFFE0000
000FFFFFFFFFFFFC0000
0003FFFFFFFFFFF80000
0001FFFFFFFFFFE00000
00007FFFFFFFFF800000
00000FFFFFFFFC000000
000000FFFFFFE0000000
ENDCHAR
STARTCHAR Otilde
ENCODING 213
SWIDTH 968 0
DWIDTH 82 0
BBX 75 76 4 0
BITMAP
00000007E00100000000
0000001FF80100000000
0000003FFF0700000000
0000003FFFFF00000000
0000003FFFFF00000000
000000381FFF00000000
0000002007FE00000000
0000002001FC00000000
00000000000000000000
00000000000000000000
00000000000000000000
00000000000000000000
00000000000000000000
00000000000000000000
000000FFFFFFE0000000
00000FFFFFFFFE000000
00007FFFFFFFFFC00000
0001FFFFFFFFFFF00000
0007FFFFFFFFFFF80000
001FFFFFFFFFFFFE0000
003FFFFFFFFFFFFF0000
007FFFFFFFFFFFFF8000
00FFFFFFFFFFFFFFE000
01FFFFFFFFFFFFFFE000
03FFFFFFFFFFFFFFF000
07FFFF0000003FFFF800
07FFFC00000007FFFC00
0FFFF000000001FFFC00
1FFFC000000000FFFE00
1FFF80000000003FFF00
3FFF00000000001FFF00
3FFE00000000000FFF00
3FFC00000000000FFF80
7FF8000000000007FF80
7FF8000000000003FF80
7FF0000000000003FFC0
FFF0000000000003FFC0
FFF0000000000001FFC0
FFE0000000000001FFC0
FFE0000000000001FFE0
FFE0000000000000FFE0
FFE0000000000000FFE0
FFC0000000000000FFE0
FFC0000000000000FFE0
FFC0000000000000FFE0
FFC0000000000000FFE0
FFC0000000000000FFE0
FFC0000000000000FFE0
FFE0000000000000FFE0
FFE0000000000000FFE0
FFE0000000000001FFC0
FFE0000000000001FFC0
FFF0000000000001FFC0
7FF0000000000003FFC0
7FF0000000000003FF80
7FF8000000000007FF80
3FFC000000000007FF80
3FFC00000000000FFF00
3FFE00000000001FFF00
1FFF00000000001FFF00
1FFF80000000007FFE00
0FFFC000000000FFFC00
07FFF000000001FFFC00
07FFFC00000007FFF800
03FFFF0000003FFFF000
01FFFFFFFFFFFFFFF000
00FFFFFFFFFFFFFFE000
007FFFFFFFFFFFFFC000
003FFFFFFFFFFFFF8000
001FFFFFFFFFFFFE0000
000FFFFFFFFFFFFC0000
0003FFFFFFFFFFF80000
0001FFFFFFFFFFE00000
00007FFFFFFFFF800000
00000FFFFFFFFC000000
000000FFFFFFE0000000
ENDCHAR
STARTCHAR Odieresis
ENCODING 214
SWIDTH 968 0
DWIDTH 82 0
BBX 75 76 4 0
BITMAP
0000001E001E00000000
0000003F807F00000000
0000007F807F80000000
0000007FC07F80000000
0000007FC07F80000000
0000007F807F80000000
0000003F807F00000000
0000001F001E00000000
00000000000000000000
00000000000000000000
00000000000000000000
00000000000000000000
00000000000000000000
00000000000000000000
000000FFFFFFE0000000
00000FFFFFFFFE000000
00007FFFFFFFFFC00000
0001FFFFFFFFFFF00000
0007FFFFFFFFFFF80000
001FFFFFFFFFFFFE0000
003FFFFFFFFFFFFF0000
007FFFFFFFFFFFFF8000
00FFFFFFFFFFFFFFE000
01FFFFFFFFFFFFFFE000
03FFFFFFFFFFFFFFF000
07FFFF0000003FFFF800
07FFFC00000007FFFC00
0FFFF000000001FFFC00
1FFFC000000000FFFE00
1FFF80000000003FFF00
3FFF00000000001FFF00
3FFE00000000000FFF00
3FFC00000000000FFF80
7FF8000000000007FF80
7FF8000000000003FF80
7FF0000000000003FFC0
FFF0000000000003FFC0
FFF0000000000001FFC0
FFE0000000000001FFC0
FFE0000000000001FFE0
FFE0000000000000FFE0
FFE0000000000000FFE0
FFC0000000000000FFE0
FFC0000000000000FFE0
FFC0000000000000FFE0
FFC0000000000000FFE0
FFC0000000000000FFE0
FFC0000000000000FFE0
FFE0000000000000FFE0
FFE0000000000000FFE0
FFE0000000000001FFC0
FFE0000000000001FFC0
FFF0000000000001FFC0
7FF0000000000003FFC0
7FF0000000000003FF80
7FF8000000000007FF80
3FFC000000000007FF80
3FFC00000000000FFF00
3FFE00000000001FFF00
1FFF00000000001FFF00
1FFF80000000007FFE00
0FFFC000000000FFFC00
07FFF000000001FFFC00
07FFFC00000007FFF800
03FFFF0000003FFFF000
01FFFFFFFFFFFFFFF000
00FFFFFFFFFFFFFFE000
007FFFFFFFFFFFFFC000
003FFFFFFFFFFFFF8000
001FFFFFFFFFFFFE0000
000FFFFFFFFFFFFC0000
0003FFFFFFFFFFF80000
0001FFFFFFFFFFE00000
00007FFFFFFFFF800000
00000FFFFFFFFC000000
000000FFFFFFE0000000
ENDCHAR
STARTCHAR multiply
ENCODING 215
SWIDTH 690 0
DWIDTH 59 0
BBX 39 39 10 12
BITMAP
0C00000040
1E000000E0
3F000001F0
7F800003F8
FFC00007FC
FFE0000FFE
7FF0001FF8
3FF8003FF0
1FFC007FE0
0FFE00FFC0
07FF01FF80
03FF83FF00
01FFC7FE00
00FFEFFC00
007FFFF800
003FFFF000
001FFFE000
000FFFC000
0007FF8000
0003FF0000
0007FF8000
000FFFC000
001FFFE000
003FFFF000
007FFFF800
00FFCFFC00
01FF87FE00
03FF03FF00
07FE01FF80
0FFC00FFC0
1FF8007FE0
3FF0003FF0
7FE0001FF8
FFC0000FFE
FF800007FC
7F000003F8
3E000001F0
1C000000E0
0800000040
ENDCHAR
STARTCHAR Oslash
ENCODING 216
SWIDTH 968 0
DWIDTH 82 0
BBX 75 70 4 -4
BITMAP
00000000000000008000
0000000000000001E000
0000000000000003F000
0000000000000003E000
000000FFFFFFE007C000
00000FFFFFFFFE0FC000
00007FFFFFFFFF9F8000
0001FFFFFFFFFFFF0000
0007FFFFFFFFFFFE0000
001FFFFFFFFFFFFE0000
003FFFFFFFFFFFFF0000
007FFFFFFFFFFFFF8000
00FFFFFFFFFFFFFFC000
01FFFFFFFFFFFFFFE000
03FFFFFFFFFFFFFFF000
07FFFF0000003FFFF800
07FFFC0000001FFFFC00
0FFFF00000003FFFFC00
1FFFC00000007EFFFE00
1FFF80000000FC3FFE00
3FFF00000001F81FFF00
3FFE00000003F00FFF00
3FFC00000003E00FFF80
7FF800000007C007FF80
7FF80000000F8003FF80
7FF00000001F8003FFC0
FFF00000003F0001FFC0
FFF00000007E0001FFC0
FFE0000000FC0001FFC0
FFE0000000F80001FFE0
FFE0000001F00000FFE0
FFE0000003F00000FFE0
FFC0000007E00000FFE0
FFC000000FC00000FFE0
FFC000001F800000FFE0
FFC000001F000000FFE0
FFC000003E000000FFE0
FFC000007E000000FFE0
FFE00000FC000000FFE0
FFE00001F8000000FFE0
FFE00003F0000001FFC0
FFE00007E0000001FFC0
FFF00007C0000001FFC0
7FF0000F80000003FFC0
7FF0001F80000003FF80
7FF8003F00000007FF80
3FFC007E00000007FF80
3FFC00FC0000000FFF00
3FFE01F80000001FFF00
1FFF01F00000001FFE00
1FFF83F00000007FFE00
0FFFC7E0000000FFFC00
07FFFFC0000001FFFC00
07FFFF80000007FFF800
03FFFF0000003FFFF000
01FFFFFFFFFFFFFFF000
00FFFFFFFFFFFFFFE000
007FFFFFFFFFFFFFC000
003FFFFFFFFFFFFF8000
001FFFFFFFFFFFFF0000
000FFFFFFFFFFFFC0000
0007FFFFFFFFFFF80000
000FFFFFFFFFFFE00000
001F7FFFFFFFFF800000
003F0FFFFFFFFC000000
007E00FFFFFFE0000000
00FC0000000000000000
00F80000000000000000
00700000000000000000
00200000000000000000
ENDCHAR
STARTCHAR Ugrave
ENCODING 217
SWIDTH 889 0
DWIDTH 76 0
BBX 67 78 4 -1
BITMAP
00000E000000000000
00000FC00000000000
00000FFC0000000000
00000FFF8000000000
00000FFFF000000000
00000FFFFE00000000
00000FFFFFC0000000
0000007FFFC0000000
00000003FFC0000000
000000003FC0000000
0000000001C0000000
000000000000000000
000000000000000000
000000000000000000
000000000000000000
FFF000000000007FE0
FFF000000000007FE0
FFF000000000007FE0
FFF000000000007FE0
FFF000000000007FE0
FFF000000000007FE0
FFF000000000007FE0
FFF000000000007FE0
FFF000000000007FE0
FFF000000000007FE0
FFF000000000007FE0
FFF000000000007FE0
FFF000000000007FE0
FFF000000000007FE0
FFF000000000007FE0
FFF000000000007FE0
FFF000000000007FE0
FFF000000000007FE0
FFF000000000007FE0
FFF000000000007FE0
FFF000000000007FE0
FFF000000000007FE0
FFF000000000007FE0
FFF000000000007FE0
FFF000000000007FE0
FFF000000000007FE0
FFF000000000007FE0
FFF000000000007FE0
FFF000000000007FE0
FFF000000000007FE0
FFF000000000007FE0
FFF000000000007FE0
FFF000000000007FE0
FFF000000000007FE0
FFF000000000007FE0
FFF000000000007FE0
FFF000000000007FE0
FFF00000000000FFE0
7FF00000000000FFE0
7FF00000000000FFE0
7FF00000000000FFE0
7FF00000000000FFE0
7FF80000000001FFE0
7FF80000000001FFC0
7FFC0000000001FFC0
3FFC0000000003FFC0
3FFE0000000007FFC0
3FFF000000000FFF80
1FFF800000001FFF80
1FFFE00000003FFF00
0FFFF8000001FFFF00
0FFFFF80001FFFFE00
07FFFFFFFFFFFFFE00
03FFFFFFFFFFFFFC00
01FFFFFFFFFFFFF800
00FFFFFFFFFFFFF000
007FFFFFFFFFFFE000
003FFFFFFFFFFFC000
000FFFFFFFFFFF0000
0007FFFFFFFFFC0000
0000FFFFFFFFF00000
00001FFFFFFF000000
0000007FFFE0000000
ENDCHAR
STARTCHAR Uacute
ENCODING 218
SWIDTH 889 0
DWIDTH 76 0
BBX 67 78 4 -1
BITMAP
000000000006000000
00000000007E000000
0000000003FE000000
000000001FFE000000
00000001FFFE000000
0000000FFFFE000000
0000007FFFFE000000
0000007FFFC0000000
0000007FFC00000000
0000007F8000000000
000000700000000000
000000000000000000
000000000000000000
000000000000000000
000000000000000000
FFF000000000007FE0
FFF000000000007FE0
FFF000000000007FE0
FFF000000000007FE0
FFF000000000007FE0
FFF000000000007FE0
FFF000000000007FE0
FFF000000000007FE0
FFF000000000007FE0
FFF000000000007FE0
FFF000000000007FE0
FFF000000000007FE0
FFF000000000007FE0
FFF000000000007FE0
FFF000000000007FE0
FFF000000000007FE0
FFF000000000007FE0
FFF000000000007FE0
FFF000000000007FE0
FFF000000000007FE0
FFF000000000007FE0
FFF000000000007FE0
FFF000000000007FE0
FFF000000000007FE0
FFF000000000007FE0
FFF000000000007FE0
FFF000000000007FE0
FFF000000000007FE0
FFF000000000007FE0
FFF000000000007FE0
FFF000000000007FE0
FFF000000000007FE0
FFF000000000007FE0
FFF000000000007FE0
FFF000000000007FE0
FFF000000000007FE0
FFF000000000007FE0
FFF00000000000FFE0
7FF00000000000FFE0
7FF00000000000FFE0
7FF00000000000FFE0
7FF00000000000FFE0
7FF80000000001FFE0
7FF80000000001FFC0
7FFC0000000001FFC0
3FFC0000000003FFC0
3FFE0000000007FFC0
3FFF000000000FFF80
1FFF800000001FFF80
1FFFE00000003FFF00
0FFFF8000001FFFF00
0FFFFF80001FFFFE00
07FFFFFFFFFFFFFE00
03FFFFFFFFFFFFFC00
01FFFFFFFFFFFFF800
00FFFFFFFFFFFFF000
007FFFFFFFFFFFE000
003FFFFFFFFFFFC000
000FFFFFFFFFFF0000
0007FFFFFFFFFC0000
0000FFFFFFFFF00000
00001FFFFFFF000000
0000007FFFE0000000
ENDCHAR
STARTCHAR Ucircumflex
ENCODING 219
SWIDTH 889 0
DWIDTH 76 0
BBX 67 78 4 -1
BITMAP
00000003FC00000000
00000007FE00000000
0000000FFE00000000
0000000FBF00000000
0000001F1F80000000
0000003F0F80000000
0000003E0FC0000000
0000007E07E0000000
000000FC03E0000000
000000F803F0000000
000001F801F8000000
000003F001F8000000
000000000000000000
000000000000000000
000000000000000000
FFF000000000007FE0
FFF000000000007FE0
FFF000000000007FE0
FFF000000000007FE0
FFF000000000007FE0
FFF000000000007FE0
FFF000000000007FE0
FFF000000000007FE0
FFF000000000007FE0
FFF000000000007FE0
FFF000000000007FE0
FFF000000000007FE0
FFF000000000007FE0
FFF000000000007FE0
FFF000000000007FE0
FFF000000000007FE0
FFF000000000007FE0
FFF000000000007FE0
FFF000000000007FE0
FFF000000000007FE0
FFF000000000007FE0
FFF000000000007FE0
FFF000000000007FE0
FFF000000000007FE0
FFF000000000007FE0
FFF000000000007FE0
FFF000000000007FE0
FFF000000000007FE0
FFF000000000007FE0
FFF000000000007FE0
FFF000000000007FE0
FFF000000000007FE0
FFF000000000007FE0
FFF000000000007FE0
FFF000000000007FE0
FFF000000000007FE0
FFF000000000007FE0
FFF00000000000FFE0
7FF00000000000FFE0
7FF00000000000FFE0
7FF00000000000FFE0
7FF00000000000FFE0
7FF80000000001FFE0
7FF80000000001FFC0
7FFC0000000001FFC0
3FFC0000000003FFC0
3FFE0000000007FFC0
3FFF000000000FFF80
1FFF800000001FFF80
1FFFE00000003FFF00
0FFFF8000001FFFF00
0FFFFF80001FFFFE00
07FFFFFFFFFFFFFE00
03FFFFFFFFFFFFFC00
01FFFFFFFFFFFFF800
00FFFFFFFFFFFFF000
007FFFFFFFFFFFE000
003FFFFFFFFFFFC000
000FFFFFFFFFFF0000
0007FFFFFFFFFC0000
0000FFFFFFFFF00000
00001FFFFFFF000000
0000007FFFE0000000
ENDCHAR
STARTCHAR Udieresis
ENCODING 220
SWIDTH 889 0
DWIDTH 76 0
BBX 67 77 4 -1
BITMAP
000000F001F0000000
000003F803F8000000
000003FC03FC000000
000003FC07FC000000
000003FC07FC000000
000003FC03FC000000
000003F803F8000000
000000F001F0000000
000000000000000000
000000000000000000
000000000000000000
000000000000000000
000000000000000000
000000000000000000
FFF000000000007FE0
FFF000000000007FE0
FFF000000000007FE0
FFF000000000007FE0
FFF000000000007FE0
FFF000000000007FE0
FFF000000000007FE0
FFF000000000007FE0
FFF000000000007FE0
FFF000000000007FE0
FFF000000000007FE0
FFF000000000007FE0
FFF000000000007FE0
FFF000000000007FE0
FFF000000000007FE0
FFF000000000007FE0
FFF000000000007FE0
FFF000000000007FE0
FFF000000000007FE0
FFF000000000007FE0
FFF000000000007FE0
FFF000000000007FE0
FFF000000000007FE0
FFF000000000007FE0
FFF000000000007FE0
FFF000000000007FE0
FFF000000000007FE0
FFF000000000007FE0
FFF000000000007FE0
FFF000000000007FE0
FFF000000000007FE0
FFF000000000007FE0
FFF000000000007FE0
FFF000000000007FE0
FFF000000000007FE0
FFF000000000007FE0
FFF000000000007FE0
FFF00000000000FFE0
7FF00000000000FFE0
7FF00000000000FFE0
7FF00000000000FFE0
7FF00000000000FFE0
7FF80000000001FFE0
7FF80000000001FFC0
7FFC0000000001FFC0
3FFC0000000003FFC0
3FFE0000000007FFC0
3FFF000000000FFF80
1FFF800000001FFF80
1FFFE00000003FFF00
0FFFF8000001FFFF00
0FFFFF80001FFFFE00
07FFFFFFFFFFFFFE00
03FFFFFFFFFFFFFC00
01FFFFFFFFFFFFF800
00FFFFFFFFFFFFF000
007FFFFFFFFFFFE000
003FFFFFFFFFFFC000
000FFFFFFFFFFF0000
0007FFFFFFFFFC0000
0000FFFFFFFFF00000
00001FFFFFFF000000
0000007FFFE0000000
ENDCHAR
STARTCHAR Yacute
ENCODING 221
SWIDTH 926 0
DWIDTH 79 0
BBX 77 77 1 0
BITMAP
00000000000030000000
000000000003F0000000
00000000001FF0000000
0000000000FFF0000000
000000000FFFF0000000
000000007FFFF0000000
00000003FFFFF0000000
00000003FFFE00000000
00000003FFE000000000
00000003FC0000000000
00000003800000000000
00000000000000000000
00000000000000000000
00000000000000000000
00000000000000000000
FFFE000000000003FFF8
7FFF000000000003FFE0
3FFF800000000007FFE0
1FFFC0000000000FFFC0
0FFFC0000000001FFF80
07FFE0000000003FFF00
03FFF0000000007FFE00
03FFF8000000007FFC00
01FFFC00000000FFF800
00FFFC00000001FFF800
007FFE00000003FFF000
003FFF00000007FFE000
001FFF8000000FFFC000
000FFFC000000FFF8000
000FFFE000001FFF0000
0007FFE000003FFE0000
0003FFF000007FFE0000
0001FFF80000FFFC0000
0000FFFC0001FFF80000
00007FFE0001FFF00000
00007FFF0003FFE00000
00003FFF0007FFC00000
00001FFF800FFFC00000
00000FFFC01FFF800000
000007FFE03FFF000000
000003FFF03FFE000000
000003FFF87FFC000000
000001FFF8FFF8000000
000000FFFDFFF0000000
0000007FFFFFF0000000
0000003FFFFFE0000000
0000001FFFFFC0000000
0000000FFFFF80000000
0000000FFFFF00000000
00000007FFFE00000000
00000003FFFE00000000
00000001FFFC00000000
00000000FFF800000000
000000007FF000000000
000000007FF000000000
000000007FF000000000
000000007FF000000000
000000007FF000000000
000000007FF000000000
000000007FF000000000
000000007FF000000000
000000007FF000000000
000000007FF000000000
000000007FF000000000
000000007FF000000000
000000007FF000000000
000000007FF000000000
000000007FF000000000
000000007FF000000000
000000007FF000000000
000000007FF000000000
000000007FF000000000
000000007FF000000000
000000007FF000000000
000000007FF000000000
000000007FF000000000
000000007FF000000000
ENDCHAR
STARTCHAR Thorn
ENCODING 222
SWIDTH 843 0
DWIDTH 72 0
BBX 64 62 5 0
BITMAP
FFE0000000000000
FFE0000000000000
FFE0000000000000
FFE0000000000000
FFE0000000000000
FFE0000000000000
FFE0000000000000
FFE0000000000000
FFE0000000000000
FFFFFFFFFFFE0000
FFFFFFFFFFFFE000
FFFFFFFFFFFFF800
FFFFFFFFFFFFFE00
FFFFFFFFFFFFFF00
FFFFFFFFFFFFFF80
FFFFFFFFFFFFFFC0
FFFFFFFFFFFFFFE0
FFFFFFFFFFFFFFF0
FFFFFFFFFFFFFFF8
FFFFFFFFFFFFFFF8
FFE000000003FFFC
FFE000000000FFFC
FFE0000000003FFE
FFE0000000001FFE
FFE0000000000FFE
FFE0000000000FFF
FFE00000000007FF
FFE00000000007FF
FFE00000000007FF
FFE00000000007FF
FFE00000000003FF
FFE00000000003FF
FFE00000000003FF
FFE00000000007FF
FFE00000000007FF
FFE00000000007FF
FFE00000000007FF
FFE0000000000FFF
FFE0000000000FFE
FFE0000000001FFE
FFE0000000003FFE
FFE0000000007FFC
FFE000000000FFFC
FFE000000007FFFC
FFE01FFFFFFFFFF8
FFE01FFFFFFFFFF0
FFE01FFFFFFFFFF0
FFE01FFFFFFFFFE0
FFE01FFFFFFFFFC0
FFE01FFFFFFFFF80
FFE01FFFFFFFFF00
FFE01FFFFFFFFC00
FFE01FFFFFFFF000
FFE01FFFFFFFC000
FFE01FFFFFF80000
FFE0000000000000
FFE0000000000000
FFE0000000000000
FFE0000000000000
FFE0000000000000
FFE0000000000000
FFE0000000000000
ENDCHAR
STARTCHAR germandbls
ENCODING 223
SWIDTH 1760 0
DWIDTH 150 0
BBX 142 62 4 0
BITMAP
0003FFFFFFFFFFFF0000007FFFFFFFFFFFE0
001FFFFFFFFFFFFF000003FFFFFFFFFFFFE0
007FFFFFFFFFFFFF00001FFFFFFFFFFFFFE0
01FFFFFFFFFFFFFF00003FFFFFFFFFFFFFE0
03FFFFFFFFFFFFFF00007FFFFFFFFFFFFFE0
07FFFFFFFFFFFFFF0000FFFFFFFFFFFFFFE0
0FFFFFFFFFFFFFFF0001FFFFFFFFFFFFFFE0
1FFFFFFFFFFFFFFF0003FFFFFFFFFFFFFFE0
1FFFFFFFFFFFFFFF0007FFFFFFFFFFFFFFE0
3FFFFFFFFFFFFFFF0007FFFFFFFFFFFFFFE0
3FFFFFFFFFFFFFFF000FFFFFFFFFFFFFFFE0
7FFF000000000000000FFFE0000000000000
7FFC000000000000000FFF80000000000000
7FF8000000000000000FFF00000000000000
7FF8000000000000001FFE00000000000000
FFF0000000000000001FFE00000000000000
FFF0000000000000001FFE00000000000000
FFF0000000000000001FFC00000000000000
FFF0000000000000001FFC00000000000000
7FF0000000000000001FFC00000000000000
7FF0000000000000001FFE00000000000000
7FF0000000000000000FFE00000000000000
7FF8000000000000000FFE00000000000000
7FF8000000000000000FFF00000000000000
3FFC0000000000000007FF80000000000000
3FFF0000000000000007FFE0000000000000
1FFFFFFFFFFFF8000003FFFFFFFFFFFF0000
1FFFFFFFFFFFFF800003FFFFFFFFFFFFF000
0FFFFFFFFFFFFFE00001FFFFFFFFFFFFFC00
07FFFFFFFFFFFFF80000FFFFFFFFFFFFFF00
03FFFFFFFFFFFFFC00007FFFFFFFFFFFFF80
01FFFFFFFFFFFFFE00003FFFFFFFFFFFFFC0
007FFFFFFFFFFFFF00000FFFFFFFFFFFFFE0
001FFFFFFFFFFFFF000003FFFFFFFFFFFFE0
0003FFFFFFFFFFFF8000007FFFFFFFFFFFF0
0000000000001FFF8000000000000003FFF0
00000000000003FFC000000000000000FFF8
00000000000001FFC0000000000000003FF8
00000000000000FFC0000000000000003FF8
00000000000000FFE0000000000000001FF8
00000000000000FFE0000000000000001FF8
000000000000007FE0000000000000001FFC
000000000000007FE0000000000000001FFC
000000000000007FE0000000000000001FFC
000000000000007FE0000000000000001FFC
00000000000000FFE0000000000000001FFC
00000000000000FFE0000000000000001FFC
00000000000000FFE0000000000000003FF8
00000000000001FFC0000000000000003FF8
00000000000003FFC000000000000000FFF8
0000000000000FFFC000000000000001FFF8
7FFFFFFFFFFFFFFFC00FFFFFFFFFFFFFFFF0
7FFFFFFFFFFFFFFF800FFFFFFFFFFFFFFFF0
7FFFFFFFFFFFFFFF800FFFFFFFFFFFFFFFE0
7FFFFFFFFFFFFFFF000FFFFFFFFFFFFFFFE0
7FFFFFFFFFFFFFFE000FFFFFFFFFFFFFFFC0
7FFFFFFFFFFFFFFC000FFFFFFFFFFFFFFF80
7FFFFFFFFFFFFFF8000FFFFFFFFFFFFFFF00
7FFFFFFFFFFFFFF0000FFFFFFFFFFFFFFE00
7FFFFFFFFFFFFFE0000FFFFFFFFFFFFFF800
7FFFFFFFFFFFFF00000FFFFFFFFFFFFFE000
7FFFFFFFFFFFF800000FFFFFFFFFFFFF0000
ENDCHAR
STARTCHAR agrave
ENCODING 224
SWIDTH 989 0
DWIDTH 84 0
BBX 82 77 1 0
BITMAP
0000000C00000000000000
0000000FC0000000000000
0000000FF8000000000000
0000000FFF000000000000
0000000FFFE00000000000
0000000FFFFE0000000000
0000000FFFFF8000000000
00000000FFFF8000000000
0000000007FF8000000000
00000000003F8000000000
0000000000038000000000
0000000000000000000000
0000000000000000000000
0000000000000000000000
0000000001E00000000000
0000000007F80000000000
000000000FFC0000000000
000000000FFC0000000000
000000001FFE0000000000
000000001FFE0000000000
000000003FFF0000000000
000000007FFF8000000000
000000007FFF8000000000
00000000FFFFC000000000
00000000FFFFC000000000
00000001FFFFE000000000
00000003FFFFF000000000
00000003FFFFF000000000
00000007FFFFF800000000
00000007FFFFF800000000
0000000FFF7FFC00000000
0000001FFF3FFE00000000
0000001FFE3FFE00000000
0000003FFC1FFF00000000
0000003FFC1FFF00000000
0000007FF80FFF80000000
000000FFF807FFC0000000
000000FFF007FFC0000000
000001FFE003FFE0000000
000001FFE003FFE0000000
000003FFC001FFF0000000
000007FFC001FFF8000000
000007FF8000FFF8000000
00000FFF00007FFC000000
00000FFF00007FFC000000
00001FFE00003FFE000000
00003FFE00003FFF000000
00003FFC00001FFF000000
00007FF800000FFF800000
00007FF800000FFF800000
0000FFF0000007FFC00000
0001FFF0000007FFE00000
0001FFE0000003FFE00000
0003FFC01FFFFFFFF00000
0003FFC01FFFFFFFF00000
0007FF803FFFFFFFF80000
000FFF807FFFFFFFFC0000
000FFF007FFFFFFFFC0000
001FFF00FFFFFFFFFE0000
001FFE00FFFFFFFFFE0000
003FFC01FFFFFFFFFF0000
007FFC03FFFFFFFFFF8000
007FF8000000000FFF8000
00FFF8000000000FFFC000
00FFF00000000007FFC000
01FFE00000000003FFE000
03FFE00000000003FFF000
03FFC00000000001FFF000
07FFC00000000000FFF800
07FF800000000000FFF800
0FFF0000000000007FFC00
1FFF0000000000007FFE00
1FFE0000000000003FFE00
3FFE0000000000001FFF00
3FFC0000000000001FFF00
7FF80000000000000FFF80
FFF80000000000000FFFC0
ENDCHAR
STARTCHAR aacute
ENCODING 225
SWIDTH 989 0
DWIDTH 84 0
BBX 82 77 1 0
BITMAP
0000000000000C00000000
0000000000007C00000000
000000000007FC00000000
00000000003FFC00000000
0000000001FFFC00000000
000000001FFFFC00000000
000000007FFFFC00000000
000000007FFFC000000000
000000007FF80000000000
000000007F000000000000
0000000070000000000000
0000000000000000000000
0000000000000000000000
0000000000000000000000
0000000001E00000000000
0000000007F80000000000
000000000FFC0000000000
000000000FFC0000000000
000000001FFE0000000000
000000001FFE0000000000
000000003FFF0000000000
000000007FFF8000000000
000000007FFF8000000000
00000000FFFFC000000000
00000000FFFFC000000000
00000001FFFFE000000000
00000003FFFFF000000000
00000003FFFFF000000000
00000007FFFFF800000000
00000007FFFFF800000000
0000000FFF7FFC00000000
0000001FFF3FFE00000000
0000001FFE3FFE00000000
0000003FFC1FFF00000000
0000003FFC1FFF00000000
0000007FF80FFF80000000
000000FFF807FFC0000000
000000FFF007FFC0000000
000001FFE003FFE0000000
000001FFE003FFE0000000
000003FFC001FFF0000000
000007FFC001FFF8000000
000007FF8000FFF8000000
00000FFF00007FFC000000
00000FFF00007FFC000000
00001FFE00003FFE000000
00003FFE00003FFF000000
00003FFC00001FFF000000
00007FF800000FFF800000
00007FF800000FFF800000
0000FFF0000007FFC00000
0001FFF0000007FFE00000
0001FFE0000003FFE00000
0003FFC01FFFFFFFF00000
0003FFC01FFFFFFFF00000
0007FF803FFFFFFFF80000
000FFF807FFFFFFFFC0000
000FFF007FFFFFFFFC0000
001FFF00FFFFFFFFFE0000
001FFE00FFFFFFFFFE0000
003FFC01FFFFFFFFFF0000
007FFC03FFFFFFFFFF8000
007FF8000000000FFF8000
00FFF8000000000FFFC000
00FFF00000000007FFC000
01FFE00000000003FFE000
03FFE00000000003FFF000
03FFC00000000001FFF000
07FFC00000000000FFF800
07FF800000000000FFF800
0FFF0000000000007FFC00
1FFF0000000000007FFE00
1FFE0000000000003FFE00
3FFE0000000000001FFF00
3FFC0000000000001FFF00
7FF80000000000000FFF80
FFF80000000000000FFFC0
ENDCHAR
STARTCHAR acircumflex
ENCODING 226
SWIDTH 989 0
DWIDTH 84 0
BBX 82 77 1 0
BITMAP
0000000007F80000000000
000000000FFC0000000000
000000001FFE0000000000
000000001F3E0000000000
000000003F3F0000000000
000000007E1F8000000000
000000007C0F8000000000
00000000FC0FC000000000
00000001F807E000000000
00000001F807E000000000
00000003F003F000000000
00000007E001F800000000
0000000000000000000000
0000000000000000000000
0000000001E00000000000
0000000007F80000000000
000000000FFC0000000000
000000000FFC0000000000
000000001FFE0000000000
000000001FFE0000000000
000000003FFF0000000000
000000007FFF8000000000
000000007FFF8000000000
00000000FFFFC000000000
00000000FFFFC000000000
00000001FFFFE000000000
00000003FFFFF000000000
00000003FFFFF000000000
00000007FFFFF800000000
00000007FFFFF800000000
0000000FFF7FFC00000000
0000001FFF3FFE00000000
0000001FFE3FFE00000000
0000003FFC1FFF00000000
0000003FFC1FFF00000000
0000007FF80FFF80000000
000000FFF807FFC0000000
000000FFF007FFC0000000
000001FFE003FFE0000000
000001FFE003FFE0000000
000003FFC001FFF0000000
000007FFC001FFF8000000
000007FF8000FFF8000000
00000FFF00007FFC000000
00000FFF00007FFC000000
00001FFE00003FFE000000
00003FFE00003FFF000000
00003FFC00001FFF000000
00007FF800000FFF800000
00007FF800000FFF800000
0000FFF0000007FFC00000
0001FFF0000007FFE00000
0001FFE0000003FFE00000
0003FFC01FFFFFFFF00000
0003FFC01FFFFFFFF00000
0007FF803FFFFFFFF80000
000FFF807FFFFFFFFC0000
000FFF007FFFFFFFFC0000
001FFF00FFFFFFFFFE0000
001FFE00FFFFFFFFFE0000
003FFC01FFFFFFFFFF0000
007FFC03FFFFFFFFFF8000
007FF8000000000FFF8000
00FFF8000000000FFFC000
00FFF00000000007FFC000
01FFE00000000003FFE000
03FFE00000000003FFF000
03FFC00000000001FFF000
07FFC00000000000FFF800
07FF800000000000FFF800
0FFF0000000000007FFC00
1FFF0000000000007FFE00
1FFE0000000000003FFE00
3FFE0000000000001FFF00
3FFC0000000000001FFF00
7FF80000000000000FFF80
FFF80000000000000FFFC0
ENDCHAR
STARTCHAR atilde
ENCODING 227
SWIDTH 989 0
DWIDTH 84 0
BBX 82 76 1 0
BITMAP
000000007C001000000000
00000001FF801000000000
00000003FFE07000000000
00000003FFFFF000000000
00000003FFFFF000000000
0000000383FFF000000000
00000002007FE000000000
00000002001F8000000000
0000000000000000000000
0000000000000000000000
0000000000000000000000
0000000000000000000000
0000000000000000000000
0000000001E00000000000
0000000007F80000000000
000000000FFC0000000000
000000000FFC0000000000
000000001FFE0000000000
000000001FFE0000000000
000000003FFF0000000000
000000007FFF8000000000
000000007FFF8000000000
00000000FFFFC000000000
00000000FFFFC000000000
00000001FFFFE000000000
00000003FFFFF000000000
00000003FFFFF000000000
00000007FFFFF800000000
00000007FFFFF800000000
0000000FFF7FFC00000000
0000001FFF3FFE00000000
0000001FFE3FFE00000000
0000003FFC1FFF00000000
0000003FFC1FFF00000000
0000007FF80FFF80000000
000000FFF807FFC0000000
000000FFF007FFC0000000
000001FFE003FFE0000000
000001FFE003FFE0000000
000003FFC001FFF0000000
000007FFC001FFF8000000
000007FF8000FFF8000000
00000FFF00007FFC000000
00000FFF00007FFC000000
00001FFE00003FFE000000
00003FFE00003FFF000000
00003FFC00001FFF000000
00007FF800000FFF800000
00007FF800000FFF800000
0000FFF0000007FFC00000
0001FFF0000007FFE00000
0001FFE0000003FFE00000
0003FFC01FFFFFFFF00000
0003FFC01FFFFFFFF00000
0007FF803FFFFFFFF80000
000FFF807FFFFFFFFC0000
000FFF007FFFFFFFFC0000
001FFF00FFFFFFFFFE0000
001FFE00FFFFFFFFFE0000
003FFC01FFFFFFFFFF0000
007FFC03FFFFFFFFFF8000
007FF8000000000FFF8000
00FFF8000000000FFFC000
00FFF00000000007FFC000
01FFE00000000003FFE000
03FFE00000000003FFF000
03FFC00000000001FFF000
07FFC00000000000FFF800
07FF800000000000FFF800
0FFF0000000000007FFC00
1FFF0000000000007FFE00
1FFE0000000000003FFE00
3FFE0000000000001FFF00
3FFC0000000000001FFF00
7FF80000000000000FFF80
FFF80000000000000FFFC0
ENDCHAR
STARTCHAR adieresis
ENCODING 228
SWIDTH 989 0
DWIDTH 84 0
BBX 82 76 1 0
BITMAP
00000001E001E000000000
00000003F807F000000000
00000007F807F800000000
00000007F807F800000000
00000007FC07F800000000
00000007F807F800000000
00000003F807F000000000
00000001E001E000000000
0000000000000000000000
0000000000000000000000
0000000000000000000000
0000000000000000000000
0000000000000000000000
0000000001E00000000000
0000000007F80000000000
000000000FFC0000000000
000000000FFC0000000000
000000001FFE0000000000
000000001FFE0000000000
000000003FFF0000000000
000000007FFF8000000000
000000007FFF8000000000
00000000FFFFC000000000
00000000FFFFC000000000
00000001FFFFE000000000
00000003FFFFF000000000
00000003FFFFF000000000
00000007FFFFF800000000
00000007FFFFF800000000
0000000FFF7FFC00000000
0000001FFF3FFE00000000
0000001FFE3FFE00000000
0000003FFC1FFF00000000
0000003FFC1FFF00000000
0000007FF80FFF80000000
000000FFF807FFC0000000
000000FFF007FFC0000000
000001FFE003FFE0000000
000001FFE003FFE0000000
000003FFC001FFF0000000
000007FFC001FFF8000000
000007FF8000FFF8000000
00000FFF00007FFC000000
00000FFF00007FFC000000
00001FFE00003FFE000000
00003FFE00003FFF000000
00003FFC00001FFF000000
00007FF800000FFF800000
00007FF800000FFF800000
0000FFF0000007FFC00000
0001FFF0000007FFE00000
0001FFE0000003FFE00000
0003FFC01FFFFFFFF00000
0003FFC01FFFFFFFF00000
0007FF803FFFFFFFF80000
000FFF807FFFFFFFFC0000
000FFF007FFFFFFFFC0000
001FFF00FFFFFFFFFE0000
001FFE00FFFFFFFFFE0000
003FFC01FFFFFFFFFF0000
007FFC03FFFFFFFFFF8000
007FF8000000000FFF8000
00FFF8000000000FFFC000
00FFF00000000007FFC000
01FFE00000000003FFE000
03FFE00000000003FFF000
03FFC00000000001FFF000
07FFC00000000000FFF800
07FF800000000000FFF800
0FFF0000000000007FFC00
1FFF0000000000007FFE00
1FFE0000000000003FFE00
3FFE0000000000001FFF00
3FFC0000000000001FFF00
7FF80000000000000FFF80
FFF80000000000000FFFC0
ENDCHAR
STARTCHAR aring
ENCODING 229
SWIDTH 989 0
DWIDTH 84 0
BBX 82 83 1 0
BITMAP
000000000FFC0000000000
000000003FFF0000000000
00000000FFFFC000000000
00000001F003C000000000
00000001E001E000000000
00000001C000E000000000
00000003C000F000000000
0000000380007000000000
0000000380007000000000
0000000380007000000000
00000003C000F000000000
00000001C000E000000000
00000001E001E000000000
00000000F003C000000000
00000000FFFF8000000000
000000003FFF0000000000
000000000FFC0000000000
0000000000000000000000
0000000000000000000000
0000000000000000000000
0000000001E00000000000
0000000007F80000000000
000000000FFC0000000000
000000000FFC0000000000
000000001FFE0000000000
000000001FFE0000000000
000000003FFF0000000000
000000007FFF8000000000
000000007FFF8000000000
00000000FFFFC000000000
00000000FFFFC000000000
00000001FFFFE000000000
00000003FFFFF000000000
00000003FFFFF000000000
00000007FFFFF800000000
00000007FFFFF800000000
0000000FFF7FFC00000000
0000001FFF3FFE00000000
0000001FFE3FFE00000000
0000003FFC1FFF00000000
0000003FFC1FFF00000000
0000007FF80FFF80000000
000000FFF807FFC0000000
000000FFF007FFC0000000
000001FFE003FFE0000000
000001FFE003FFE0000000
000003FFC001FFF0000000
000007FFC001FFF8000000
000007FF8000FFF8000000
00000FFF00007FFC000000
00000FFF00007FFC000000
00001FFE00003FFE000000
00003FFE00003FFF000000
00003FFC00001FFF000000
00007FF800000FFF800000
00007FF800000FFF800000
0000FFF0000007FFC00000
0001FFF0000007FFE00000
0001FFE0000003FFE00000
0003FFC01FFFFFFFF00000
0003FFC01FFFFFFFF00000
0007FF803FFFFFFFF80000
000FFF807FFFFFFFFC0000
000FFF007FFFFFFFFC0000
001FFF00FFFFFFFFFE0000
001FFE00FFFFFFFFFE0000
003FFC01FFFFFFFFFF0000
007FFC03FFFFFFFFFF8000
007FF8000000000FFF8000
00FFF8000000000FFFC000
00FFF00000000007FFC000
01FFE00000000003FFE000
03FFE00000000003FFF000
03FFC00000000001FFF000
07FFC00000000000FFF800
07FF800000000000FFF800
0FFF0000000000007FFC00
1FFF0000000000007FFE00
1FFE0000000000003FFE00
3FFE0000000000001FFF00
3FFC0000000000001FFF00
7FF80000000000000FFF80
FFF80000000000000FFFC0
ENDCHAR
STARTCHAR ae
ENCODING 230
SWIDTH 1345 0
DWIDTH 114 0
BBX 109 62 1 0
BITMAP
0000000007FFFFFFFFFFFFFFFFF8
000000000FFFFFFFFFFFFFFFFFF8
000000001FFFFFFFFFFFFFFFFFF8
000000003FFFFFFFFFFFFFFFFFF8
000000003FFFFFFFFFFFFFFFFFF8
000000007FFFFFFFFFFFFFFFFFF8
00000000FFFFFFFFFFFFFFFFFFF8
00000000FFFFFFFFFFFFFFFFFFF8
00000001FFFFFFFFFFFFFFFFFFF8
00000001FFFFFFFFFFFFFFFFFFF8
00000003FFFFFFFFFFFFFFFFFFF8
00000007FF80003FF00000000000
00000007FF00003FF00000000000
0000000FFF00003FF00000000000
0000000FFE00003FF00000000000
0000001FFE00003FF00000000000
0000001FFC00003FF00000000000
0000003FFC00003FF00000000000
0000007FF800003FF00000000000
0000007FF800003FF00000000000
000000FFF000003FF00000000000
000000FFE000003FF00000000000
000001FFE000003FF00000000000
000001FFC000003FF00000000000
000003FFC000003FF00000000000
000007FF8000003FF00000000000
000007FF8000003FF00FFFFFFFE0
00000FFF0000003FF00FFFFFFFE0
00000FFE0000003FF00FFFFFFFE0
00001FFE0000003FF00FFFFFFFE0
00003FFC0000003FF00FFFFFFFE0
00003FFC0000003FF00FFFFFFFE0
00007FF80000003FF00FFFFFFFE0
00007FF80000003FF00FFFFFFFE0
0000FFF00000003FF00FFFFFFFE0
0000FFE00000003FF00000000000
0001FFE00000003FF00000000000
0003FFC00000003FF00000000000
0003FFC01FFFFFFFF00000000000
0007FF803FFFFFFFF00000000000
0007FF807FFFFFFFF00000000000
000FFF007FFFFFFFF00000000000
001FFE00FFFFFFFFF00000000000
001FFE00FFFFFFFFF00000000000
003FFC01FFFFFFFFF00000000000
003FFC03FFFFFFFFF00000000000
007FF803FFFFFFFFF00000000000
007FF8000000003FF00000000000
00FFF0000000003FF00000000000
01FFE0000000003FF00000000000
01FFE0000000003FF00000000000
03FFC0000000003FFFFFFFFFFFF8
03FFC0000000003FFFFFFFFFFFF8
07FF80000000003FFFFFFFFFFFF8
07FF80000000003FFFFFFFFFFFF8
0FFF00000000003FFFFFFFFFFFF8
1FFE00000000003FFFFFFFFFFFF8
1FFE00000000003FFFFFFFFFFFF8
3FFC00000000003FFFFFFFFFFFF8
3FFC00000000003FFFFFFFFFFFF8
7FF800000000003FFFFFFFFFFFF8
FFF800000000003FFFFFFFFFFFF8
ENDCHAR
STARTCHAR ccedilla
ENCODING 231
SWIDTH 829 0
DWIDTH 70 0
BBX 63 79 4 -17
BITMAP
000000FFFFFFFFFE
00000FFFFFFFFFFE
00007FFFFFFFFFFE
0001FFFFFFFFFFFE
0007FFFFFFFFFFFE
001FFFFFFFFFFFFE
003FFFFFFFFFFFFE
007FFFFFFFFFFFFE
00FFFFFFFFFFFFFE
01FFFFFFFFFFFFFE
03FFFFFFFFFFFFFE
07FFFF0000000000
07FFFC0000000000
0FFFF00000000000
1FFFC00000000000
1FFF800000000000
3FFF000000000000
3FFE000000000000
3FFC000000000000
7FF8000000000000
7FF8000000000000
7FF0000000000000
FFF0000000000000
FFF0000000000000
FFE0000000000000
FFE0000000000000
FFE0000000000000
FFE0000000000000
FFC0000000000000
FFC0000000000000
FFC0000000000000
FFC0000000000000
FFC0000000000000
FFC0000000000000
FFE0000000000000
FFE0000000000000
FFE0000000000000
FFE0000000000000
FFF0000000000000
7FF0000000000000
7FF0000000000000
7FF8000000000000
3FFC000000000000
3FFC000000000000
3FFE000000000000
1FFF000000000000
1FFF800000000000
0FFFC00000000000
07FFF00000000000
07FFFC0000000000
03FFFF0000000000
01FFFFFFFFFFFFFE
00FFFFFFFFFFFFFE
007FFFFFFFFFFFFE
003FFFFFFFFFFFFE
001FFFFFFFFFFFFE
000FFFFFFFFFFFFE
0003FFFFFFFFFFFE
0001FFFFFFFFFFFE
00007FFFFFFFFFFE
00000FFFFFFFFFFE
000000FFFFFFFFFE
0000000000000000
0000000000000000
0000000000000000
0000000000000000
0000001FFE000000
0000000FFC000000
0000000FFC000000
00000007F8000000
00000007F8000000
00000003F0000000
00000003F0000000
00000003E0000000
00000001E0000000
00000001C0000000
00000000C0000000
00000000C0000000
0000000080000000
ENDCHAR
STARTCHAR egrave
ENCODING 232
SWIDTH 759 0
DWIDTH 65 0
BBX 56 77 5 0
BITMAP
00030000000000
0003F000000000
0003FE00000000
0003FFC0000000
0003FFFC000000
0003FFFF800000
0003FFFFF00000
00001FFFF00000
000001FFF00000
0000000FF00000
00000000F00000
00000000000000
00000000000000
00000000000000
00000000000000
FFFFFFFFFFFFFF
FFFFFFFFFFFFFF
FFFFFFFFFFFFFF
FFFFFFFFFFFFFF
FFFFFFFFFFFFFF
FFFFFFFFFFFFFF
FFFFFFFFFFFFFF
FFFFFFFFFFFFFF
FFFFFFFFFFFFFF
FFFFFFFFFFFFFF
FFFFFFFFFFFFFF
FFE00000000000
FFE00000000000
FFE00000000000
FFE00000000000
FFE00000000000
FFE00000000000
FFE00000000000
FFE00000000000
FFE00000000000
FFE00000000000
FFE00000000000
FFE00000000000
FFE00000000000
FFE00000000000
FFE00000000000
FFE01FFFFFFFF8
FFE01FFFFFFFF8
FFE01FFFFFFFF8
FFE01FFFFFFFF8
FFE01FFFFFFFF8
FFE01FFFFFFFF8
FFE01FFFFFFFF8
FFE01FFFFFFFF8
FFE01FFFFFFFF8
FFE00000000000
FFE00000000000
FFE00000000000
FFE00000000000
FFE00000000000
FFE00000000000
FFE00000000000
FFE00000000000
FFE00000000000
FFE00000000000
FFE00000000000
FFE00000000000
FFE00000000000
FFE00000000000
FFE00000000000
FFE00000000000
FFFFFFFFFFFFFF
FFFFFFFFFFFFFF
FFFFFFFFFFFFFF
FFFFFFFFFFFFFF
FFFFFFFFFFFFFF
FFFFFFFFFFFFFF
FFFFFFFFFFFFFF
FFFFFFFFFFFFFF
FFFFFFFFFFFFFF
FFFFFFFFFFFFFF
FFFFFFFFFFFFFF
ENDCHAR
STARTCHAR eacute
ENCODING 233
SWIDTH 759 0
DWIDTH 65 0
BBX 56 77 5 0
BITMAP
00000000038000
000000001F8000
00000001FF8000
0000000FFF8000
0000007FFF8000
000003FFFF8000
00001FFFFF8000
00001FFFF00000
00001FFE000000
00001FE0000000
00001C00000000
00000000000000
00000000000000
00000000000000
00000000000000
FFFFFFFFFFFFFF
FFFFFFFFFFFFFF
FFFFFFFFFFFFFF
FFFFFFFFFFFFFF
FFFFFFFFFFFFFF
FFFFFFFFFFFFFF
FFFFFFFFFFFFFF
FFFFFFFFFFFFFF
FFFFFFFFFFFFFF
FFFFFFFFFFFFFF
FFFFFFFFFFFFFF
FFE00000000000
FFE00000000000
FFE00000000000
FFE00000000000
FFE00000000000
FFE00000000000
FFE00000000000
FFE00000000000
FFE00000000000
FFE00000000000
FFE00000000000
FFE00000000000
FFE00000000000
FFE00000000000
FFE00000000000
FFE01FFFFFFFF8
FFE01FFFFFFFF8
FFE01FFFFFFFF8
FFE01FFFFFFFF8
FFE01FFFFFFFF8
FFE01FFFFFFFF8
FFE01FFFFFFFF8
FFE01FFFFFFFF8
FFE01FFFFFFFF8
FFE00000000000
FFE00000000000
FFE00000000000
FFE00000000000
FFE00000000000
FFE00000000000
FFE00000000000
FFE00000000000
FFE00000000000
FFE00000000000
FFE00000000000
FFE00000000000
FFE00000000000
FFE00000000000
FFE00000000000
FFE00000000000
FFFFFFFFFFFFFF
FFFFFFFFFFFFFF
FFFFFFFFFFFFFF
FFFFFFFFFFFFFF
FFFFFFFFFFFFFF
FFFFFFFFFFFFFF
FFFFFFFFFFFFFF
FFFFFFFFFFFFFF
FFFFFFFFFFFFFF
FFFFFFFFFFFFFF
FFFFFFFFFFFFFF
ENDCHAR
STARTCHAR ecircumflex
ENCODING 234
SWIDTH 759 0
DWIDTH 65 0
BBX 56 77 5 0
BITMAP
000001FE000000
000003FF000000
000003FF800000
000007EF800000
00000FC7C00000
00000F87E00000
00001F83F00000
00003F03F00000
00003E01F80000
00007E00FC0000
0000FC00FC0000
0000FC007E0000
00000000000000
00000000000000
00000000000000
FFFFFFFFFFFFFF
FFFFFFFFFFFFFF
FFFFFFFFFFFFFF
FFFFFFFFFFFFFF
FFFFFFFFFFFFFF
FFFFFFFFFFFFFF
FFFFFFFFFFFFFF
FFFFFFFFFFFFFF
FFFFFFFFFFFFFF
FFFFFFFFFFFFFF
FFFFFFFFFFFFFF
FFE00000000000
FFE00000000000
FFE00000000000
FFE00000000000
FFE00000000000
FFE00000000000
FFE00000000000
FFE00000000000
FFE00000000000
FFE00000000000
FFE00000000000
FFE00000000000
FFE00000000000
FFE00000000000
FFE00000000000
FFE01FFFFFFFF8
FFE01FFFFFFFF8
FFE01FFFFFFFF8
FFE01FFFFFFFF8
FFE01FFFFFFFF8
FFE01FFFFFFFF8
FFE01FFFFFFFF8
FFE01FFFFFFFF8
FFE01FFFFFFFF8
FFE00000000000
FFE00000000000
FFE00000000000
FFE00000000000
FFE00000000000
FFE00000000000
FFE00000000000
FFE00000000000
FFE00000000000
FFE00000000000
FFE00000000000
FFE00000000000
FFE00000000000
FFE00000000000
FFE00000000000
FFE00000000000
FFFFFFFFFFFFFF
FFFFFFFFFFFFFF
FFFFFFFFFFFFFF
FFFFFFFFFFFFFF
FFFFFFFFFFFFFF
FFFFFFFFFFFFFF
FFFFFFFFFFFFFF
FFFFFFFFFFFFFF
FFFFFFFFFFFFFF
FFFFFFFFFFFFFF
FFFFFFFFFFFFFF
ENDCHAR
STARTCHAR edieresis
ENCODING 235
SWIDTH 759 0
DWIDTH 65 0
BBX 56 76 5 0
BITMAP
00007C00780000
0000FE00FE0000
0001FE01FE0000
0001FF01FE0000
0001FF01FE0000
0001FE01FE0000
0000FE00FE0000
00007C00780000
00000000000000
00000000000000
00000000000000
00000000000000
00000000000000
00000000000000
FFFFFFFFFFFFFF
FFFFFFFFFFFFFF
FFFFFFFFFFFFFF
FFFFFFFFFFFFFF
FFFFFFFFFFFFFF
FFFFFFFFFFFFFF
FFFFFFFFFFFFFF
FFFFFFFFFFFFFF
FFFFFFFFFFFFFF
FFFFFFFFFFFFFF
FFFFFFFFFFFFFF
FFE00000000000
FFE00000000000
FFE00000000000
FFE00000000000
FFE00000000000
FFE00000000000
FFE00000000000
FFE00000000000
FFE00000000000
FFE00000000000
FFE00000000000
FFE00000000000
FFE00000000000
FFE00000000000
FFE00000000000
FFE01FFFFFFFF8
FFE01FFFFFFFF8
FFE01FFFFFFFF8
FFE01FFFFFFFF8
FFE01FFFFFFFF8
FFE01FFFFFFFF8
FFE01FFFFFFFF8
FFE01FFFFFFFF8
FFE01FFFFFFFF8
FFE00000000000
FFE00000000000
FFE00000000000
FFE00000000000
FFE00000000000
FFE00000000000
FFE00000000000
FFE00000000000
FFE00000000000
FFE00000000000
FFE00000000000
FFE00000000000
FFE00000000000
FFE00000000000
FFE00000000000
FFE00000000000
FFFFFFFFFFFFFF
FFFFFFFFFFFFFF
FFFFFFFFFFFFFF
FFFFFFFFFFFFFF
FFFFFFFFFFFFFF
FFFFFFFFFFFFFF
FFFFFFFFFFFFFF
FFFFFFFFFFFFFF
FFFFFFFFFFFFFF
FFFFFFFFFFFFFF
FFFFFFFFFFFFFF
ENDCHAR
STARTCHAR igrave
ENCODING 236
SWIDTH 267 0
DWIDTH 23 0
BBX 22 77 -2 0
BITMAP
E00000
FC0000
FF8000
FFF800
FFFF00
FFFFE0
FFFFFC
07FFFC
007FFC
0003FC
00001C
000000
000000
000000
000000
00FFE0
00FFE0
00FFE0
00FFE0
00FFE0
00FFE0
00FFE0
00FFE0
00FFE0
00FFE0
00FFE0
00FFE0
00FFE0
00FFE0
00FFE0
00FFE0
00FFE0
00FFE0
00FFE0
00FFE0
00FFE0
00FFE0
00FFE0
00FFE0
00FFE0
00FFE0
00FFE0
00FFE0
00FFE0
00FFE0
00FFE0
00FFE0
00FFE0
00FFE0
00FFE0
00FFE0
00FFE0
00FFE0
00FFE0
00FFE0
00FFE0
00FFE0
00FFE0
00FFE0
00FFE0
00FFE0
00FFE0
00FFE0
00FFE0
00FFE0
00FFE0
00FFE0
00FFE0
00FFE0
00FFE0
00FFE0
00FFE0
00FFE0
00FFE0
00FFE0
00FFE0
00FFE0
ENDCHAR
STARTCHAR iacute
ENCODING 237
SWIDTH 267 0
DWIDTH 23 0
BBX 22 77 3 0
BITMAP
00001C
0000FC
0007FC
007FFC
03FFFC
1FFFFC
FFFFFC
FFFF80
FFF800
FF0000
E00000
000000
000000
000000
000000
1FFC00
1FFC00
1FFC00
1FFC00
1FFC00
1FFC00
1FFC00
1FFC00
1FFC00
1FFC00
1FFC00
1FFC00
1FFC00
1FFC00
1FFC00
1FFC00
1FFC00
1FFC00
1FFC00
1FFC00
1FFC00
1FFC00
1FFC00
1FFC00
1FFC00
1FFC00
1FFC00
1FFC00
1FFC00
1FFC00
1FFC00
1FFC00
1FFC00
1FFC00
1FFC00
1FFC00
1FFC00
1FFC00
1FFC00
1FFC00
1FFC00
1FFC00
1FFC00
1FFC00
1FFC00
1FFC00
1FFC00
1FFC00
1FFC00
1FFC00
1FFC00
1FFC00
1FFC00
1FFC00
1FFC00
1FFC00
1FFC00
1FFC00
1FFC00
1FFC00
1FFC00
1FFC00
ENDCHAR
STARTCHAR icircumflex
ENCODING 238
SWIDTH 267 0
DWIDTH 23 0
BBX 23 77 0 0
BITMAP
01FF00
01FF00
03FF80
07EFC0
07C7C0
0F87E0
1F83F0
1F01F0
3F01F8
7E00FC
FC00FC
FC007E
000000
000000
000000
03FF80
03FF80
03FF80
03FF80
03FF80
03FF80
03FF80
03FF80
03FF80
03FF80
03FF80
03FF80
03FF80
03FF80
03FF80
03FF80
03FF80
03FF80
03FF80
03FF80
03FF80
03FF80
03FF80
03FF80
03FF80
03FF80
03FF80
03FF80
03FF80
03FF80
03FF80
03FF80
03FF80
03FF80
03FF80
03FF80
03FF80
03FF80
03FF80
03FF80
03FF80
03FF80
03FF80
03FF80
03FF80
03FF80
03FF80
03FF80
03FF80
03FF80
03FF80
03FF80
03FF80
03FF80
03FF80
03FF80
03FF80
03FF80
03FF80
03FF80
03FF80
03FF80
ENDCHAR
STARTCHAR idieresis
ENCODING 239
SWIDTH 267 0
DWIDTH 23 0
BBX 25 76 -1 0
BITMAP
3E003E00
7F007F00
FF80FF00
FF80FF80
FF80FF80
FF80FF00
7F007F00
3E003E00
00000000
00000000
00000000
00000000
00000000
00000000
01FFC000
01FFC000
01FFC000
01FFC000
01FFC000
01FFC000
01FFC000
01FFC000
01FFC000
01FFC000
01FFC000
01FFC000
01FFC000
01FFC000
01FFC000
01FFC000
01FFC000
01FFC000
01FFC000
01FFC000
01FFC000
01FFC000
01FFC000
01FFC000
01FFC000
01FFC000
01FFC000
01FFC000
01FFC000
01FFC000
01FFC000
01FFC000
01FFC000
01FFC000
01FFC000
01FFC000
01FFC000
01FFC000
01FFC000
01FFC000
01FFC000
01FFC000
01FFC000
01FFC000
01FFC000
01FFC000
01FFC000
01FFC000
01FFC000
01FFC000
01FFC000
01FFC000
01FFC000
01FFC000
01FFC000
01FFC000
01FFC000
01FFC000
01FFC000
01FFC000
01FFC000
01FFC000
ENDCHAR
STARTCHAR eth
ENCODING 240
SWIDTH 877 0
DWIDTH 75 0
BBX 70 62 1 0
BITMAP
0FFFFFFFFFFC000000
0FFFFFFFFFFFC00000
0FFFFFFFFFFFF80000
0FFFFFFFFFFFFE0000
0FFFFFFFFFFFFF8000
0FFFFFFFFFFFFFC000
0FFFFFFFFFFFFFE000
0FFFFFFFFFFFFFF800
0FFFFFFFFFFFFFFC00
0FFFFFFFFFFFFFFE00
0FFFFFFFFFFFFFFE00
0FFE00000007FFFF00
0FFE00000000FFFF80
0FFE000000003FFFC0
0FFE000000001FFFC0
0FFE0000000007FFE0
0FFE0000000003FFE0
0FFE0000000001FFF0
0FFE0000000001FFF0
0FFE0000000000FFF0
0FFE00000000007FF8
0FFE00000000007FF8
0FFE00000000003FF8
0FFE00000000003FF8
0FFE00000000003FFC
0FFE00000000001FFC
FFFFFFFFFE00001FFC
FFFFFFFFFE00001FFC
FFFFFFFFFE00001FFC
FFFFFFFFFE00001FFC
FFFFFFFFFE00001FFC
FFFFFFFFFE00001FFC
FFFFFFFFFE00001FFC
FFFFFFFFFE00001FFC
FFFFFFFFFE00001FFC
0FFE00000000001FFC
0FFE00000000001FFC
0FFE00000000003FF8
0FFE00000000003FF8
0FFE00000000003FF8
0FFE00000000007FF8
0FFE00000000007FF0
0FFE0000000000FFF0
0FFE0000000001FFF0
0FFE0000000001FFE0
0FFE0000000003FFE0
0FFE0000000007FFC0
0FFE000000001FFFC0
0FFE000000003FFF80
0FFE00000000FFFF00
0FFE00000007FFFF00
0FFFFFFFFFFFFFFE00
0FFFFFFFFFFFFFFC00
0FFFFFFFFFFFFFF800
0FFFFFFFFFFFFFF000
0FFFFFFFFFFFFFE000
0FFFFFFFFFFFFFC000
0FFFFFFFFFFFFF0000
0FFFFFFFFFFFFC0000
0FFFFFFFFFFFF00000
0FFFFFFFFFFFC00000
0FFFFFFFFFFC000000
ENDCHAR
STARTCHAR ntilde
ENCODING 241
SWIDTH 873 0
DWIDTH 74 0
BBX 64 76 5 0
BITMAP
000000FC00200000
000003FF00200000
000007FFC0E00000
000007FFFFE00000
000007FFFFE00000
00000707FFE00000
00000400FFC00000
000004003F000000
0000000000000000
0000000000000000
0000000000000000
0000000000000000
0000000000000000
0000000000000000
1F000000000003FF
3F800000000003FF
7FE00000000003FF
7FF00000000003FF
FFF80000000003FF
FFFC0000000003FF
FFFE0000000003FF
FFFF0000000003FF
FFFF8000000003FF
FFFFC000000003FF
FFFFE000000003FF
FFFFF000000003FF
FFFFF800000003FF
FFFFFC00000003FF
FFFFFE00000003FF
FFFFFF00000003FF
FFFFFF80000003FF
FFDFFFC0000003FF
FFCFFFE0000003FF
FFC7FFF0000003FF
FFC3FFF8000003FF
FFC1FFFC000003FF
FFC0FFFE000003FF
FFC07FFF000003FF
FFC03FFF800003FF
FFC01FFFC00003FF
FFC00FFFE00003FF
FFC007FFF00003FF
FFC003FFF80003FF
FFC001FFFC0003FF
FFC000FFFE0003FF
FFC0007FFF0003FF
FFC0003FFF8003FF
FFC0001FFFC003FF
FFC0000FFFE003FF
FFC00007FFF003FF
FFC00003FFF803FF
FFC00001FFFC03FF
FFC00000FFFE03FF
FFC000007FFF03FF
FFC000003FFF83FF
FFC000001FFFC3FF
FFC000000FFFE3FF
FFC0000007FFF3FF
FFC0000003FFFBFF
FFC0000001FFFFFF
FFC0000000FFFFFF
FFC00000007FFFFF
FFC00000003FFFFF
FFC00000001FFFFF
FFC00000000FFFFF
FFC000000007FFFF
FFC000000003FFFF
FFC000000001FFFF
FFC000000000FFFF
FFC0000000007FFF
FFC0000000003FFF
FFC0000000001FFF
FFC00000000007FF
FFC00000000003FE
FFC00000000001FC
FFC00000000000F8
ENDCHAR
STARTCHAR ograve
ENCODING 242
SWIDTH 968 0
DWIDTH 82 0
BBX 75 77 4 0
BITMAP
000000C0000000000000
000000FC000000000000
000000FF800000000000
000000FFF00000000000
000000FFFF0000000000
000000FFFFE000000000
000000FFFFF800000000
0000000FFFF800000000
000000007FF800000000
0000000003F800000000
00000000003800000000
00000000000000000000
00000000000000000000
00000000000000000000
00000000000000000000
000000FFFFFFE0000000
00000FFFFFFFFE000000
00007FFFFFFFFFC00000
0001FFFFFFFFFFF00000
0007FFFFFFFFFFF80000
001FFFFFFFFFFFFE0000
003FFFFFFFFFFFFF0000
007FFFFFFFFFFFFF8000
00FFFFFFFFFFFFFFE000
01FFFFFFFFFFFFFFE000
03FFFFFFFFFFFFFFF000
07FFFF0000003FFFF800
07FFFC00000007FFFC00
0FFFF000000001FFFC00
1FFFC000000000FFFE00
1FFF80000000003FFF00
3FFF00000000001FFF00
3FFE00000000000FFF00
3FFC00000000000FFF80
7FF8000000000007FF80
7FF8000000000003FF80
7FF0000000000003FFC0
FFF0000000000003FFC0
FFF0000000000001FFC0
FFE0000000000001FFC0
FFE0000000000001FFE0
FFE0000000000000FFE0
FFE0000000000000FFE0
FFC0000000000000FFE0
FFC0000000000000FFE0
FFC0000000000000FFE0
FFC0000000000000FFE0
FFC0000000000000FFE0
FFC0000000000000FFE0
FFE0000000000000FFE0
FFE0000000000000FFE0
FFE0000000000001FFC0
FFE0000000000001FFC0
FFF0000000000001FFC0
7FF0000000000003FFC0
7FF0000000000003FF80
7FF8000000000007FF80
3FFC000000000007FF80
3FFC00000000000FFF00
3FFE00000000001FFF00
1FFF00000000001FFF00
1FFF80000000007FFE00
0FFFC000000000FFFC00
07FFF000000001FFFC00
07FFFC00000007FFF800
03FFFF0000003FFFF000
01FFFFFFFFFFFFFFF000
00FFFFFFFFFFFFFFE000
007FFFFFFFFFFFFFC000
003FFFFFFFFFFFFF8000
001FFFFFFFFFFFFE0000
000FFFFFFFFFFFFC0000
0003FFFFFFFFFFF80000
0001FFFFFFFFFFE00000
00007FFFFFFFFF800000
00000FFFFFFFFC000000
000000FFFFFFE0000000
ENDCHAR
STARTCHAR oacute
ENCODING 243
SWIDTH 968 0
DWIDTH 82 0
BBX 75 77 4 0
BITMAP
000000000000E0000000
000000000007E0000000
00000000007FE0000000
0000000003FFE0000000
000000001FFFE0000000
00000001FFFFE0000000
00000007FFFFC0000000
00000007FFFC00000000
00000007FF8000000000
00000007F80000000000
00000007000000000000
00000000000000000000
00000000000000000000
00000000000000000000
00000000000000000000
000000FFFFFFE0000000
00000FFFFFFFFE000000
00007FFFFFFFFFC00000
0001FFFFFFFFFFF00000
0007FFFFFFFFFFF80000
001FFFFFFFFFFFFE0000
003FFFFFFFFFFFFF0000
007FFFFFFFFFFFFF8000
00FFFFFFFFFFFFFFE000
01FFFFFFFFFFFFFFE000
03FFFFFFFFFFFFFFF000
07FFFF0000003FFFF800
07FFFC00000007FFFC00
0FFFF000000001FFFC00
1FFFC000000000FFFE00
1FFF80000000003FFF00
3FFF00000000001FFF00
3FFE00000000000FFF00
3FFC00000000000FFF80
7FF8000000000007FF80
7FF8000000000003FF80
7FF0000000000003FFC0
FFF0000000000003FFC0
FFF0000000000001FFC0
FFE0000000000001FFC0
FFE0000000000001FFE0
FFE0000000000000FFE0
FFE0000000000000FFE0
FFC0000000000000FFE0
FFC0000000000000FFE0
FFC0000000000000FFE0
FFC0000000000000FFE0
FFC0000000000000FFE0
FFC0000000000000FFE0
FFE0000000000000FFE0
FFE0000000000000FFE0
FFE0000000000001FFC0
FFE0000000000001FFC0
FFF0000000000001FFC0
7FF0000000000003FFC0
7FF0000000000003FF80
7FF8000000000007FF80
3FFC000000000007FF80
3FFC00000000000FFF00
3FFE00000000001FFF00
1FFF00000000001FFF00
1FFF80000000007FFE00
0FFFC000000000FFFC00
07FFF000000001FFFC00
07FFFC00000007FFF800
03FFFF0000003FFFF000
01FFFFFFFFFFFFFFF000
00FFFFFFFFFFFFFFE000
007FFFFFFFFFFFFFC000
003FFFFFFFFFFFFF8000
001FFFFFFFFFFFFE0000
000FFFFFFFFFFFFC0000
0003FFFFFFFFFFF80000
0001FFFFFFFFFFE00000
00007FFFFFFFFF800000
00000FFFFFFFFC000000
000000FFFFFFE0000000
ENDCHAR
STARTCHAR ocircumflex
ENCODING 244
SWIDTH 968 0
DWIDTH 82 0
BBX 75 77 4 0
BITMAP
000000007F8000000000
00000000FFC000000000
00000000FFE000000000
00000001F3E000000000
00000003F3F000000000
00000003E1F800000000
00000007E0F800000000
0000000FC0FC00000000
0000001F807E00000000
0000001F807E00000000
0000003F003F00000000
0000007E001F80000000
00000000000000000000
00000000000000000000
00000000000000000000
000000FFFFFFE0000000
00000FFFFFFFFE000000
00007FFFFFFFFFC00000
0001FFFFFFFFFFF00000
0007FFFFFFFFFFF80000
001FFFFFFFFFFFFE0000
003FFFFFFFFFFFFF0000
007FFFFFFFFFFFFF8000
00FFFFFFFFFFFFFFE000
01FFFFFFFFFFFFFFE000
03FFFFFFFFFFFFFFF000
07FFFF0000003FFFF800
07FFFC00000007FFFC00
0FFFF000000001FFFC00
1FFFC000000000FFFE00
1FFF80000000003FFF00
3FFF00000000001FFF00
3FFE00000000000FFF00
3FFC00000000000FFF80
7FF8000000000007FF80
7FF8000000000003FF80
7FF0000000000003FFC0
FFF0000000000003FFC0
FFF0000000000001FFC0
FFE0000000000001FFC0
FFE0000000000001FFE0
FFE0000000000000FFE0
FFE0000000000000FFE0
FFC0000000000000FFE0
FFC0000000000000FFE0
FFC0000000000000FFE0
FFC0000000000000FFE0
FFC0000000000000FFE0
FFC0000000000000FFE0
FFE0000000000000FFE0
FFE0000000000000FFE0
FFE0000000000001FFC0
FFE0000000000001FFC0
FFF0000000000001FFC0
7FF0000000000003FFC0
7FF0000000000003FF80
7FF8000000000007FF80
3FFC000000000007FF80
3FFC00000000000FFF00
3FFE00000000001FFF00
1FFF00000000001FFF00
1FFF80000000007FFE00
0FFFC000000000FFFC00
07FFF000000001FFFC00
07FFFC00000007FFF800
03FFFF0000003FFFF000
01FFFFFFFFFFFFFFF000
00FFFFFFFFFFFFFFE000
007FFFFFFFFFFFFFC000
003FFFFFFFFFFFFF8000
001FFFFFFFFFFFFE0000
000FFFFFFFFFFFFC0000
0003FFFFFFFFFFF80000
0001FFFFFFFFFFE00000
00007FFFFFFFFF800000
00000FFFFFFFFC000000
000000FFFFFFE0000000
ENDCHAR
STARTCHAR otilde
ENCODING 245
SWIDTH 968 0
DWIDTH 82 0
BBX 75 76 4 0
BITMAP
00000007E00100000000
0000001FF80100000000
0000003FFF0700000000
0000003FFFFF00000000
0000003FFFFF00000000
000000381FFF00000000
0000002007FE00000000
0000002001FC00000000
00000000000000000000
00000000000000000000
00000000000000000000
00000000000000000000
00000000000000000000
00000000000000000000
000000FFFFFFE0000000
00000FFFFFFFFE000000
00007FFFFFFFFFC00000
0001FFFFFFFFFFF00000
0007FFFFFFFFFFF80000
001FFFFFFFFFFFFE0000
003FFFFFFFFFFFFF0000
007FFFFFFFFFFFFF8000
00FFFFFFFFFFFFFFE000
01FFFFFFFFFFFFFFE000
03FFFFFFFFFFFFFFF000
07FFFF0000003FFFF800
07FFFC00000007FFFC00
0FFFF000000001FFFC00
1FFFC000000000FFFE00
1FFF80000000003FFF00
3FFF00000000001FFF00
3FFE00000000000FFF00
3FFC00000000000FFF80
7FF8000000000007FF80
7FF8000000000003FF80
7FF0000000000003FFC0
FFF0000000000003FFC0
FFF0000000000001FFC0
FFE0000000000001FFC0
FFE0000000000001FFE0
FFE0000000000000FFE0
FFE0000000000000FFE0
FFC0000000000000FFE0
FFC0000000000000FFE0
FFC0000000000000FFE0
FFC0000000000000FFE0
FFC0000000000000FFE0
FFC0000000000000FFE0
FFE0000000000000FFE0
FFE0000000000000FFE0
FFE0000000000001FFC0
FFE0000000000001FFC0
FFF0000000000001FFC0
7FF0000000000003FFC0
7FF0000000000003FF80
7FF8000000000007FF80
3FFC000000000007FF80
3FFC00000000000FFF00
3FFE00000000001FFF00
1FFF00000000001FFF00
1FFF80000000007FFE00
0FFFC000000000FFFC00
07FFF000000001FFFC00
07FFFC00000007FFF800
03FFFF0000003FFFF000
01FFFFFFFFFFFFFFF000
00FFFFFFFFFFFFFFE000
007FFFFFFFFFFFFFC000
003FFFFFFFFFFFFF8000
001FFFFFFFFFFFFE0000
000FFFFFFFFFFFFC0000
0003FFFFFFFFFFF80000
0001FFFFFFFFFFE00000
00007FFFFFFFFF800000
00000FFFFFFFFC000000
000000FFFFFFE0000000
ENDCHAR
STARTCHAR odieresis
ENCODING 246
SWIDTH 968 0
DWIDTH 82 0
BBX 75 76 4 0
BITMAP
0000001E001E00000000
0000003F807F00000000
0000007F807F80000000
0000007FC07F80000000
0000007FC07F80000000
0000007F807F80000000
0000003F807F00000000
0000001F001E00000000
00000000000000000000
00000000000000000000
00000000000000000000
00000000000000000000
00000000000000000000
00000000000000000000
000000FFFFFFE0000000
00000FFFFFFFFE000000
00007FFFFFFFFFC00000
0001FFFFFFFFFFF00000
0007FFFFFFFFFFF80000
001FFFFFFFFFFFFE0000
003FFFFFFFFFFFFF0000
007FFFFFFFFFFFFF8000
00FFFFFFFFFFFFFFE000
01FFFFFFFFFFFFFFE000
03FFFFFFFFFFFFFFF000
07FFFF0000003FFFF800
07FFFC00000007FFFC00
0FFFF000000001FFFC00
1FFFC000000000FFFE00
1FFF80000000003FFF00
3FFF00000000001FFF00
3FFE00000000000FFF00
3FFC00000000000FFF80
7FF8000000000007FF80
7FF8000000000003FF80
7FF0000000000003FFC0
FFF0000000000003FFC0
FFF0000000000001FFC0
FFE0000000000001FFC0
FFE0000000000001FFE0
FFE0000000000000FFE0
FFE0000000000000FFE0
FFC0000000000000FFE0
FFC0000000000000FFE0
FFC0000000000000FFE0
FFC0000000000000FFE0
FFC0000000000000FFE0
FFC0000000000000FFE0
FFE0000000000000FFE0
FFE0000000000000FFE0
FFE0000000000001FFC0
FFE0000000000001FFC0
FFF0000000000001FFC0
7FF0000000000003FFC0
7FF0000000000003FF80
7FF8000000000007FF80
3FFC000000000007FF80
3FFC00000000000FFF00
3FFE00000000001FFF00
1FFF00000000001FFF00
1FFF80000000007FFE00
0FFFC000000000FFFC00
07FFF000000001FFFC00
07FFFC00000007FFF800
03FFFF0000003FFFF000
01FFFFFFFFFFFFFFF000
00FFFFFFFFFFFFFFE000
007FFFFFFFFFFFFFC000
003FFFFFFFFFFFFF8000
001FFFFFFFFFFFFE0000
000FFFFFFFFFFFFC0000
0003FFFFFFFFFFF80000
0001FFFFFFFFFFE00000
00007FFFFFFFFF800000
00000FFFFFFFFC000000
000000FFFFFFE0000000
ENDCHAR
STARTCHAR divide
ENCODING 247
SWIDTH 690 0
DWIDTH 59 0
BBX 48 57 5 3
BITMAP
000003E00000
00000FF00000
00000FF80000
00001FFC0000
00001FFC0000
00001FFC0000
00001FFC0000
00001FFC0000
00001FFC0000
00000FF80000
00000FF00000
000003E00000
000000000000
000000000000
000000000000
000000000000
000000000000
000000000000
000000000000
000000000000
000000000000
000000000000
000000000000
000000000000
000000000000
FFFFFFFFFFFF
FFFFFFFFFFFF
FFFFFFFFFFFF
FFFFFFFFFFFF
FFFFFFFFFFFF
FFFFFFFFFFFF
FFFFFFFFFFFF
000000000000
000000000000
000000000000
000000000000
000000000000
000000000000
000000000000
000000000000
000000000000
000000000000
000000000000
000000000000
000000000000
000003E00000
00000FF00000
00000FF80000
00001FFC0000
00001FFC0000
00001FFC0000
00001FFC0000
00001FFC0000
00001FFC0000
00000FF80000
00000FF00000
000003E00000
ENDCHAR
STARTCHAR oslash
ENCODING 248
SWIDTH 968 0
DWIDTH 82 0
BBX 75 70 4 -4
BITMAP
00000000000000008000
0000000000000001E000
0000000000000003F000
0000000000000003E000
000000FFFFFFE007C000
00000FFFFFFFFE0FC000
00007FFFFFFFFF9F8000
0001FFFFFFFFFFFF0000
0007FFFFFFFFFFFE0000
001FFFFFFFFFFFFE0000
003FFFFFFFFFFFFF0000
007FFFFFFFFFFFFF8000
00FFFFFFFFFFFFFFC000
01FFFFFFFFFFFFFFE000
03FFFFFFFFFFFFFFF000
07FFFF0000003FFFF800
07FFFC0000001FFFFC00
0FFFF00000003FFFFC00
1FFFC00000007EFFFE00
1FFF80000000FC3FFE00
3FFF00000001F81FFF00
3FFE00000003F00FFF00
3FFC00000003E00FFF80
7FF800000007C007FF80
7FF80000000F8003FF80
7FF00000001F8003FFC0
FFF00000003F0001FFC0
FFF00000007E0001FFC0
FFE0000000FC0001FFC0
FFE0000000F80001FFE0
FFE0000001F00000FFE0
FFE0000003F00000FFE0
FFC0000007E00000FFE0
FFC000000FC00000FFE0
FFC000001F800000FFE0
FFC000001F000000FFE0
FFC000003E000000FFE0
FFC000007E000000FFE0
FFE00000FC000000FFE0
FFE00001F8000000FFE0
FFE00003F0000001FFC0
FFE00007E0000001FFC0
FFF00007C0000001FFC0
7FF0000F80000003FFC0
7FF0001F80000003FF80
7FF8003F00000007FF80
3FFC007E00000007FF80
3FFC00FC0000000FFF00
3FFE01F80000001FFF00
1FFF01F00000001FFE00
1FFF83F00000007FFE00
0FFFC7E0000000FFFC00
07FFFFC0000001FFFC00
07FFFF80000007FFF800
03FFFF0000003FFFF000
01FFFFFFFFFFFFFFF000
00FFFFFFFFFFFFFFE000
007FFFFFFFFFFFFFC000
003FFFFFFFFFFFFF8000
001FFFFFFFFFFFFF0000
000FFFFFFFFFFFFC0000
0007FFFFFFFFFFF80000
000FFFFFFFFFFFE00000
001F7FFFFFFFFF800000
003F0FFFFFFFFC000000
007E00FFFFFFE0000000
00FC0000000000000000
00F80000000000000000
00700000000000000000
00200000000000000000
ENDCHAR
STARTCHAR ugrave
ENCODING 249
SWIDTH 889 0
DWIDTH 76 0
BBX 67 78 4 -1
BITMAP
00000E000000000000
00000FC00000000000
00000FFC0000000000
00000FFF8000000000
00000FFFF000000000
00000FFFFE00000000
00000FFFFFC0000000
0000007FFFC0000000
00000003FFC0000000
000000003FC0000000
0000000001C0000000
000000000000000000
000000000000000000
000000000000000000
000000000000000000
FFF000000000007FE0
FFF000000000007FE0
FFF000000000007FE0
FFF000000000007FE0
FFF000000000007FE0
FFF000000000007FE0
FFF000000000007FE0
FFF000000000007FE0
FFF000000000007FE0
FFF000000000007FE0
FFF000000000007FE0
FFF000000000007FE0
FFF000000000007FE0
FFF000000000007FE0
FFF000000000007FE0
FFF000000000007FE0
FFF000000000007FE0
FFF000000000007FE0
FFF000000000007FE0
FFF000000000007FE0
FFF000000000007FE0
FFF000000000007FE0
FFF000000000007FE0
FFF000000000007FE0
FFF000000000007FE0
FFF000000000007FE0
FFF000000000007FE0
FFF000000000007FE0
FFF000000000007FE0
FFF000000000007FE0
FFF000000000007FE0
FFF000000000007FE0
FFF000000000007FE0
FFF000000000007FE0
FFF000000000007FE0
FFF000000000007FE0
FFF000000000007FE0
FFF00000000000FFE0
7FF00000000000FFE0
7FF00000000000FFE0
7FF00000000000FFE0
7FF00000000000FFE0
7FF80000000001FFE0
7FF80000000001FFC0
7FFC0000000001FFC0
3FFC0000000003FFC0
3FFE0000000007FFC0
3FFF000000000FFF80
1FFF800000001FFF80
1FFFE00000003FFF00
0FFFF8000001FFFF00
0FFFFF80001FFFFE00
07FFFFFFFFFFFFFE00
03FFFFFFFFFFFFFC00
01FFFFFFFFFFFFF800
00FFFFFFFFFFFFF000
007FFFFFFFFFFFE000
003FFFFFFFFFFFC000
000FFFFFFFFFFF0000
0007FFFFFFFFFC0000
0000FFFFFFFFF00000
00001FFFFFFF000000
0000007FFFE0000000
ENDCHAR
ENDFONT
